<svg xmlns="http://www.w3.org/2000/svg"
     width="261.876dp"
     height="153.246dp"
     
    viewBox="0 0 261.876 153.246">
  <path
      d="M157.415,106.32c5.056,-0.282 11.329,-3.637 16.207,-5.121q8.659,-2.628 17.387,-5.056 30.384,-8.458 61.42,-14.413 2.9,-0.557 5.8,-1.088a40.4,40.4 0,0 0,-13.557 -15.929,39.9 39.9,0 0,0 0.229,-4.2 40.554,40.554 0,0 0,-60.145 -35.129C168.925,15.193 148.264,9.027 125.654,9.027c-32.125,0 -60.326,12.451 -76.306,31.2l75.1,12.413 46.062,7.61c-52.511,1.533 -105.185,3.057 -157.545,-0.542a39.954,39.954 0,0 0,-5.976 51.253h0c0,0.8 0.034,1.6 0.1,2.39 1.334,0.374 2.622,0.736 3.777,0.974q27.822,5.75 56,9.624c-13.843,8.35 -30.7,9.532 -46.67,13.068A47.451,47.451 0,0 0,50 147.087h172.3c18.657,0 33.779,-12.706 33.779,-28.382h0a39.775,39.775 0,0 0,5.491 -14.747C227.043,107.22 192.091,104.387 157.415,106.32Z"
      strokeAlpha="0.1"
      fill="#4f48b9"
      fillAlpha="0.1"/>
  <path
      d="M214.79,73.605a2.693,2.693 0,0 0,-1.2 -0.543c-0.459,-0.109 -0.928,-0.178 -1.395,-0.254l-6.046,-0.9a6.9,6.9 0,0 0,-1.852 -0.1,2.327 2.327,0 0,0 -1.611,0.862 1.322,1.322 0,0 0,-0.28 0.811,2.19 2.19,0 0,0 0.275,0.842 2.858,2.858 0,0 1,0.15 0.373,8.7 8.7,0 0,0 0.216,0.849 0.726,0.726 0,0 0,0.1 0.167,0.282 0.282,0 0,1 0,0.043c-0.066,0.35 0.147,0.715 0.052,1.052 -0.083,0.289 -0.356,0.464 -0.528,0.7a1.088,1.088 0,0 0,-0.025 1.169c0.184,0.294 0.518,0.494 0.614,0.832 0.125,0.444 -0.214,0.872 -0.516,1.215a18.754,18.754 0,0 0,-1.537 2,1.262 1.262,0 0,0 -0.246,0.6c-0.027,0.441 0.383,0.829 0.312,1.268 -0.056,0.345 -0.383,0.555 -0.665,0.761a4.289,4.289 0,0 0,-1.965 3.142,11.182 11.182,0 0,0 -2.377,-5.578 4.006,4.006 0,0 1,-0.882 -1.427c-0.054,-0.221 -0.064,-0.456 -0.137,-0.669 -0.246,-0.672 -1.027,-0.961 -1.368,-1.58 -0.246,-0.436 -0.246,-1 -0.55,-1.379s-0.783,-0.469 -1.046,-0.839a5.433,5.433 0,0 1,-0.334 -0.781,1.7 1.7,0 0,0 -0.454,-0.563 1.3,1.3 0,0 0,-0.113 -0.084,0.409 0.409,0 0,0 0.13,-0.3c0,-0.3 -0.285,-0.492 -0.533,-0.639 -0.319,-0.188 -0.631,-0.39 -0.936,-0.6a2.2,2.2 0,0 0,0.838 -0.707,2.387 2.387,0 0,0 0.319,-1.521 1.955,1.955 0,0 0,-0.44 -1.164c-0.155,-0.17 -0.349,-0.292 -0.511,-0.451a3.756,3.756 0,0 1,-0.737 -1.628,3.319 3.319,0 0,0 -1.265,-1.963c-0.324,-0.2 -0.7,-0.286 -1.019,-0.492a0.927,0.927 0,0 1,-0.472 -0.966,2.376 2.376,0 0,1 0.457,-0.644 1.31,1.31 0,0 0,-0.312 -1.775c-0.182,-0.119 -0.405,-0.223 -0.442,-0.441a0.8,0.8 0,0 1,-0.57 -0.624,2.482 2.482,0 0,1 0,-0.9q0.1,-0.707 0.189,-1.41a0.863,0.863 0,0 0,0.683 0,6.189 6.189,0 0,0 0.737,0.994 10.017,10.017 0,0 1,1.719 3.081,1.865 1.865,0 0,0 0.646,1.075c0.125,0.074 0.268,0.112 0.391,0.19a1.484,1.484 0,0 1,0.383 0.406c0.295,0.4 0.589,0.8 0.882,1.207l0.015,0.061a0.361,0.361 0,0 0,0.039 0.1,0.323 0.323,0 0,0 0.211,0.112 3.475,3.475 0,0 0,2.7 -0.1c0.707,-0.456 1.017,-1.359 1.616,-1.962 0.425,-0.429 1.026,-0.761 1.147,-1.364a4.258,4.258 0,0 1,-0.422 -0.16c0.123,-0.127 0.245,-0.274 0.413,-0.441a5.343,5.343 0,0 0,0.653 -0.8,5.271 5.271,0 0,0 0.491,-1.136q0.71,-2.089 1.424,-4.181c0.226,-0.659 0.452,-1.324 0.737,-1.965 0.295,-0.695 0.643,-1.362 0.965,-2.044a27.7,27.7 0,0 0,1.911 -5.553,2.086 2.086,0 0,0 0.076,-0.809 2.139,2.139 0,0 0,-0.7 -1.1,5.156 5.156,0 0,0 -1.046,-0.9 1.673,1.673 0,0 0,-1.311 -0.218,1.945 1.945,0 0,0 -1.169,1.521 16.469,16.469 0,0 0,-0.152 2.028c-0.088,0.976 -0.413,1.919 -0.491,2.9 -0.042,0.565 0,1.138 -0.066,1.7a6.346,6.346 0,0 1,-0.737 2.1,13.518 13.518,0 0,1 -3.175,4.042c-0.15,0.129 -0.3,0.254 -0.452,0.393a2.512,2.512 0,0 1,0.032 -0.33,1.891 1.891,0 0,0 -0.312,0.114 1,1 0,0 0,-0.037 -0.38c-0.2,-0.606 -1.071,-0.761 -1.228,-1.377a2.909,2.909 0,0 1,-0.042 -0.461,11.977 11.977,0 0,0 -0.53,-1.521 6.688,6.688 0,0 0,-0.246 -1.463,4.048 4.048,0 0,0 -0.653,-0.761 3.018,3.018 0,0 1,-0.621 -1.209c-0.032,-0.124 -0.061,-0.254 -0.1,-0.378a1.782,1.782 0,0 0,-0.088 -0.834c-0.224,-0.573 -0.8,-0.941 -1.009,-1.521 -0.162,-0.451 -0.091,-1.014 -0.4,-1.364a1.429,1.429 0,0 0,-0.582 -0.363,12.614 12.614,0 0,0 -3.5,-0.855 2.919,2.919 0,0 1,-1.9 -0.588c-0.562,-0.568 -0.589,-1.59 -1.247,-2.028a1.46,1.46 0,0 0,-1.849 0.444,2.4 2.4,0 0,0 -0.187,0.254 2.8,2.8 0,0 1,-0.052 -1.04c0,-0.086 0.017,-0.175 0.025,-0.254a4.942,4.942 0,0 0,2.662 -2.17v0.015l0.029,0.079c0.071,0.185 0.184,0.363 0.351,0.383h0a0.482,0.482 0,0 0,0.3 -0.114,2.549 2.549,0 0,0 0.408,-0.365q0.093,-0.107 0.177,-0.221a2.89,2.89 0,0 0,0.29 -0.507,3.085 3.085,0 0,0 0.245,-0.849c0.044,-0.294 0.049,-0.6 0.1,-0.89a5.628,5.628 0,0 1,0.179 -0.672c0.025,-0.074 0.049,-0.147 0.071,-0.221s0.054,-0.172 0.079,-0.254a6.048,6.048 0,0 0,0.245 -1.608v-0.274a2.714,2.714 0,0 0,-0.825 -1.889c-0.422,-0.358 -0.982,-0.507 -1.292,-0.991a4.825,4.825 0,0 1,-0.364 -1.123,2.486 2.486,0 0,0 -1.93,-1.793 2.1,2.1 0,0 0,-1.527 0.434h0l-0.034,0.028h0a2.511,2.511 0,0 0,-0.609 0.7,2.011 2.011,0 0,1 -0.864,-0.507c-0.246,-0.236 -0.435,-0.532 -0.683,-0.761a1.715,1.715 0,0 0,-1.749 -0.38,2.138 2.138,0 0,0 -1.25,1.478 5.286,5.286 0,0 1,-0.393 1.559c-0.219,0.34 -0.577,0.507 -0.828,0.816a1.56,1.56 0,0 0,-0.309 0.677h0a1.89,1.89 0,0 0,-0.042 0.423h0a0.794,0.794 0,0 0,0.015 0.188v0.03a1.381,1.381 0,0 0,0.042 0.205h0a1.793,1.793 0,0 0,0.366 0.695,1.619 1.619,0 0,0 0.592,0.441 2.33,2.33 0,0 0,0.285 0.094l0.292,0.068 0.1,0.025a5.2,5.2 0,0 0,-0.138 4.465,2.143 2.143,0 0,1 -0.024,0.213 18.082,18.082 0,0 0,0.128 2.989,1.65 1.65,0 0,1 -0.179,1.138 2.115,2.115 0,0 1,-0.356 0.327c0.133,-0.177 0.268,-0.352 0.405,-0.527a1.711,1.711 0,0 0,-1.385 -0.37,6.272 6.272,0 0,0 -2.7,0.852 2.969,2.969 0,0 1,-1.744 0.685c-0.371,-0.043 -0.737,-0.254 -1.1,-0.152a2.212,2.212 0,0 0,-0.562 0.345,0.744 0.744,0 0,1 -0.462,0.147 10.046,10.046 0,0 0,-1.444 -1.22,11.607 11.607,0 0,1 -1.437,-1.59c-0.8,-0.991 -1.589,-1.985 -2.37,-2.987a5.815,5.815 0,0 1,-1.449 -2.83,2.836 2.836,0 0,1 -0.017,-0.322 8.443,8.443 0,0 1,0.187 -1.521,0.783 0.783,0 0,0 0,-0.368c-0.074,-0.254 -0.356,-0.347 -0.6,-0.4h0c0.032,-0.2 0.054,-0.4 0.066,-0.586a45.869,45.869 0,0 1,0.435 -6.532,4.5 4.5,0 0,1 1.019,-2.249c0.9,-0.936 2.4,-1.161 3.084,-2.269a2.653,2.653 0,0 0,-0.376 -3.043,3.653 3.653,0 0,0 -2.893,-1.106 1.458,1.458 0,0 0,-0.842 0.233,1.853 1.853,0 0,0 -0.511,0.8l-1.053,2.645a16.293,16.293 0,0 0,-0.771 2.125c-0.295,1.111 -0.361,2.282 -0.594,3.4a9.057,9.057 0,0 1,-0.833 2.731c-0.329,0.893 -0.685,1.775 -0.982,2.685 -0.074,0.228 -0.332,0.905 -0.491,1.521a0.906,0.906 0,0 0,-0.167 0.129,4.6 4.6,0 0,0 -0.349,0.535c-0.224,0.3 -0.587,0.467 -0.833,0.761s-0.3,0.834 0.044,0.981a0.977,0.977 0,0 0,0.214 0.048,0.813 0.813,0 0,1 0.133,0.023c0.368,0.106 0.513,0.586 0.459,0.981s-0.245,0.761 -0.277,1.156a3.18,3.18 0,0 0,0.715 1.94,16.7 16.7,0 0,0 1.311,1.823c0.346,0.4 0.737,0.761 1.085,1.146 1.329,1.41 2.385,3.058 3.578,4.589a10.043,10.043 0,0 0,1.456 1.577,10.965 10.965,0 0,0 1.1,0.783l2.053,1.344a2.218,2.218 0,0 0,0.776 0.378,1 1,0 0,0 0.275,0c0.012,0.063 0.022,0.124 0.037,0.188a11.45,11.45 0,0 1,0.55 1.945c0.039,0.677 -0.02,1.369 0.027,2.054 0.044,0.631 0.179,1.268 0.214,1.889a12.5,12.5 0,0 1,-0.491 3.55,21.68 21.68,0 0,1 -1.473,5.018 3.008,3.008 0,0 0,-0.491 1.354,0.727 0.727,0 0,0 0.015,0.177h0l-0.368,0.216c-0.108,0.063 -0.216,0.127 -0.314,0.193a2.674,2.674 0,0 0,-1.157 1.2c-0.155,0.439 -0.083,0.941 -0.27,1.367a0.623,0.623 0,0 1,-0.029 0.056c-0.2,0.4 -0.587,0.69 -0.675,1.123h0c-0.066,0.332 0.061,0.685 0,1.014v0.013a3.769,3.769 0,0 0,-0.133 0.507,0.627 0.627,0 0,0 0.015,0.167 0.971,0.971 0,0 0,0.295 0.494,1.975 1.975,0 0,0 0.287,0.236q0.157,0.107 0.324,0.2l0.064,0.035c0.093,0.051 0.187,0.1 0.282,0.145l0.064,0.028c0.11,0.051 0.223,0.1 0.336,0.137l0.079,0.025c0.088,0.03 0.179,0.058 0.27,0.081l0.062,0.02 0.056,0.013 0.246,0.053 0.091,0.018q0.162,0.028 0.332,0.046h0.1c0.083,0 0.164,0.013 0.245,0.015h0.449a2.669,2.669 0,0 0,0.346 -0.033h0.037c0.1,-0.015 0.206,-0.033 0.309,-0.056l0.079,-0.018c0.1,-0.023 0.192,-0.046 0.287,-0.076l0.052,-0.015c0.115,-0.035 0.231,-0.074 0.344,-0.119a8.925,8.925 0,0 0,1.135 -0.581c0.245,-0.139 0.491,-0.281 0.737,-0.411a5.616,5.616 0,0 1,0.56 -0.254,3.072 3.072,0 0,1 1.473,-0.254 5.615,5.615 0,0 1,0.737 0.155v0.084q0.3,1.826 0.592,3.651a7.164,7.164 0,0 1,1.017 -0.631,2.388 2.388,0 0,0 -0.13,0.57 2.33,2.33 0,0 0,0 0.454,1.014 1.014,0 0,1 -0.069,0.7c-0.086,0.117 -0.246,0.183 -0.292,0.314a1.106,1.106 0,0 0,-0.024 0.413,0.65 0.65,0 0,1 -0.585,0.614 0.98,0.98 0,0 1,-0.371 1.131,1.291 1.291,0 0,0 -0.285,0.193 0.89,0.89 0,0 0,-0.165 0.383,6.816 6.816,0 0,1 -1.923,3.263 6.28,6.28 0,0 0,-0.95 0.958,4.416 4.416,0 0,0 -0.43,0.875q-0.982,2.48 -1.994,4.962a11.276,11.276 0,0 0,-0.855 2.863c-0.295,2.733 -2.652,5.051 -2.21,7.764a3.869,3.869 0,0 0,0.766 1.854,4.5 4.5,0 0,0 1.964,1.245 34.869,34.869 0,0 0,5.879 1.595l3.124,0.662a13.261,13.261 0,0 0,1.862 0.3,11.812 11.812,0 0,1 2.262,0.177 6.839,6.839 0,0 0,1.358 0.373c0.4,0.023 0.9,-0.066 1.137,0.274s0.054,0.789 0.28,1.09c0.364,0.479 1.25,0 1.645,0.451a2.132,2.132 0,0 1,0.246 0.56,1.009 1.009,0 0,0 0.246,0.319 2.2,2.2 0,0 1,0.03 0.434,7.694 7.694,0 0,1 -0.354,1.729q-0.442,1.544 -0.882,3.091a7.047,7.047 0,0 0,-0.246 1.116,2.769 2.769,0 0,0 0,0.553 1.518,1.518 0,0 0,0.882 1.321,1.571 1.571,0 0,0 1.193,-0.152 5.266,5.266 0,0 0,0.982 -0.685,6.828 6.828,0 0,0 1.417,-1.506c1.228,-1.9 0.83,-4.463 1.692,-6.559 0.572,-1.4 1.687,-2.536 2.058,-4.011a1.656,1.656 0,0 0,0.029 -0.867,1.754 1.754,0 0,0 -1.167,-0.979h-0.022a9.829,9.829 0,0 0,-1.228 -0.363c-0.1,-0.023 -0.209,-0.04 -0.314,-0.058a1.984,1.984 0,0 1,-0.543 -0.73,1.742 1.742,0 0,0 -0.115,-0.439 0.439,0.439 0,0 0,-0.354 -0.2c-0.246,-0.025 -0.575,0.066 -0.842,0.046 -0.548,-0.041 -0.911,-0.6 -1.4,-0.852a2.779,2.779 0,0 0,-1.547 -0.155,1.387 1.387,0 0,1 -0.56,-0.036 2.105,2.105 0,0 1,-0.589 -0.418,2.41 2.41,0 0,0 -2.164,-0.449 2.3,2.3 0,0 1,-0.737 0.172c-0.479,-0.028 -0.818,-0.469 -1.171,-0.8 -0.968,-0.915 -2.345,-1.156 -3.519,-1.757a0.81,0.81 0,0 1,-0.422 -0.375c-0.135,-0.345 0.169,-0.69 0.444,-0.925l2.019,-1.732c2.21,-1.9 4.973,-3.324 6,-6.106a3.579,3.579 0,0 1,0.491 -1.042,1.381 1.381,0 0,1 0.273,-0.254 2.009,2.009 0,0 1,1.51 -0.3,5.021 5.021,0 0,1 1.778,0.8q1.319,0.824 2.566,1.775a22.881,22.881 0,0 1,2.345 1.988c1.289,1.268 2.362,2.771 3.563,4.138a11.486,11.486 0,0 0,4.241 3.3,5.311 5.311,0 0,0 5.115,-0.472c1.653,-1.268 2.183,-3.535 2.6,-5.614 0.921,-0.918 1.2,-2.315 1.648,-3.55 0.282,-0.784 0.643,-1.521 0.948,-2.3 0.364,-0.918 0.648,-1.866 0.933,-2.812a13.9,13.9 0,0 0,0.653 -2.934c0.118,-1.58 -0.292,-3.261 0.137,-4.744a16.6,16.6 0,0 0,1.641 -0.652,7.881 7.881,0 0,1 2.6,-0.231h0.057a1.308,1.308 0,0 0,0.864 -0.21,1.449 1.449,0 0,0 0.356,-1.08A3.371,3.371 0,0 0,214.79 73.605ZM179.209,30.353a1.768,1.768 0,0 1,-0.621 0.046Z">
    <attr name="fill">
      <gradient 
          startY="120.49176"
          startX="183.87112"
          endY="18.43017"
          endX="183.87112"
          type="linear">
        <item offset="0" color="#40808080"/>
        <item offset="0.54" color="#1F808080"/>
        <item offset="1" color="#1A808080"/>
      </gradient>
    </attr>
  </path>
  <path
      d="M181.764,48.449a2.675,2.675 0,0 1,-1.022 0.56l-1.741,0.644a6.31,6.31 0,0 1,-2.93 0.576c-0.557,-0.071 -2.947,-0.434 -3.308,-0.882 -0.55,-0.695 1.378,-1.717 2.036,-2.3a2.81,2.81 0,0 0,0.413 -0.375,1.571 1.571,0 0,0 0.179,-1.133 18.087,18.087 0,0 1,-0.128 -2.984,6.238 6.238,0 0,1 0.1,-0.707c0.246,-1.166 1.3,-0.74 2.127,-0.431a16.365,16.365 0,0 1,2.885 1.291,2.09 2.09,0 0,1 0.712,0.624 3.267,3.267 0,0 1,0.16 2.028,1.949 1.949,0 0,0 0.287,1.491 3.774,3.774 0,0 1,0.464 0.507A0.972,0.972 0,0 1,181.764 48.449Z"
      fill="#be6f72"/>
  <path
      d="M158.922,32.36c0.246,-1.123 0.3,-2.282 0.594,-3.4a16.228,16.228 0,0 1,0.771 -2.117l1.083,-2.609a1.846,1.846 0,0 1,0.511 -0.8,1.476 1.476,0 0,1 0.842,-0.233 3.686,3.686 0,0 1,2.893 1.1,2.624 2.624,0 0,1 0.376,3.025c-0.688,1.108 -2.188,1.331 -3.084,2.264a4.5,4.5 0,0 0,-1.019 2.244,45.612 45.612,0 0,0 -0.435,6.514 2.193,2.193 0,0 1,-0.737 1.8,2.091 2.091,0 0,1 -1.1,0.221l-1.611,0.028c-0.27,0 -1.25,0.175 -1.429,-0.035 -0.314,-0.368 0.4,-2.2 0.533,-2.607 0.29,-0.905 0.646,-1.788 0.982,-2.678A9.111,9.111 0,0 0,158.922 32.36Z"
      fill="#be6f72"/>
  <path
      d="M190.321,101.492c-0.371,1.465 -1.486,2.606 -2.058,4 -0.862,2.092 -0.474,4.65 -1.692,6.542a6.817,6.817 0,0 1,-1.417 1.509,5.251 5.251,0 0,1 -0.982,0.682 1.57,1.57 0,0 1,-1.193 0.152,1.517 1.517,0 0,1 -0.882,-1.318 2.735,2.735 0,0 1,0 -0.55,7.015 7.015,0 0,1 0.246,-1.113q0.442,-1.539 0.882,-3.083a7.676,7.676 0,0 0,0.354 -1.724c0.032,-0.639 -0.361,-1.471 -0.194,-2.066 0.076,-0.269 0.361,-0.507 0.491,-0.733a4.317,4.317 0,0 0,0.422 -1.037,6.581 6.581,0 0,1 0.761,-2.059 4.743,4.743 0,0 1,0.958 -0.926,2.515 2.515,0 0,1 0.914,-0.53 2.167,2.167 0,0 1,0.982 0.048,9.39 9.39,0 0,1 1.228,0.36h0.022a1.732,1.732 0,0 1,1.167 0.976A1.645,1.645 0,0 1,190.321 101.492Z"
      fill="#3f3d56"/>
  <path
      d="M214.679,74.919a1.434,1.434 0,0 1,-0.356 1.078,1.307 1.307,0 0,1 -0.864,0.21h-0.066a8.025,8.025 0,0 0,-2.6 0.231,9.631 9.631,0 0,1 -1.869,0.69 4.463,4.463 0,0 1,-2.561 -0.852,25.094 25.094,0 0,0 -2.326,-1.141c-0.52,-0.221 -1.584,-0.363 -1.834,-0.951q-0.129,-0.418 -0.216,-0.847a2.85,2.85 0,0 0,-0.15 -0.373,2.193 2.193,0 0,1 -0.275,-0.839 1.322,1.322 0,0 1,0.28 -0.811,2.332 2.332,0 0,1 1.609,-0.855 6.9,6.9 0,0 1,1.852 0.1l6.046,0.9a13.771,13.771 0,0 1,1.395 0.254,2.7 2.7,0 0,1 1.2,0.543A3.276,3.276 0,0 1,214.679 74.919Z"
      fill="#3f3d56"/>
  <path
      d="M210.346,73.925c-0.737,1.6 -0.206,3.5 -0.339,5.279a13.825,13.825 0,0 1,-0.653 2.926c-0.285,0.943 -0.57,1.889 -0.933,2.8 -0.3,0.761 -0.666,1.521 -0.948,2.3 -0.449,1.237 -0.737,2.629 -1.648,3.55 -0.417,2.074 -0.948,4.341 -2.6,5.6a5.3,5.3 0,0 1,-5.115 0.472,11.487 11.487,0 0,1 -4.241,-3.3c-1.2,-1.367 -2.274,-2.855 -3.563,-4.128a22.5,22.5 0,0 0,-2.35 -1.985q-1.247,-0.936 -2.566,-1.76a5.058,5.058 0,0 0,-1.778 -0.8,2.009 2.009,0 0,0 -1.51,0.3 1.385,1.385 0,0 0,-0.273 0.254,3.537 3.537,0 0,0 -0.491,1.04c-1.031,2.774 -3.8,4.2 -6.009,6.09l-2.019,1.727c-0.275,0.236 -0.58,0.581 -0.444,0.923a0.81,0.81 0,0 0,0.422 0.375c1.174,0.6 2.552,0.839 3.519,1.752 0.354,0.335 0.693,0.776 1.171,0.8a2.288,2.288 0,0 0,0.737 -0.17,2.416 2.416,0 0,1 2.164,0.446 2.1,2.1 0,0 0,0.589 0.418,1.388 1.388,0 0,0 0.56,0.035 2.9,2.9 0,0 1,1.547 0.155c0.469,0.241 0.855,0.809 1.4,0.849 0.268,0.02 0.587,-0.071 0.842,-0.046a0.44,0.44 0,0 1,0.354 0.2,1.732 1.732,0 0,1 0.115,0.436c0.1,0.358 0.439,0.576 0.661,0.87a2.466,2.466 0,0 1,0.354 1.636,7.071 7.071,0 0,1 -2.151,4.671 2.642,2.642 0,0 1,-1.324 0.761,1.213 1.213,0 0,1 -1.311,-0.6 2.119,2.119 0,0 0,-0.246 -0.558c-0.4,-0.449 -1.282,0.028 -1.645,-0.451 -0.226,-0.3 -0.064,-0.778 -0.28,-1.088s-0.737,-0.254 -1.137,-0.271a7.022,7.022 0,0 1,-1.358 -0.373,11.823 11.823,0 0,0 -2.262,-0.177 13.243,13.243 0,0 1,-1.861 -0.3l-3.124,-0.659a36.086,36.086 0,0 1,-5.879 -1.59,4.708 4.708,0 0,1 -1.965,-1.242 3.87,3.87 0,0 1,-0.766 -1.851c-0.444,-2.705 1.913,-5.018 2.21,-7.744a11.122,11.122 0,0 1,0.855 -2.855q1,-2.475 1.994,-4.952a4.474,4.474 0,0 1,0.417 -0.877,6.261 6.261,0 0,1 0.95,-0.956 6.794,6.794 0,0 0,1.923 -3.256,0.892 0.892,0 0,1 0.165,-0.383 1.377,1.377 0,0 1,0.285 -0.19,0.98 0.98,0 0,0 0.371,-1.128 0.65,0.65 0,0 0,0.584 -0.614,1.091 1.091,0 0,1 0.025,-0.411c0.059,-0.132 0.206,-0.2 0.292,-0.314a1.009,1.009 0,0 0,0.069 -0.695,2.33 2.33,0 0,1 0,-0.454 2.361,2.361 0,0 1,0.658 -1.417c0.587,-0.6 1.422,-0.441 2.232,-0.583a12.491,12.491 0,0 0,2.357 -0.778,22.552 22.552,0 0,1 6.658,-1.59 14.125,14.125 0,0 1,6.724 1.106,3.789 3.789,0 0,1 0.867,0.507 1.683,1.683 0,0 1,0.454 0.56,5.3 5.3,0 0,0 0.334,0.778c0.263,0.37 0.759,0.489 1.046,0.839s0.312,0.941 0.55,1.374c0.341,0.619 1.132,0.905 1.368,1.577 0.074,0.213 0.084,0.446 0.138,0.667a3.833,3.833 0,0 0,0.882 1.425,11.132 11.132,0 0,1 2.377,5.578 4.256,4.256 0,0 1,1.965 -3.134c0.282,-0.19 0.609,-0.4 0.666,-0.745 0.071,-0.436 -0.339,-0.824 -0.312,-1.268a1.264,1.264 0,0 1,0.246 -0.593,18.665 18.665,0 0,1 1.537,-2c0.3,-0.342 0.641,-0.761 0.516,-1.212 -0.1,-0.337 -0.43,-0.535 -0.614,-0.829a1.083,1.083 0,0 1,0.025 -1.166c0.172,-0.241 0.445,-0.416 0.528,-0.7 0.1,-0.337 -0.118,-0.7 -0.052,-1.05a1.294,1.294 0,0 1,0.506 -0.677,4.2 4.2,0 0,1 1.1,-0.745 4.063,4.063 0,0 1,2.058 -0.061c1.149,0.165 2.439,0.418 3.087,1.412A2.47,2.47 0,0 1,210.346 73.925Z"
      fill="#65617d"/>
  <path
      fill="#FF000000"
      d="M214.68,74.972a1.433,1.433 0,0 1,-0.356 1.078,1.307 1.307,0 0,1 -0.864,0.21h-0.066c0.1,-0.527 0.722,-0.829 0.83,-1.364a1.234,1.234 0,0 0,-0.27 -0.92,4.413 4.413,0 0,0 -2.21,-1.435 14.2,14.2 0,0 0,-7.382 -0.57,7.262 7.262,0 0,0 -1.94,0.616 6.313,6.313 0,0 0,-0.589 0.431,2.189 2.189,0 0,1 -0.275,-0.839 1.322,1.322 0,0 1,0.28 -0.811,2.331 2.331,0 0,1 1.609,-0.854 6.9,6.9 0,0 1,1.852 0.1l6.046,0.9a13.765,13.765 0,0 1,1.395 0.254,2.694 2.694,0 0,1 1.2,0.543A3.254,3.254 0,0 1,214.68 74.972Z"
      strokeAlpha="0.1"
      fillAlpha="0.1"/>
  <path
      fill="#FF000000"
      d="M190.32,101.479c-0.371,1.466 -1.486,2.607 -2.058,4 -0.862,2.092 -0.474,4.65 -1.692,6.542a6.816,6.816 0,0 1,-1.417 1.509,5.243 5.243,0 0,1 -0.982,0.682 1.57,1.57 0,0 1,-1.193 0.152,1.517 1.517,0 0,1 -0.882,-1.319 2.735,2.735 0,0 1,0 -0.55l0.015,0.041c0.214,0.533 0.562,1.09 1.112,1.184a1.478,1.478 0,0 0,1.135 -0.413,7.256 7.256,0 0,0 1.731,-2.639 11.19,11.19 0,0 0,0.83 -2.188c0.1,-0.431 0.145,-0.872 0.245,-1.3 0.467,-2.094 2.055,-3.8 2.407,-5.926a1.5,1.5 0,0 0,0.02 -0.444,2.29 2.29,0 0,0 -0.211,-0.553 2.792,2.792 0,0 1,-0.187 -0.614,1.732 1.732,0 0,1 1.166,0.976A1.645,1.645 0,0 1,190.32 101.479Z"
      strokeAlpha="0.1"
      fillAlpha="0.1"/>
  <path
      fill="#FF000000"
      d="M187.031,99.648a3.669,3.669 0,0 1,-1.108 1.562,5.317 5.317,0 0,1 -2.385,1.065 2.3,2.3 0,0 1,-1.228 -0.015c-0.545,-0.2 -0.938,-0.723 -1.5,-0.875a9.911,9.911 0,0 0,-1.228 -0.073,4.327 4.327,0 0,1 -1.871,-1.131c-1.79,-1.389 -4.14,-1.838 -5.931,-3.228a0.56,0.56 0,0 1,-0.192 -0.205,0.629 0.629,0 0,1 -0.037,-0.286 5.992,5.992 0,0 1,0.538 -2.437,8.511 8.511,0 0,1 1.012,-1.488 44.665,44.665 0,0 1,5.135 -5.784,7.744 7.744,0 0,1 2.7,-1.712 3.928,3.928 0,0 1,2.367 -0.046,1.387 1.387,0 0,0 -0.273,0.254 3.537,3.537 0,0 0,-0.491 1.04c-1.034,2.776 -3.8,4.2 -6.012,6.093l-2.019,1.727c-0.275,0.236 -0.579,0.581 -0.444,0.923a0.811,0.811 0,0 0,0.422 0.375c1.174,0.6 2.552,0.839 3.519,1.752 0.354,0.335 0.693,0.776 1.171,0.8a2.293,2.293 0,0 0,0.737 -0.17,2.416 2.416,0 0,1 2.163,0.446 2.1,2.1 0,0 0,0.589 0.418,1.387 1.387,0 0,0 0.56,0.036 2.9,2.9 0,0 1,1.547 0.155c0.469,0.241 0.855,0.809 1.4,0.849C186.456,99.714 186.776,99.617 187.031,99.648Z"
      strokeAlpha="0.1"
      fillAlpha="0.1"/>
  <path
      d="M165.3,68.884a2.652,2.652 0,0 0,-1.154 1.2c-0.157,0.439 -0.084,0.941 -0.273,1.367s-0.614,0.723 -0.707,1.179c-0.066,0.332 0.064,0.682 0,1.014a4.5,4.5 0,0 0,-0.135 0.527,1.115 1.115,0 0,0 0.6,0.9 4.851,4.851 0,0 0,4.462 0.507,19.945 19.945,0 0,0 1.876,-0.991 3.618,3.618 0,0 1,2.021 -0.507c0.405,0.046 0.793,0.2 1.2,0.254a1.232,1.232 0,0 0,1.122 -0.345,1.47 1.47,0 0,0 0.246,-0.6 9.263,9.263 0,0 0,-0.138 -4.267c-0.324,-1.4 -0.815,-2.746 -1.162,-4.138a19.456,19.456 0,0 0,-0.845 -3.066,3.971 3.971,0 0,0 -2.065,-2.257 0.374,0.374 0,0 0,-0.246 -0.033,0.42 0.42,0 0,0 -0.16,0.122 7.852,7.852 0,0 0,-1.685 2.926c-0.386,1.215 -0.491,2.5 -0.845,3.722a3.863,3.863 0,0 1,-0.737 1.575A8.394,8.394 0,0 1,165.3 68.884Z"
      fill="#3f3d56"/>
  <path
      fill="#FF000000"
      d="M174.56,73.376a1.5,1.5 0,0 1,-0.258 0.6,1.219 1.219,0 0,1 -1.122,0.342c-0.4,-0.051 -0.791,-0.205 -1.2,-0.254a3.611,3.611 0,0 0,-2.021 0.507c-0.629,0.325 -1.228,0.728 -1.879,0.989a4.811,4.811 0,0 1,-2.979 0.175,4.733 4.733,0 0,1 -1.473,-0.669 1.091,1.091 0,0 1,-0.6 -0.9,4.472 4.472,0 0,1 0.135,-0.525c0.064,-0.332 -0.064,-0.682 0,-1.014 0.093,-0.456 0.521,-0.761 0.707,-1.182s0.115,-0.926 0.27,-1.364a2.663,2.663 0,0 1,1.157 -1.2,8.8 8.8,0 0,0 1.395,-0.928 1.43,1.43 0,0 0,0.13 -0.188,4.645 4.645,0 0,0 0.584,-1.4c0.361,-1.222 0.459,-2.508 0.842,-3.725a7.868,7.868 0,0 1,1.687 -2.924,0.373 0.373,0 0,1 0.157,-0.122 0.382,0.382 0,0 1,0.246 0.03,4 4,0 0,1 2.065,2.259 20.474,20.474 0,0 1,0.845 3.063c0.344,1.392 0.837,2.743 1.162,4.141A9.3,9.3 0,0 1,174.56 73.376Z"
      strokeAlpha="0.1"
      fillAlpha="0.1"/>
  <path
      fill="#FF000000"
      d="M181.225,45.506a4.863,4.863 0,0 1,-5.982 -2.789,6.172 6.172,0 0,1 0.1,-0.707c0.245,-1.166 1.3,-0.74 2.127,-0.431a16.363,16.363 0,0 1,2.885 1.291,2.089 2.089,0 0,1 0.712,0.624A3.217,3.217 0,0 1,181.225 45.506Z"
      strokeAlpha="0.1"
      fillAlpha="0.1"/>
  <path
      d="M261.876,97.235a40.043,40.043 0,0 0,-17.4 -33.009,40.545 40.545,0 0,0 -59.953,-39.344c-15.84,-10.2 -36.518,-16.368 -59.139,-16.368 -36.795,0 -68.467,16.335 -82.512,39.758 -0.781,-0.045 -1.566,-0.069 -2.358,-0.069A40.359,40.359 0,0 0,0 88.397a39.786,39.786 0,0 0,6.666 22.094h0c0,19.973 19.272,36.164 43.035,36.164h172.4c18.665,0 33.8,-12.714 33.8,-28.4h0A39.761,39.761 0,0 0,261.876 97.235Z"
      strokeAlpha="0.1"
      fill="#4f48b9"
      fillAlpha="0.1"/>
  <path
      d="M174.677,40.923a4.911,5.071 0,1 0,9.822 0a4.911,5.071 0,1 0,-9.822 0z"
      fill="#be6f72"/>
  <path
      fill="#FF000000"
      d="M192.516,74.298c0,0.421 -0.553,0.555 -0.963,0.532a30.157,30.157 0,0 0,-4.374 -0.38c-1.844,0.172 -3.539,1.225 -5.388,1.321a15.825,15.825 0,0 0,-2.139 0.063,27.053 27.053,0 0,1 -2.645,0.827c-0.8,0.071 -1.6,-0.241 -2.4,-0.208a3.764,3.764 0,0 0,-1.6 0.472,2.362 2.362,0 0,1 0.658,-1.417c0.587,-0.6 1.422,-0.441 2.232,-0.583a12.5,12.5 0,0 0,2.358 -0.778,22.55 22.55,0 0,1 6.657,-1.59 14.123,14.123 0,0 1,6.721 1.1,3.791 3.791,0 0,1 0.867,0.507 0.411,0.411 0,0 1,0.017 0.137Z"
      strokeAlpha="0.1"
      fillAlpha="0.1"/>
  <path
      d="M177.008,47.662l-1.989,-0.761 -0.84,-0.319a3.962,3.962 0,0 0,-1.071 -0.294,2.711 2.711,0 0,0 -2.382,1.43 7.906,7.906 0,0 0,-0.872 2.832q-0.339,2.013 -0.575,4.042a27.259,27.259 0,0 0,-0.258 3.687,44.993 44.993,0 0,0 1.407,9.29 33.636,33.636 0,0 1,0.783 4.12c0.059,0.573 0.086,1.149 0.145,1.724 0.064,0.647 0.167,1.286 0.27,1.927l0.592,3.644a4.586,4.586 0,0 1,2.48 -1.042c0.8,-0.03 1.6,0.279 2.4,0.208a26.77,26.77 0,0 0,2.645 -0.824,15.449 15.449,0 0,1 2.141,-0.063c1.847,-0.1 3.544,-1.151 5.385,-1.321a28.667,28.667 0,0 1,4.376 0.378c0.408,0.025 0.96,-0.109 0.96,-0.533 0,-0.294 -0.285,-0.489 -0.533,-0.636a26.289,26.289 0,0 1,-3.327 -2.452,11.419 11.419,0 0,1 -2.615,-2.672c-1.6,-2.574 -1.053,-6.055 -2.421,-8.771 -1.112,-2.206 0,-5.1 0,-7.584a11.859,11.859 0,0 0,-0.941 -5.677l-0.955,-2.5a0.411,0.411 0,0 0,-0.113 -0.19,0.367 0.367,0 0,0 -0.219,-0.068 2.255,2.255 0,0 0,-1.586 0.525c-0.449,0.378 -0.737,0.92 -1.179,1.313A1.76,1.76 0,0 1,177.008 47.662Z"
      fill="#e3e8f4"/>
  <path
      d="M180.046,46.382a4.581,4.581 0,0 1,0.776 -1.96,1.462 1.462,0 0,1 1.849,-0.441c0.658,0.441 0.685,1.461 1.248,2.028a2.96,2.96 0,0 0,1.9 0.588,12.515 12.515,0 0,1 3.5,0.852 1.424,1.424 0,0 1,0.582 0.36c0.307,0.36 0.245,0.913 0.4,1.362 0.209,0.578 0.786,0.946 1.009,1.521a3.125,3.125 0,0 1,-0.206 2.011c-0.371,1.179 -0.6,2.4 -0.965,3.588a8.067,8.067 0,0 1,-1.719 3.243c-0.373,0.4 -0.928,0.761 -1.419,0.525l-0.189,1.407a2.468,2.468 0,0 0,0 0.9,0.8 0.8,0 0,0 0.57,0.624c0.037,0.218 0.26,0.322 0.442,0.441a1.272,1.272 0,0 1,0.515 0.82,1.3 1.3,0 0,1 -0.2,0.955c-0.155,0.216 -0.383,0.385 -0.457,0.642a0.92,0.92 0,0 0,0.471 0.964c0.319,0.2 0.695,0.3 1.019,0.492a3.279,3.279 0,0 1,1.265 1.955,3.676 3.676,0 0,0 0.737,1.625c0.162,0.16 0.356,0.281 0.511,0.449a1.959,1.959 0,0 1,0.44 1.164,2.371 2.371,0 0,1 -0.319,1.521 4.415,4.415 0,0 1,-2.21 1.268,18.579 18.579,0 0,0 -3.526,2.383 3.71,3.71 0,0 1,-1.608 0.781,13.66 13.66,0 0,1 -2.38,-0.286 5.733,5.733 0,0 0,-1.419 0.193l-1.473,0.33a10.119,10.119 0,0 0,-0.9 -3.484,17.847 17.847,0 0,1 -0.629,-6.592 53.166,53.166 0,0 1,1.026 -6.577,43.2 43.2,0 0,1 0.737,-4.589 30.949,30.949 0,0 0,1.284 -4.27C181.072,50.777 179.52,48.746 180.046,46.382Z"
      fill="#3f3d56"/>
  <path
      d="M190.884,51.11a2.847,2.847 0,0 1,0.282 0.824,3.009 3.009,0 0,0 0.621,1.207 4.116,4.116 0,0 1,0.653 0.761,5.852 5.852,0 0,1 0.246,1.46 12,12 0,0 1,0.53 1.521,2.865 2.865,0 0,0 0.042,0.461c0.16,0.614 1.034,0.761 1.228,1.374 0.13,0.4 -0.093,0.832 -0.052,1.25a1.138,1.138 0,0 1,0.022 0.4,0.8 0.8,0 0,1 -0.28,0.37 5.881,5.881 0,0 0,-1.616 2.969,17.426 17.426,0 0,0 -0.371,3.431l-0.96,-1.311a1.487,1.487 0,0 0,-0.383 -0.406c-0.123,-0.076 -0.265,-0.114 -0.391,-0.19a1.843,1.843 0,0 1,-0.646 -1.07,9.971 9.971,0 0,0 -1.719,-3.073 3.376,3.376 0,0 1,-0.931 -1.567,2.981 2.981,0 0,1 0.044,-0.847 14.8,14.8 0,0 1,1.292 -4.835c0.366,-0.69 0.84,-1.313 1.191,-2.013C189.924,51.36 190.256,50.152 190.884,51.11Z"
      fill="#3f3d56"/>
  <path
      d="M168.778,54.576a1.187,1.187 0,0 1,-0.152 0.609,0.761 0.761,0 0,1 -0.776,0.254 2.214,2.214 0,0 1,-0.776 -0.375l-2.053,-1.341a11.35,11.35 0,0 1,-1.1 -0.781,10.024 10.024,0 0,1 -1.456,-1.575c-1.194,-1.521 -2.25,-3.172 -3.578,-4.564 -0.361,-0.38 -0.737,-0.745 -1.085,-1.144a16.65,16.65 0,0 1,-1.311 -1.821,3.161 3.161,0 0,1 -0.715,-1.935c0.039,-0.4 0.224,-0.761 0.278,-1.154s-0.091,-0.872 -0.459,-0.979a0.8,0.8 0,0 0,-0.133 -0.023,0.978 0.978,0 0,1 -0.214,-0.048c-0.341,-0.147 -0.29,-0.692 -0.044,-0.979s0.609,-0.446 0.833,-0.761a4.59,4.59 0,0 1,0.349 -0.535,1.313 1.313,0 0,1 0.572,-0.3 8.587,8.587 0,0 1,4.359 -0.17c0.245,0.056 0.525,0.157 0.6,0.4a0.766,0.766 0,0 1,0 0.365,8.415 8.415,0 0,0 -0.187,1.521 2.793,2.793 0,0 0,0.017 0.319,5.8 5.8,0 0,0 1.449,2.825c0.781,1 1.574,1.99 2.37,2.979a11.565,11.565 0,0 0,1.437 1.585,8.266 8.266,0 0,1 1.51,1.3 2.928,2.928 0,0 1,0.245 1.557A35.676,35.676 0,0 1,168.778 54.576Z"
      fill="#3f3d56"/>
  <path
      d="M197.223,63.898a5.275,5.275 0,0 0,0.653 -0.8,5.344 5.344,0 0,0 0.491,-1.133l1.424,-4.171c0.226,-0.659 0.452,-1.321 0.737,-1.963 0.295,-0.692 0.643,-1.359 0.965,-2.028a27.628,27.628 0,0 0,1.908 -5.515,2.107 2.107,0 0,0 0.076,-0.809 2.134,2.134 0,0 0,-0.7 -1.093,5.145 5.145,0 0,0 -1.046,-0.893 1.673,1.673 0,0 0,-1.311 -0.218,1.945 1.945,0 0,0 -1.169,1.521 16.383,16.383 0,0 0,-0.152 2.028c-0.089,0.974 -0.413,1.914 -0.491,2.891 -0.042,0.565 0,1.136 -0.066,1.7a6.333,6.333 0,0 1,-0.737 2.1,13.535 13.535,0 0,1 -3.175,4.032 5.183,5.183 0,0 0,-0.953 0.946,3.144 3.144,0 0,0 -0.459,1.182 2.8,2.8 0,0 0,0.2 1.919,2.716 2.716,0 0,0 1.9,1.171C196.314,64.976 196.544,64.626 197.223,63.898Z"
      fill="#be6f72"/>
  <path
      d="M179.555,33.998a2.276,2.276 0,0 1,2.225 -1.245,2.485 2.485,0 0,1 1.93,1.79 4.73,4.73 0,0 0,0.364 1.121c0.3,0.489 0.869,0.631 1.292,0.986a2.709,2.709 0,0 1,0.825 1.886,5.877 5.877,0 0,1 -0.327,2.132 6.951,6.951 0,0 0,-0.246 0.892c-0.049,0.294 -0.054,0.593 -0.1,0.887a2.907,2.907 0,0 1,-1.127 1.919,0.482 0.482,0 0,1 -0.3,0.114c-0.192,-0.023 -0.309,-0.254 -0.381,-0.462 -0.39,-1.164 -0.3,-2.586 -1.017,-3.514a3.733,3.733 0,0 0,-1.164 -0.9,1.471 1.471,0 0,0 -0.594,-0.231 1.534,1.534 0,0 0,-0.859 0.325,5.268 5.268,0 0,1 -1.7,0.776 2.037,2.037 0,0 1,-1.756 -0.391c-0.339,-0.289 -0.587,-0.723 -0.963,-0.948a7.24,7.24 0,0 0,-1.14 -0.368,1.726 1.726,0 0,1 -0.97,-1.156 1.787,1.787 0,0 1,0.288 -1.5c0.246,-0.3 0.609,-0.477 0.828,-0.814a5.268,5.268 0,0 0,0.393 -1.557,2.123 2.123,0 0,1 1.25,-1.473 1.715,1.715 0,0 1,1.749 0.378c0.246,0.228 0.442,0.522 0.683,0.761a1.922,1.922 0,0 0,1.817 0.507"
      fill="#3f3d56"/>
  <path
      fill="#FF000000"
      d="M183.267,67.303a1.006,1.006 0,0 0,-0.26 1.075,22.315 22.315,0 0,0 2.856,-0.423c0.668,-0.1 1.839,-0.051 2.289,-0.682 0.8,-1.118 -1.68,-0.87 -2.134,-0.829A4.576,4.576 0,0 0,183.267 67.303Z"
      strokeAlpha="0.1"
      fillAlpha="0.1"/>
  <path
      d="M162.207,38.245a8.415,8.415 0,0 0,-0.187 1.521,4.171 4.171,0 0,1 -2.21,-0.352l-2.031,-0.715a0.565,0.565 0,0 0,-0.776 0.15,17.574 17.574,0 0,1 -1.228,1.407 0.975,0.975 0,0 1,-0.214 -0.048c-0.341,-0.147 -0.29,-0.692 -0.044,-0.979s0.609,-0.446 0.833,-0.761a4.582,4.582 0,0 1,0.349 -0.535,1.313 1.313,0 0,1 0.572,-0.3 8.587,8.587 0,0 1,4.359 -0.17c0.246,0.056 0.526,0.157 0.6,0.4A0.766,0.766 0,0 1,162.207 38.245Z"
      fill="#3f3d56"/>
  <path
      fill="#FF000000"
      d="M162.207,38.245a8.415,8.415 0,0 0,-0.187 1.521,4.171 4.171,0 0,1 -2.21,-0.352l-2.031,-0.715a0.565,0.565 0,0 0,-0.776 0.15,17.574 17.574,0 0,1 -1.228,1.407 0.975,0.975 0,0 1,-0.214 -0.048c-0.341,-0.147 -0.29,-0.692 -0.044,-0.979s0.609,-0.446 0.833,-0.761a4.582,4.582 0,0 1,0.349 -0.535,1.313 1.313,0 0,1 0.572,-0.3 8.587,8.587 0,0 1,4.359 -0.17c0.246,0.056 0.526,0.157 0.6,0.4A0.766,0.766 0,0 1,162.207 38.245Z"
      strokeAlpha="0.1"
      fillAlpha="0.1"/>
  <path
      fill="#FF000000"
      d="M179.401,81.03a1.231,1.231 0,0 1,0.857 0.664l-2.844,-0.745 -1.473,-0.388c-0.26,-0.068 -1.193,-0.147 -1.365,-0.358 -0.246,-0.309 0.626,-0.1 0.783,-0.074 0.476,0.074 0.953,0.15 1.427,0.238C177.68,80.533 178.54,80.805 179.401,81.03Z"
      strokeAlpha="0.1"
      fillAlpha="0.1"/>
  <path
      fill="#FF000000"
      d="M180.492,83.431a5.171,5.171 0,0 0,-1.252 -0.223c-0.442,-0.109 -0.877,-0.254 -1.311,-0.393 -0.882,-0.3 -1.756,-0.634 -2.662,-0.852 -0.167,-0.038 -0.737,-0.048 -0.71,-0.266s0.57,-0.294 0.7,-0.3a6.779,6.779 0,0 1,2.552 0.6A11.12,11.12 0,0 1,180.492 83.431Z"
      strokeAlpha="0.1"
      fillAlpha="0.1"/>
  <path
      fill="#FF000000"
      d="M178.761,79.042a18.462,18.462 0,0 0,-2.647 -0.943,1.052 1.052,0 0,1 -0.675,-0.213 0.83,0.83 0,0 1,-0.219 -0.406,4.461 4.461,0 0,1 1.908,0.495 5.94,5.94 0,0 1,0.894 0.492C178.228,78.596 178.538,78.968 178.761,79.042Z"
      strokeAlpha="0.1"
      fillAlpha="0.1"/>
  <path
      d="M194.589,58.376a4.442,4.442 0,0 0,3.011 4.9c-0.12,0.6 -0.722,0.933 -1.147,1.362 -0.6,0.6 -0.909,1.5 -1.616,1.957a3.5,3.5 0,0 1,-2.7 0.1,0.326 0.326,0 0,1 -0.211,-0.114 0.318,0.318 0,0 1,-0.039 -0.1,6.728 6.728,0 0,1 -0.187,-3.448 11.4,11.4 0,0 1,1.306 -2.622C193.476,59.563 193.52,58.655 194.589,58.376Z"
      fill="#3f3d56"/>
  <path
      d="M174.442,44.454a6.24,6.24 0,0 0,-2.7 0.849,2.964 2.964,0 0,1 -1.744,0.682c-0.371,-0.043 -0.737,-0.254 -1.1,-0.152a2.138,2.138 0,0 0,-0.562 0.345,0.62 0.62,0 0,1 -0.619,0.1l-0.246,3.509a13.277,13.277 0,0 0,0.125 4,11.465 11.465,0 0,1 0.55,1.942c0.039,0.674 -0.02,1.367 0.027,2.049 0.044,0.631 0.179,1.253 0.214,1.884a12.349,12.349 0,0 1,-0.491 3.532,21.524 21.524,0 0,1 -1.473,5 3.01,3.01 0,0 0,-0.491 1.351,0.711 0.711,0 0,0 0.015,0.177c-0.246,0.139 -0.474,0.271 -0.683,0.408a2.663,2.663 0,0 0,-1.157 1.2c-0.155,0.439 -0.084,0.941 -0.27,1.364s-0.614,0.725 -0.707,1.182c-0.066,0.332 0.061,0.682 0,1.014a4.448,4.448 0,0 0,-0.135 0.525,1.1 1.1,0 0,0 0.6,0.9 4.734,4.734 0,0 0,1.474 0.669l1.466,-6.009h0a49.288,49.288 0,0 0,3.323 -7.979,17.518 17.518,0 0,1 0.96,-2.627 12.485,12.485 0,0 0,0.737 -1.491,11.56 11.56,0 0,0 0.354,-2.006 14.409,14.409 0,0 1,0.577 -2.315,10.194 10.194,0 0,0 0.626,-2.48c0.081,-1.222 -0.349,-2.513 0.108,-3.644a4.86,4.86 0,0 1,0.749 -1.164c0.634,-0.8 1.211,-1.641 1.844,-2.442A1.665,1.665 0,0 0,174.442 44.454Z"
      fill="#3f3d56"/>
  <path
      fill="#FF000000"
      d="M180.559,33.074l-0.307,0.023 -0.034,0.025A1.756,1.756 0,0 0,180.559 33.074Z"
      strokeAlpha="0.1"
      fillAlpha="0.1"/>
  <path
      fill="#FF000000"
      d="M186.178,38.338a7.031,7.031 0,0 1,-0.314 1.481,6.948 6.948,0 0,0 -0.246,0.893c-0.049,0.294 -0.054,0.593 -0.1,0.887a2.907,2.907 0,0 1,-1.127 1.919,0.482 0.482,0 0,1 -0.3,0.114c-0.191,-0.023 -0.309,-0.254 -0.381,-0.461 -0.39,-1.164 -0.3,-2.586 -1.017,-3.514a3.734,3.734 0,0 0,-1.164 -0.895,1.471 1.471,0 0,0 -0.594,-0.231 1.534,1.534 0,0 0,-0.859 0.325,5.268 5.268,0 0,1 -1.7,0.776 2.037,2.037 0,0 1,-1.756 -0.39c-0.339,-0.289 -0.587,-0.723 -0.963,-0.948a7.242,7.242 0,0 0,-1.139 -0.368,1.715 1.715,0 0,1 -0.958,-1.131 0.728,0.728 0,0 1,-0.02 -0.1,1.832 1.832,0 0,0 0.02,0.857 1.715,1.715 0,0 0,0.958 1.131,8.1 8.1,0 0,1 1.139,0.368c0.351,0.21 0.624,0.659 0.963,0.948a2.036,2.036 0,0 0,1.756 0.39,5.267 5.267,0 0,0 1.7,-0.776 1.534,1.534 0,0 1,0.859 -0.324,1.47 1.47,0 0,1 0.594,0.231 3.733,3.733 0,0 1,1.147 0.9c0.72,0.928 0.626,2.35 1.017,3.514 0.071,0.21 0.189,0.439 0.381,0.461a0.483,0.483 0,0 0,0.322 -0.122,2.907 2.907,0 0,0 1.13,-1.927c0.044,-0.294 0.049,-0.593 0.1,-0.887a6.97,6.97 0,0 1,0.246 -0.893,5.878 5.878,0 0,0 0.327,-2.132C186.188,38.409 186.183,38.373 186.178,38.338Z"
      strokeAlpha="0.1"
      fillAlpha="0.1"/>
  <path
      d="M172.351,53.701l-0.167,2.315a49.347,49.347 0,0 1,-4.9 16.547,46.1 46.1,0 0,1 -24.385,22.767q-1.584,0.647 -3.288,1.207l-1.267,-4.108a45.78,45.78 0,0 0,9.14 -4.128,41.247 41.247,0 0,0 16,-17.536 48.155,48.155 0,0 0,4.2 -12.754h-15.4v-4.31Z"
      fill="#4f48b9"/>
  <path
      d="M141.204,95.332a46.09,46.09 0,0 0,24.383 -22.764,49.255 49.255,0 0,0 4.9,-16.547l0.167,-2.315h1.719l-0.167,2.315a49.28,49.28 0,0 1,-4.9 16.547A46.1,46.1 0,0 1,142.925 95.332q-1.584,0.647 -3.291,1.209l-0.167,-0.54Q140.354,95.676 141.204,95.332Z"
      strokeAlpha="0.1"
      fill="#fff"
      fillAlpha="0.1"/>
  <path
      d="M118.671,92.43l-1.267,4.108q-1.707,-0.563 -3.291,-1.209a46.09,46.09 0,0 1,-24.383 -22.764,49.25 49.25,0 0,1 -4.9,-16.547l-0.167,-2.315h20.053v4.31h-15.4a48.183,48.183 0,0 0,4.212 12.754,41.22 41.22,0 0,0 16,17.533A45.674,45.674 0,0 0,118.671 92.43Z"
      fill="#4f48b9"/>
  <path
      d="M115.805,95.332a46.09,46.09 0,0 1,-24.383 -22.764,49.248 49.248,0 0,1 -4.9,-16.547l-0.167,-2.315L84.637,53.706l0.167,2.315a49.279,49.279 0,0 0,4.9 16.547,46.1 46.1,0 0,0 24.383,22.764q1.584,0.647 3.291,1.209l0.167,-0.54Q116.657,95.676 115.805,95.332Z"
      strokeAlpha="0.1"
      fill="#fff"
      fillAlpha="0.1"/>
  <path
      d="M151.683,123.24v23.244L105.351,146.484L105.351,123.24l1.473,-2.028c15.014,-5.5 18.057,-19.851 18.664,-25.528q0.135,-1.177 0.155,-2.363h5.729q0.019,1.185 0.155,2.363c0.616,5.677 3.659,20.031 18.664,25.528Z"
      fill="#4f48b9"/>
  <path
      fill="#FF000000"
      d="M105.351,123.24h46.332v2.916h-46.332z"
      strokeAlpha="0.1"
      fillAlpha="0.1"/>
  <path
      d="M110.136,121.211c15.014,-5.5 18.057,-19.851 18.664,-25.528q0.135,-1.177 0.155,-2.363h-2.456q-0.019,1.185 -0.155,2.363c-0.616,5.677 -3.659,20.031 -18.664,25.528l-1.473,2.028v23.244h2.456L108.663,123.24Z"
      strokeAlpha="0.1"
      fill="#fff"
      fillAlpha="0.1"/>
  <path
      fill="#FF000000"
      d="M100.229,55.961h4.155v4.31h-3.787Q100.369,58.142 100.229,55.961Z"
      strokeAlpha="0.1"
      fillAlpha="0.1"/>
  <path
      fill="#FF000000"
      d="M117.569,90.471l-1.267,4.108q-1.707,-0.563 -3.291,-1.21a45.547,45.547 0,0 1,-4.585 -7.029A45.677,45.677 0,0 0,117.569 90.471Z"
      strokeAlpha="0.1"
      fillAlpha="0.1"/>
  <path
      fill="#FF000000"
      d="M139.408,90.473a45.78,45.78 0,0 0,9.14 -4.128,45.723 45.723,0 0,1 -4.585,7.031q-1.584,0.647 -3.288,1.207Z"
      strokeAlpha="0.1"
      fillAlpha="0.1"/>
  <path
      fill="#FF000000"
      d="M156.738,55.961q-0.145,2.181 -0.368,4.31L152.585,60.271v-4.31Z"
      strokeAlpha="0.1"
      fillAlpha="0.1"/>
  <path
      fill="#FF000000"
      d="M131.506,101.444a15.382,15.382 0,0 1,-6.039 0q0.135,-1.177 0.155,-2.363h5.729Q131.369,100.266 131.506,101.444Z"
      strokeAlpha="0.1"
      fillAlpha="0.1"/>
  <path
      d="M98.817,43.464c0.106,31.963 13.367,57.811 29.714,57.811s29.606,-25.848 29.714,-57.811Z"
      fill="#4f48b9"/>
  <path
      d="M105.116,46.464h-5.28c0.106,31.963 13.367,57.811 29.714,57.811a15.564,15.564 0,0 0,2.64 -0.231C117.076,101.438 105.217,76.688 105.116,46.464Z"
      strokeAlpha="0.1"
      fill="#fff"
      fillAlpha="0.1"/>
  <path
      d="M112.747,132.137h31.514v8.367h-31.514z"
      fill="#3f3d56"/>
  <path
      d="M114.22,133.278L144.257,133.278L144.257,132.137L112.747,132.137v8.367h1.473Z"
      strokeAlpha="0.1"
      fill="#fff"
      fillAlpha="0.1"/>
  <path
      d="M91.372,68.524c-0.567,-0.2 -3.907,-2.923 -4.16,-4.158s1.766,-12.739 1.766,-12.739a4.4,4.4 0,0 1,-0.491 -0.038v-0.185l0.415,-15.112s1.7,-10.142 -1.513,-9.551 -1.2,9.551 -1.2,9.551 -0.366,4.549 -0.624,5.913c-0.246,1.316 -1.37,6.676 -0.6,8.342a1.848,1.848 0,0 0,0.093 0.172h0s0.128,5.718 -1.26,6.5c-1.324,0.743 -1.874,4.483 -1.92,4.818l-0.071,-0.03h0a3.9,3.9 0,0 1,-1.024 -0.966c-0.029,-0.038 -0.052,-0.079 -0.079,-0.119a5.712,5.712 0,0 0,-0.145 -7.574,5.46 5.46,0 0,0 -1.52,-1.146 3.7,3.7 0,0 0,-0.327 -1.4c-0.638,-1.41 -4.175,-3.253 -6.687,-3.3 -1.159,-0.035 -2.109,0.3 -2.456,1.24a7.372,7.372 0,0 0,-0.2 1.506,3.838 3.838,0 0,1 -1.589,2.439 10.109,10.109 0,0 0,-1.058 -1.052,23.635 23.635,0 0,1 -2.456,-2.789s-5.105,-5.459 -5.484,-6.955 -5.479,-10.48 -6.613,-8.915 3.907,8.383 3.907,8.383a16.051,16.051 0,0 0,1.694 3.314c0.737,0.837 6.385,9.305 6.385,9.305l0.27,0.578a4.992,4.992 0,0 0,-2.669 2.764c-0.565,1.9 0.67,3.8 1.525,5.578 1.665,3.464 1.9,7.88 -0.246,11.045 -1.925,2.794 -5.265,4.123 -8.391,5.284a8.09,8.09 0,0 0,5.3 1.818c-0.722,2.16 -3.281,2.875 -5.462,3.276a7.726,7.726 0,0 0,4.354 1.8,12.648 12.648,0 0,0 2.331,0.19h0.192l0.192,-0.015a6.485,6.485 0,0 0,0.793 -0.1,4.163 4.163,0 0,0 2.817,-1.912c0.491,-0.885 0.663,-2.092 1.554,-2.536a1.936,1.936 0,0 1,0.737 -0.18h0.479l3.716,0.038h0.474a3.025,3.025 0,0 0,2.7 -1.108,3.154 3.154,0 0,0 0.336,-1.407c0.079,-1.215 0,-2.465 0.032,-3.689 0.317,2.229 0.648,5.7 -0.14,6.985a11.784,11.784 0,0 1,-2.3 2.579,4.5 4.5,0 0,0 -0.609,0.644c-0.12,0.089 -0.192,0.137 -0.192,0.137l-0.076,0.236a4.54,4.54 0,0 0,-0.6 1.435,1.027 1.027,0 0,0 -0.047,0.408c0.086,0.18 -0.614,0.923 -0.41,1.235a11.409,11.409 0,0 0,-2.08 5.325l-3.192,5.005c-1.64,4.45 -4.1,4.906 -4.1,4.906s-5.768,-4 -5.926,-4.191a21.977,21.977 0,0 0,-2.362 -1.171,2.532 2.532,0 0,0 -1.135,-1.07c-0.756,-0.325 -0.82,-1.521 -0.82,-1.521 -0.093,-2.827 -1.7,-3.043 -1.7,-3.043a5.085,5.085 0,0 0,-3.048 0.56l-0.231,0.018c-1.115,0.094 -2.456,0.2 -3.929,0.3 -4.1,0.279 -5.074,3.02 -5.074,3.02a0.862,0.862 0,0 0,0.157 1.22c0.661,0.634 4.889,0 5.069,-0.015a2.662,2.662 0,0 1,-0.963 -0.068c0.665,-0.025 1.581,-0.051 2.362,-0.051h0.189a10.9,10.9 0,0 0,-0.071 1.288c0,0.811 2.173,1.331 2.173,1.331l6.618,6.085a26.131,26.131 0,0 1,6.807 4.681c2.647,2.761 4.988,0.378 4.988,0.378 2.8,-0.715 10.864,-10.779 10.872,-10.789h0c0,0.294 0.169,10.081 0.491,12.046h0a1.341,1.341 0,0 0,0.071 0.292c0.378,0.844 -0.128,3.152 -0.346,4.125a11.822,11.822 0,0 0,-0.16 2.47S72.459,132.106 72.71,133.154s-1.638,5.913 -1.638,5.913v4.057l0.329,-0.018a2.193,2.193 0,0 0,-0.118 0.2l-0.022,0.043a13.552,13.552 0,0 0,3.372 0.325c1.356,-0.129 3.684,1.078 3.684,1.078a9.975,9.975 0,0 0,3.215 0.548c2.426,0.162 2.426,-1.106 2.426,-1.106 -0.278,-1.727 -4.111,-2.3 -4.229,-2.323 -0.309,-0.2 -0.6,-0.418 -0.837,-0.606l-0.049,-0.041a1.1,1.1 0,0 0,0.042 -0.117c0.41,-1.724 -1.859,-2.472 -1.859,-2.472v-0.421c1.473,-0.781 1.766,-6.141 1.766,-6.141s2.21,-6.628 2.52,-7.733a7.542,7.542 0,0 0,0 -2.761l0.221,-1.43a7.16,7.16 0,0 0,0.474 -1.169,2.94 2.94,0 0,1 0.535,-1.364c0.346,-0.423 -0.378,-1.43 -0.378,-1.43l0.631,-1.689L82.795,112.644l1.473,-6.724s1.545,-7.832 1.009,-10.4a4.517,4.517 0,0 1,0.631 -3.867,3.05 3.05,0 0,1 -0.324,0.152 9.891,9.891 0,0 0,0.381 -1.08l3.315,0.423v0.051h1.2s-0.378,-4.818 -0.378,-6.76 1.275,-8.913 1.275,-8.913S91.939,68.72 91.372,68.524ZM76.659,62.901c0,0.19 -0.017,0.388 -0.029,0.591l-0.066,0.1 -0.123,-0.107 -0.15,0.241 -0.044,0.023c-0.324,-0.172 -0.491,-1.159 -0.724,-0.946l-0.032,0.028c-0.052,-0.061 -0.1,-0.079 -0.157,-0.028l-0.049,0.043v-0.226a5.359,5.359 0,0 0,1.375 0.18C76.659,62.837 76.659,62.87 76.659,62.901ZM87.685,85.336h0.071l-0.118,0.319C87.649,85.544 87.659,85.444 87.681,85.335ZM75.585,142.836 L75.133,142.719 75.379,142.676 75.607,142.831 75.634,142.851ZM80.202,142.154c-0.15,-0.081 -0.3,-0.175 -0.449,-0.271C79.793,141.909 79.987,142.013 80.193,142.152Z">
  </path>
  <path
      d="M83.457,87.148l-2.974,8h0.722l-2.8,2.3 5.049,0.649Z"
      fill="#f86d70"/>
  <path
      fill="#FF000000"
      d="M83.457,87.148l-2.974,8 -0.749,-0.208 -1.326,2.51 5.049,0.649Z"
      strokeAlpha="0.1"
      fillAlpha="0.1"/>
  <path
      d="M78.739,93.134L83.399,93.134l1.712,-14.542L78.739,78.592Z"
      fill="#f86d70"/>
  <path
      fill="#FF000000"
      d="M78.739,93.134L83.399,93.134l1.712,-14.542L78.739,78.592Z"
      strokeAlpha="0.1"
      fillAlpha="0.1"/>
  <path
      d="M70.123,83.466l1.007,-0.175 2.313,-0.406s6.947,-1.618 8.381,-1.75a8.738,8.738 0,0 0,2.515 -0.74c0.376,-0.167 0.614,-0.294 0.614,-0.294l-2.5,-4.719 -3.883,-2.972a6.654,6.654 0,0 1,-3.494 -2.016,2.439 2.439,0 0,1 -0.322,-2.252c0.634,-2.028 -3.784,1.94 -3.784,1.94s0.042,0.951 0,2.163c0,0.238 -0.022,0.487 -0.039,0.74 0,0.167 -0.022,0.335 -0.039,0.507a8.368,8.368 0,0 1,-0.766 3.185C69.055,78.488 70.123,83.466 70.123,83.466Z"
      fill="#fbbebe"/>
  <path
      fill="#FF000000"
      d="M71.096,72.995h0.1c0.177,0 0.319,-0.388 0.491,-0.406a5.01,5.01 0,0 0,3.522 -1.448,2.442 2.442,0 0,1 -0.322,-2.249c0.634,-2.028 -3.784,1.937 -3.784,1.937S71.148,71.783 71.096,72.995Z"
      strokeAlpha="0.1"
      fillAlpha="0.1"/>
  <path
      d="M65.97,67.664a5.47,5.47 0,0 0,5.383 5.558,3.626 3.626,0 0,0 0.526,-0.025 5.507,5.507 0,0 0,4.846 -5.893,5.38 5.38,0 0,0 -10.755,0.36Z"
      fill="#fbbebe"/>
  <path
      d="M65.293,58.007a7.048,7.048 0,0 0,-0.194 1.5c-0.263,1.8 -2.038,2.883 -3.644,3.639s-3.418,1.651 -3.929,3.393c-0.56,1.884 0.663,3.773 1.513,5.54 1.655,3.443 1.891,7.835 -0.246,10.984 -1.9,2.789 -5.206,4.113 -8.32,5.274a8.035,8.035 0,0 0,5.268 1.81c-0.715,2.148 -3.256,2.86 -5.422,3.256a7.658,7.658 0,0 0,4.325 1.79,9.5 9.5,0 0,0 3.438,0.066 4.125,4.125 0,0 0,2.795 -1.9c0.491,-0.88 0.658,-2.079 1.545,-2.523a2.715,2.715 0,0 1,1.26 -0.19l3.684,0.041c1.147,0 2.5,-0.091 3.1,-1.1a3.121,3.121 0,0 0,0.334 -1.4c0.16,-2.495 -0.3,-5.132 0.69,-7.409 0.3,-0.687 -1.623,-1.775 -1.422,-2.5a24.09,24.09 0,0 0,0.86 -7.077c0,-2.016 1.27,-3.753 2.318,-5.454s1.925,-3.849 1.1,-5.675C73.404,58.028 66.396,55.069 65.293,58.007Z"
      fill="#3f3d56"/>
  <path
      d="M70.255,140.856l1.072,0.733 0.165,0.113 0.031,0.02 1.271,0.869 2.968,0.516 2.609,-0.185s0.752,-1.622 -0.429,-1.584a2.4,2.4 0,0 1,-1.077 -0.321l-0.163,-0.084h0c-0.171,-0.093 -0.342,-0.2 -0.511,-0.307h0c-0.351,-0.229 -0.682,-0.478 -0.948,-0.689 -0.393,-0.313 -0.654,-0.55 -0.654,-0.55Z"
      fill="#fbbebe"/>
  <path
      fill="#FF000000"
      d="M69.285,143.589l0.165,0.113 0.031,0.02 1.271,0.869 2.968,0.516 2.609,-0.185s0.752,-1.622 -0.429,-1.584a2.4,2.4 0,0 1,-1.077 -0.321,0.983 0.983,0 0,1 0.4,0.5c0.048,0.414 -1.93,1.159 -1.93,1.159L70.502,143.915s-0.474,-0.139 -1.122,-0.313l-0.062,-0.017Z"
      strokeAlpha="0.1"
      fillAlpha="0.1"/>
  <path
      d="M66.718,142.296a15.319,15.319 0,0 0,3.823 0.368c1.537,-0.148 4.185,1.219 4.185,1.219a11.415,11.415 0,0 0,3.647 0.62c2.752,0.185 2.752,-1.257 2.752,-1.257 -0.314,-1.961 -4.662,-2.607 -4.8,-2.635h0a5.3,5.3 0,0 1,0.511 0.307h0c0.309,0.209 0.642,0.481 0.668,0.7 0.048,0.411 -1.93,1.159 -1.93,1.159l-2.788,-0.759s-0.474,-0.142 -1.122,-0.316h-0.062a23.246,23.246 0,0 0,-2.923 -0.623,2.026 2.026,0 0,0 -1.941,1.159A0.358,0.358 0,0 0,66.718 142.296Z"
      fill="#3f3d56"/>
  <path
      d="M33.541,96.653 L34.601,97.495s0.309,-0.015 0.771,-0.031h0.147c0.661,-0.025 1.572,-0.051 2.345,-0.051a7.206,7.206 0,0 1,1.5 0.086c0.53,0.193 1.473,-3.134 1.473,-3.134l-1.066,-0.254 -0.354,-0.086 -0.246,-0.061 -0.867,-0.211 -2.628,0.309L33.831,95.295Z"
      fill="#fbbebe"/>
  <path
      fill="#FF000000"
      d="M28.541,90.654 L29.601,91.496s0.309,-0.015 0.771,-0.031a0.941,0.941 0,0 1,-0.491 -0.454c-0.688,-1.97 2.723,-2.812 2.723,-2.812l1.589,-0.071 0.309,-0.015h0.246l-0.354,-0.086 -0.246,-0.061 -0.867,-0.211 -2.628,0.309L28.811,89.296Z"
      strokeAlpha="0.1"
      fillAlpha="0.1"/>
  <path
      d="M32.444,96.552c0.643,0.614 4.857,0 5.034,-0.015a2.567,2.567 0,0 1,-0.955 -0.068,1.056 1.056,0 0,1 -0.737,-0.545c-0.688,-1.973 2.723,-2.812 2.723,-2.812l1.589,-0.071 0.307,-0.015 3.863,-0.173 0.187,-1.1s-1.255,0.122 -3.224,0.284c-1.108,0.094 -2.456,0.2 -3.912,0.3 -4.069,0.279 -5.037,3 -5.037,3A0.861,0.861 0,0 0,32.444 96.552Z"
      fill="#3f3d56"/>
  <path
      d="M78.797,63.415a1.129,1.129 0,0 0,0.093 0.172l0.938,1.42 2.441,0.254 0.027,-1 0.41,-15.031s1.69,-10.081 -1.5,-9.5 -1.189,9.5 -1.189,9.5 -0.363,4.523 -0.619,5.883C79.148,56.431 78.036,61.771 78.797,63.415Z"
      fill="#fbbebe"/>
  <path
      d="M73.626,94.613l0.695,1.227 1.554,2.746s2.819,1.067 3.541,0.253a10.756,10.756 0,0 0,1.122 -3.3c0.246,-1.055 0.41,-1.945 0.41,-1.945Z"
      fill="#fbbebe"/>
  <path
      fill="#FF000000"
      d="M73.626,94.859l0.695,1.227a0.836,0.836 0,0 0,0.118 -0.129c0.786,-1.034 4.246,-0.221 6.1,-0.155 0.246,-1.055 0.41,-1.945 0.41,-1.945Z"
      strokeAlpha="0.1"
      fillAlpha="0.1"/>
  <path
      fill="#FF000000"
      d="M37.868,97.443a7.206,7.206 0,0 1,1.5 0.086c0.53,0.193 1.473,-3.134 1.473,-3.134l-1.419,-0.345 3.863,-0.172 0.187,-1.1s-1.255,0.122 -3.224,0.284a4.088,4.088 0,0 0,-1.073 0.926l-0.059,0.076A6.777,6.777 0,0 0,37.868 97.443Z"
      strokeAlpha="0.1"
      fillAlpha="0.1"/>
  <path
      fill="#FF000000"
      d="M62.319,141.856l1.237,0.846c1.846,-0.345 3.531,-0.886 3.731,-1.738a0.309,0.309 0,0 0,0 -0.04c-0.393,-0.313 -0.654,-0.55 -0.654,-0.55Z"
      strokeAlpha="0.1"
      fillAlpha="0.1"/>
  <path
      fill="#FF000000"
      d="M56.916,153.246a41.53,41.53 0,0 0,4.864 -0.539,23.234 23.234,0 0,0 -2.926,-0.628A2.015,2.015 0,0 0,56.916 153.246Z"
      strokeAlpha="0.1"
      fillAlpha="0.1"/>
  <path
      d="M40.415,99.803c0,0.809 2.159,1.326 2.159,1.326l6.574,6.042a25.894,25.894 0,0 1,6.758 4.653c2.628,2.746 4.946,0.388 4.946,0.388 2.785,-0.71 10.805,-10.728 10.805,-10.728s0.187,11.44 0.562,12.28 -0.125,3.134 -0.344,4.105a11.775,11.775 0,0 0,-0.157 2.454s-3,11.859 -2.753,12.893 -1.628,5.882 -1.628,5.882v4.039s7.355,-0.292 7.76,-2 -1.844,-2.457 -1.844,-2.457L73.253,138.253c1.473,-0.776 1.751,-6.106 1.751,-6.106s2.193,-6.593 2.5,-7.69a7.419,7.419 0,0 0,0 -2.749l0.219,-1.42a7.216,7.216 0,0 0,0.469 -1.164,2.927 2.927,0 0,1 0.533,-1.357c0.344,-0.421 -0.376,-1.422 -0.376,-1.422l0.626,-1.681v-1.841l1.473,-6.689s1.535,-7.789 1,-10.342a4.482,4.482 0,0 1,0.626 -3.844c-2.512,1.359 -3.779,-1.666 -4.194,-2.967 -0.106,-0.335 -0.157,-0.558 -0.157,-0.558a17.073,17.073 0,0 0,-6.662 -1,7.465 7.465,0 0,0 -1.913,0.418c-3.568,1.326 -4.131,6.818 -4.131,6.818l-3.161,4.977c-1.628,4.427 -4.069,4.878 -4.069,4.878s-5.727,-3.973 -5.894,-4.168a22.614,22.614 0,0 0,-2.348 -1.164,2.512 2.512,0 0,0 -1.127,-1.065c-0.751,-0.325 -0.813,-1.521 -0.813,-1.521 -0.093,-2.812 -1.69,-3.043 -1.69,-3.043C40.383,93.084 40.415,98.997 40.415,99.803Z"
      fill="#3f3d56"/>
  <path
      d="M73.938,91.491l-3.379,-0l-0,-10.824l3.379,-0z"
      fill="#f86d70"/>
  <path
      fill="#FF000000"
      d="M73.938,91.491l-3.379,-0l-0,-10.824l3.379,-0z"
      strokeAlpha="0.1"
      fillAlpha="0.1"/>
  <path
      fill="#FF000000"
      d="M78.8,61.607a0.178,0.178 0,0 0,0 0.023,1.133 1.133,0 0,0 0.093,0.172l0.938,1.42 2.441,0.254 0.027,-1A9.493,9.493 0,0 1,78.8 61.607Z"
      strokeAlpha="0.1"
      fillAlpha="0.1"/>
  <path
      d="M78.979,59.386s0.125,5.685 -1.252,6.461 -1.913,4.818 -1.913,4.818 4.175,2.835 5.105,4.082 3.067,4.219 2.628,4.929 1.066,3.943 1.066,3.943 -2.755,5.817 -2.129,8.015 0.688,8.012 0.688,8.012h1.191s-0.376,-4.782 -0.376,-6.722 1.25,-8.854 1.25,-8.854 0.565,-6.785 0,-6.978 -3.88,-2.908 -4.131,-4.138 1.753,-12.678 1.753,-12.678A10.664,10.664 0,0 1,78.979 59.386Z"
      fill="#f86d70"/>
  <path
      fill="#FF000000"
      d="M70.291,80.866a5.643,5.643 0,0 0,0.818 2.216l2.313,-0.406s6.947,-1.618 8.381,-1.75a8.745,8.745 0,0 0,2.515 -0.74,11.519 11.519,0 0,0 -3.107,-5.261l-0.882,-0.844a14.72,14.72 0,0 0,-4.445 -2.934c0.1,0.089 7.392,6.514 5.8,7.774s-5.894,-1.808 -5.894,-1.808l-4.887,-4.336 -0.177,-0.157 -0.282,0.454a4.063,4.063 0,0 1,0.42 0.208,7.383 7.383,0 0,1 3.438,4.412C75.303,81.18 70.291,80.866 70.291,80.866Z"
      strokeAlpha="0.1"
      fillAlpha="0.1"/>
  <path
      d="M69.03,94.77s4.632,2.65 5.756,1.164a1.879,1.879 0,0 1,1.41 -0.507c-0.106,-0.335 -0.157,-0.558 -0.157,-0.558a17.072,17.072 0,0 0,-6.662 -1C69.165,94.418 69.03,94.77 69.03,94.77Z"
      fill="#444053"/>
  <path
      d="M70.998,71.55l5.064,4.5s4.28,3.078 5.894,1.808 -5.8,-7.777 -5.8,-7.777h0a14.93,14.93 0,0 1,4.442 2.926l0.882,0.844c2.318,2.219 2.841,2.219 2.92,5.479a4.706,4.706 0,0 1,-0.449 2.165c-0.751,0.761 -1.277,6.286 -1.162,6.932s-1.4,6.227 -0.909,7.779 -6.139,-0.776 -7.262,0.712S68.866,95.754 68.866,95.754s2.566,-6.788 3.192,-7.239 1.378,-3.943 0,-5.558a6.125,6.125 0,0 1,-1.5 -3.167s5.01,0.319 4.005,-3.167a7.255,7.255 0,0 0,-3.851 -4.62Z"
      fill="#e8e8f0"/>
  <path
      fill="#FF000000"
      d="M77.702,83.009s-1.942,3.781 -4.455,4.762c-0.081,0.03 -0.16,0.058 -0.246,0.084C70.379,88.679 77.899,84.18 77.702,83.009Z"
      strokeAlpha="0.1"
      fillAlpha="0.1"/>
  <path
      d="M52.186,53.612a15.277,15.277 0,0 0,1.69 3.3c0.751,0.839 6.321,9.242 6.321,9.242l0.472,1.014 0.405,0.865 3.568,-0.388 0.246,-1.486 -0.138,-0.172a17.185,17.185 0,0 0,-1.992 -2.155,23.579 23.579,0 0,1 -2.441,-2.776s-5.069,-5.431 -5.444,-6.917 -5.447,-10.4 -6.572,-8.854S52.186,53.612 52.186,53.612Z"
      fill="#fbbebe"/>
  <path
      fill="#FF000000"
      d="M61.917,90.642a2.716,2.716 0,0 0,-1.26 0.188c-0.884,0.444 -1.051,1.643 -1.542,2.523a4.125,4.125 0,0 1,-2.8 1.9,6.088 6.088,0 0,1 -0.678,0.1 7.461,7.461 0,0 0,2.151 -0.1,4.125 4.125,0 0,0 2.8,-1.9c0.491,-0.88 0.658,-2.079 1.542,-2.523a1.916,1.916 0,0 1,0.737 -0.178Z"
      strokeAlpha="0.1"
      fillAlpha="0.1"/>
  <path
      fill="#FF000000"
      d="M70.644,71.193c0,-2.016 1.27,-3.753 2.316,-5.454s1.925,-3.849 1.1,-5.675c-0.707,-1.559 -4.97,-3.651 -7.431,-3.238 2.409,0.322 5.378,1.96 5.958,3.238 0.828,1.826 -0.052,3.973 -1.1,5.675s-2.321,3.438 -2.316,5.454a24.4,24.4 0,0 1,-0.862 7.077c-0.2,0.723 1.719,1.815 1.424,2.5 -1,2.282 -0.53,4.914 -0.69,7.409a3.161,3.161 0,0 1,-0.336 1.4,2.832 2.832,0 0,1 -2.478,1.1h0.857c1.144,0 2.5,-0.091 3.094,-1.1a3.16,3.16 0,0 0,0.336 -1.4c0.16,-2.5 -0.307,-5.129 0.69,-7.409 0.3,-0.685 -1.623,-1.775 -1.424,-2.5A24.1,24.1 0,0 0,70.644 71.193Z"
      strokeAlpha="0.1"
      fillAlpha="0.1"/>
  <path
      fill="#FF000000"
      d="M59.97,65.668l0.405,0.865 3.568,-0.388 0.246,-1.486 -0.138,-0.172C63.671,64.679 60.82,66.096 59.97,65.668Z"
      strokeAlpha="0.1"
      fillAlpha="0.1"/>
  <path
      fill="#FF000000"
      d="M72.985,73.139s-0.877,-1.42 -1.378,-1.035 -0.695,-1.164 -0.982,-0.905 -1.125,0.979 -1.473,-0.028c-0.273,-0.8 -3.239,-5.87 -4.442,-7.908 -0.309,-0.527 -0.5,-0.852 -0.5,-0.852s-3.379,1.744 -4.192,1.164v1.227l0.688,0.066 3.684,7.1a7.716,7.716 0,0 1,1.081 2.569c-0.079,0.664 1.486,3.573 1.736,3.765s2.947,3.426 2.947,3.426 1.378,6.98 0.187,8.92a13.009,13.009 0,0 1,-3.254 3.36,11.129 11.129,0 0,0 -0.53,2.069c0.091,0.2 -0.722,1.035 -0.346,1.293a6.791,6.791 0,0 1,0.877 2.066s1.753,-2.908 2.7,-3.36 2.161,-6.4 2.161,-6.4 0.346,-3.5 0.373,-5.766S72.234,73.139 72.985,73.139Z"
      strokeAlpha="0.1"
      fillAlpha="0.1"/>
  <path
      d="M72.809,73.138s-0.874,-1.42 -1.375,-1.035 -0.7,-1.164 -0.982,-0.905 -1.122,0.979 -1.473,-0.028c-0.275,-0.8 -3.242,-5.87 -4.442,-7.908l-0.5,-0.852s-3.379,1.744 -4.194,1.164v1.227l0.69,0.066 3.684,7.1s1.162,1.9 1.081,2.569 1.473,3.573 1.736,3.765 2.947,3.426 2.947,3.426 1.378,6.98 0.189,8.92a11.763,11.763 0,0 1,-2.267 2.591,4.546 4.546,0 0,0 -1.473,2.439 0.993,0.993 0,0 0,-0.044 0.406c0.091,0.193 -0.722,1.035 -0.346,1.293a6.855,6.855 0,0 1,0.882 2.074s1.753,-2.908 2.7,-3.36 2.164,-6.4 2.164,-6.4 0.344,-3.5 0.373,-5.766S72.072,73.138 72.809,73.138Z"
      fill="#f86d70"/>
  <path
      fill="#FF000000"
      d="M64.099,100.312a12.313,12.313 0,0 1,3.684 1.291c1.053,0.784 -4.005,-1.227 -4.005,-1.227Z"
      strokeAlpha="0.1"
      fillAlpha="0.1"/>
  <path
      fill="#FF000000"
      d="M69.996,105.504s2.743,2.361 2.252,4.493 -1.758,7.5 -1.758,7.5Z"
      strokeAlpha="0.1"
      fillAlpha="0.1"/>
  <path
      fill="#FF000000"
      d="M51.231,120.806s-3.865,0.436 -3.615,0.953 3.615,-0.477 3.615,-0.477Z"
      strokeAlpha="0.1"
      fillAlpha="0.1"/>
  <path
      fill="#FF000000"
      d="M75.435,116.58s0.246,0.322 -1.189,0 -0.376,-1.316 -0.376,-1.316Z"
      strokeAlpha="0.1"
      fillAlpha="0.1"/>
  <path
      fill="#FF000000"
      d="M75.04,121.037a8.855,8.855 0,0 1,-3.018 0C70.969,120.715 75.04,121.037 75.04,121.037Z"
      strokeAlpha="0.1"
      fillAlpha="0.1"/>
  <path
      fill="#FF000000"
      d="M62.897,147.723s-0.393,-0.443 -2.359,0.368 -2.752,0.849 -3.324,0.579S62.897,147.723 62.897,147.723Z"
      strokeAlpha="0.1"
      fillAlpha="0.1"/>
  <path
      fill="#FF000000"
      d="M73.018,101.742l-2.441,3.507S71.891,102.178 73.018,101.742Z"
      strokeAlpha="0.1"
      fillAlpha="0.1"/>
  <path
      fill="#FF000000"
      d="M68.657,73.221a2.071,2.071 0,0 1,-1.68 1.618c-1.574,0.454 -1.874,0.821 -1.874,0.821"
      strokeAlpha="0.1"
      fillAlpha="0.1"/>
  <path
      fill="#FF000000"
      d="M64.89,65.796a6.594,6.594 0,0 1,-4.246 1.2"
      strokeAlpha="0.1"
      fillAlpha="0.1"/>
  <path
      fill="#FF000000"
      d="M66.102,94.87s0.607,0.393 2.063,-1.326"
      strokeAlpha="0.1"
      fillAlpha="0.1"/>
  <path
      fill="#FF000000"
      d="M80.317,78.722a1.119,1.119 0,0 0,-0.351 -0.852l-0.408,-0.507a1.924,1.924 0,0 0,-0.268 -0.284c-0.246,-0.2 -0.56,-0.254 -0.815,-0.429"
      strokeAlpha="0.1"
      fillAlpha="0.1"/>
  <path
      d="M203.362,0.028s-20.675,-1.288 -18.244,13.672a3.687,3.687 0,0 0,1.837 3.844s0.037,-1.108 2.122,-0.73a9.4,9.4 0,0 0,2.247 0.112,4.6 4.6,0 0,0 2.745,-1.171h0s5.813,-2.48 8.072,-12.287c0,0 1.672,-2.14 1.606,-2.69l-3.49,1.539a6.613,6.613 0,0 1,0.246 4.759s-0.113,-4.665 -0.783,-4.564c-0.135,0.023 -1.812,0.9 -1.812,0.9s2.051,4.526 0.5,7.817c0,0 0.587,-5.578 -1.144,-7.49l-2.456,1.481s2.4,4.676 0.771,8.492c0,0 0.417,-5.852 -1.289,-8.132l-2.225,1.793s2.252,4.61 0.879,7.774c0,0 -0.179,-6.813 -1.36,-7.328a13.949,13.949 0,0 0,-2.244 2.5s1.542,3.347 0.584,5.112c0,0 -0.587,-4.539 -1.068,-4.564 0,0 -1.94,3.007 -2.141,5.071a11.19,11.19 0,0 1,1.672 -5.355,5.771 5.771,0 0,0 -2.971,1.587s0.3,-2.125 3.45,-2.31a13.933,13.933 0,0 1,2.031 -2.421,12.4 12.4,0 0,0 -5.027,0.6s1.67,-2.006 5.6,-1.093l2.2,-1.854s-4.121,-0.581 -5.869,0.061c0,0 2.011,-1.775 6.461,-0.482l2.392,-1.476a21.281,21.281 0,0 0,-5.606 -0.507s2.21,-1.23 6.309,0.1l1.719,-0.794s-2.574,-0.522 -3.327,-0.606 -0.793,-0.3 -0.793,-0.3a8.666,8.666 0,0 1,4.835 0.555S203.429,0.26 203.362,0.028Z"
      strokeAlpha="0.35"
      fill="#4f48b9"
      fillAlpha="0.35"/>
  <path
      d="M179.552,22.219s-9.332,-0.583 -8.239,6.177a1.676,1.676 0,0 0,0.828 1.739s0.017,-0.507 0.96,-0.332a4.166,4.166 0,0 0,1.014 0.051,2.07 2.07,0 0,0 1.24,-0.53h0s2.628,-1.118 3.649,-5.55c0,0 0.754,-0.969 0.724,-1.217l-1.577,0.695a3.005,3.005 0,0 1,0.115 2.153s-0.052,-2.11 -0.354,-2.059c-0.061,0 -0.82,0.406 -0.82,0.406s0.928,2.046 0.228,3.535c0,0 0.265,-2.52 -0.518,-3.385l-1.11,0.669a5.189,5.189 0,0 1,0.349 3.836s0.189,-2.645 -0.582,-3.674l-1,0.819s1.017,2.084 0.4,3.512c0,0 -0.081,-3.078 -0.616,-3.309a6.28,6.28 0,0 0,-1.014 1.131s0.7,1.521 0.265,2.307c0,0 -0.265,-2.051 -0.491,-2.059a6.986,6.986 0,0 0,-0.968 2.282,5.069 5.069,0 0,1 0.756,-2.421 2.614,2.614 0,0 0,-1.343 0.718s0.138,-0.958 1.559,-1.045a6.878,6.878 0,0 1,0.918 -1.093,5.585 5.585,0 0,0 -2.271,0.271 2.513,2.513 0,0 1,2.532 -0.507l0.982,-0.837a8.211,8.211 0,0 0,-2.652 0.028s0.909,-0.8 2.92,-0.218l1.08,-0.667a9.416,9.416 0,0 0,-2.534 -0.226,3.765 3.765,0 0,1 2.851,0.046l0.774,-0.358s-1.164,-0.238 -1.505,-0.274 -0.359,-0.134 -0.359,-0.134a3.908,3.908 0,0 1,2.186 0.254A9.75,9.75 0,0 0,179.552 22.219Z"
      strokeAlpha="0.1"
      fill="#4f48b9"
      fillAlpha="0.1"/>
  <path
      d="M230.592,142.461a1.969,11.279 97,1 0,-22.39 -2.749a1.969,11.279 97,1 0,22.39 2.749z"
      fill="#4f48b9"/>
  <path
      d="M226.314,137.865a3.382,3.382 0,0 0,1.074 -1.677,1.512 1.512,0 0,0 -0.752,-1.706c-0.69,-0.272 -1.428,0.223 -1.986,0.721s-1.2,1.069 -1.93,0.962a3.1,3.1 0,0 0,0.909 -2.841,1.214 1.214,0 0,0 -0.253,-0.579c-0.384,-0.423 -1.077,-0.243 -1.537,0.09 -1.459,1.06 -1.865,3.108 -1.874,4.947a9.594,9.594 0,0 1,-0.025 -2.027,2.12 2.12,0 0,0 -0.743,-1.8 2.162,2.162 0,0 0,-1.122 -0.272,2.279 2.279,0 0,0 -1.832,0.539 1.914,1.914 0,0 0,0.07 2.317,7.188 7.188,0 0,0 1.9,1.57 4.272,4.272 0,0 1,1.355 1.335,1.218 1.218,0 0,1 0.1,0.24h4.112a11.437,11.437 0,0 0,2.533 -1.813Z"
      fill="#4f48b9"/>
</svg>
