<svg xmlns="http://www.w3.org/2000/svg" height="200"
viewBox="0 0 511 511.99982"
    width="200"  >
    <path fill="#fdc202" d="m312.586,58.18h33.836v218.996h-33.836zM312.586,58.18"/>
    <path fill="#63a6fd" d="m510.453,364.156h-310.754v-113.063c0,-9.199 7.457,-16.656 16.656,-16.656h277.441c9.199,0 16.656,7.457 16.656,16.656zM510.453,364.156"/>
    <path fill="#4395fb" d="m510.453,450.477h-409.852v-106.863c0,-9.195 7.457,-16.652 16.656,-16.652h393.195zM510.453,450.477"/>
    <path fill="#1980f9" d="m493.797,512h-475.641c-9.199,0 -16.656,-7.457 -16.656,-16.656v-59.211c0,-9.195 7.457,-16.652 16.656,-16.652h492.297v75.863c0,9.199 -7.457,16.656 -16.656,16.656zM493.797,512"/>
    <path fill="#f64346" d="m487.922,71.215 l-139.172,49.398 -28.012,9.941c-3.98,1.406 -8.152,-1.539 -8.152,-5.766v-118.676c0,-4.215 4.172,-7.172 8.152,-5.754l28.012,9.938 139.172,49.398c5.426,1.922 5.426,9.59 0,11.52zM487.922,71.215"/>
    <path fill="#cb353c" d="m348.75,10.301v110.316l-28.012,9.941c-3.977,1.402 -8.152,-1.539 -8.152,-5.766v-118.676c0,-4.215 4.176,-7.172 8.152,-5.754zM348.75,10.301"/>
</svg>
