<svg xmlns="http://www.w3.org/2000/svg" viewBox="0 0 296.91 411.78"><defs><style>.cls-1{fill:#6639f8;}</style></defs><g id="Layer_2" data-name="Layer 2"><g id="Layer_0_Image" data-name="Layer 0 Image"><path class="cls-1" d="M215.52,323.28c-1.91,5.23-3.74,10.43-7.61,14.74a38.8,38.8,0,0,0-5.75,8.89c-.56,1.14-1.58,1.49-2.17,2.51-1.36,2.4-1.86,5.1-3.61,7.42-3.94,5.23-7.83,10.49-11.94,15.61-2.72,3.37-5.26,6.92-8.08,10.21-5.25,6.14-12,10.26-19.4,13.19-8.61,3.38-17.13,7.06-25.92,9.87C114.65,411,97.92,413.06,80.61,411c-10.43-1.25-20.59-3.22-29.52-8.54C36.79,393.94,25,382.59,16.69,368a18.91,18.91,0,0,0-1.09-1.56c-3.41-4.63-6.48-9.41-8-15a48.28,48.28,0,0,0-3.18-8.1c-3.74-7.79-3-15.65,0-23.47s8.13-14.56,13.81-20.49c7.59-7.92,11.15-17.1,12.29-27.72,1.05-9.87-.68-19.44-2.44-29-1.08-5.9-2.05-11.81-3.2-17.68C23,215.4,18.61,207,14.14,198.5a137.61,137.61,0,0,1-13-34.85,53.26,53.26,0,0,1,2.34-29.93c2-5.56,4.62-11,8.85-15.52A91.09,91.09,0,0,1,25.55,106C37.35,97.6,50.36,91.7,64.16,87.4c15.75-4.91,31.09-10.72,44.55-20.61A339.32,339.32,0,0,0,137.28,43.2c12.41-11.39,25.41-22,40.43-29.83C192.26,5.77,207.47-.15,224.12,0c25,.23,46.49,9.08,61.69,29.69,11.23,15.24,13.05,32.7,9.38,50.93-.66,3.29-1.33,6.59-2.1,9.85a65.66,65.66,0,0,1-10.41,23.2c-2.92,4.12-6.07,8.07-9,12.16a139.55,139.55,0,0,1-11.21,13.46A148.18,148.18,0,0,0,250,155.07c-1.34,1.92-3.47,3.08-4.77,5.15-4.91,7.8-10,15.49-13.52,24.08-1.89,4.63-3.82,9.15-4.2,14.37-.22,3.2,0,6.39-.31,9.58-.42,4.76.41,9.46,1.16,14.12.3,1.78-1.87,3.23-1.41,3.36,2.53.67.75,2.09.81,3.12,0,.61-.36,1.28-.22,1.84,2.34,9.52,1.33,19.24,1.53,28.85.19,8.93,1,18-1.45,26.77-.88,3.19-1.52,6.47-2.45,9.66-1.11,3.82-3.17,7.41-3.52,11.4-.48,5.62-3.32,10.33-5.36,15.36-.12.27-.53.43-.81.65.26-3,2.71-5.23,2.8-8.31-2.1,4.47-4.72,8.7-5.81,13.62C213.47,326.88,214.5,325.08,215.52,323.28Zm-72.68-262a43.7,43.7,0,0,0,8.53-7.65c-2.82,2.57-6.22,4.51-8.48,7.7-2.41.86-3.94,2.81-5.66,4.53A17.62,17.62,0,0,0,142.84,61.25ZM175,19.8a9.6,9.6,0,0,0,1.52-.48A149.84,149.84,0,0,1,212.77,5.37c.46-.11,1.09-.09,1.36-.8-.86.12-1.67.22-2.47.36-10.57,1.83-20.36,5.87-29.88,10.64-2.36,1.19-5,2.12-6.73,4.28-2.83.2-4.57,2.59-7,3.58a1,1,0,0,0-.24,1.62c.22.22.52.36.66.1C169.87,22.42,173.34,22.21,175,19.8ZM98.67,399.93a51.17,51.17,0,0,0,5.4,0c7.31-.75,14.52-2.13,21.73-3.5,10.69-2,20.56-6.57,30.68-10.3,4.67-1.72,9.14-4.07,12.3-8.21a169.35,169.35,0,0,0,24.85-44.7c4.77-13,11-25.43,16.08-38.3a109.06,109.06,0,0,0,7-28.7c.87-8.23.38-16.48.44-24.73,0-6.78-.07-13.56.35-20.36.3-4.79-.77-9.78-1.18-14.69-.73-8.65-.6-17.18,2-25.57a106.23,106.23,0,0,1,9.79-22.06c8.26-14.09,18.61-26.64,29.47-38.76,5.83-6.51,11.56-13.08,16.38-20.38a75.6,75.6,0,0,0,12.77-44.3c-.29-12.55-5.79-22.29-16.61-28.91-18.82-11.5-38.69-15.19-60-8.18-16.52,5.43-31.22,14-44.68,25-8.39,6.83-16,14.48-24.42,21.33-11.4,9.33-23,18.39-36.4,24.74-10.38,4.91-21.3,8.36-32.29,11.61a121.61,121.61,0,0,0-26.76,11.43c-9.74,5.67-18,12.92-23.67,22.81-.68,1.17-.71,1.16-2.25,1.19-.47,0-.5.4-.65.71a20.5,20.5,0,0,0-2.4,9c0,2.17.81,5.28.07,6.33-2.39,3.35-.59,6.61-.15,9.43a79.72,79.72,0,0,0,2.54,10.67,138.05,138.05,0,0,0,10.19,25.59c4,7.44,7.94,14.94,9.1,23.36.34,2.44,3.28,5.23.14,7.84a3.37,3.37,0,0,1,.31.39,16.7,16.7,0,0,1,2.64,8.44c.12,2.85,1.14,5.51,1.26,8.32.2,4.54,1.88,9,.91,13.62a33.35,33.35,0,0,0-.35,6.57c0,4.88-1.66,9.53-1.92,14.42-.09,1.83-1.69,4.16-2.57,6.26-3.17,7.53-8.77,13.26-13.7,19.53-4.63,5.91-9.83,11.7-10.31,19.79-.2,3.27-1.17,6.72.51,9.78,4.53,8.24,6.92,17.58,13.14,25,4.84,5.75,8.09,12.71,14,17.71s11.27,10.14,17.93,13.75c3.27,1.77,6.59,3.58,10.43,4.43A120.65,120.65,0,0,0,98.67,399.93ZM207.06,308.7c-2.69,9.18-8,17-10.71,25.87C199.73,332.18,208.45,311.69,207.06,308.7ZM101.37,76.46c9.24-4.18,16.93-10.44,24.26-17.19C118,65,110.34,70.77,102.17,75.79A5.68,5.68,0,0,0,101.37,76.46ZM13.16,124.22c4.47-4.82,9.14-9.46,13.89-14A44.79,44.79,0,0,0,13.16,124.22ZM5.2,328c1.08-3,1.77-6.13,2.67-9.19A16.46,16.46,0,0,0,5.2,328Zm5.56-197.55c-.18-.67-.52-1-1.15-.91a2,2,0,0,0-1.76,2c0,.61.33.73.84.64C9.74,132,10.23,131.2,10.76,130.48Z"/><path class="cls-1" d="M174.09,278.27c-.1-.67,0-1.26-.66-1.59-.12,1-.94,2,.41,2.89.79.52,0,1.36-.15,2-1.81,5.65-3.57,11.32-5.32,17-1.66,5.38-3.64,10.69-4.89,16.21-.63,2.77-2,5.26-3,7.87a10,10,0,0,0-.86,3.65c0,2.65-.18,2.72-2.63,1.33a2.21,2.21,0,0,0-.85-.07c0,.29-.09.59,0,.76a7.27,7.27,0,0,1-.6,8.21,15.11,15.11,0,0,0-2.84,5.49c-.79,3.26-3,5.83-5.62,8-.24.19-.78.1-.8.56-.15,2.68-2.31,4-3.94,5.58s-3.48,2.64-5,4.32a32.29,32.29,0,0,1-8.76,7.17c-1.59.89-3.2,2.57-5,3.26-6.52,2.56-12.92,5.42-19.53,7.8-11.16,4-22.16,2.85-33.24.16a49,49,0,0,1-17.8-8.5A37.67,37.67,0,0,1,47.69,365,57.18,57.18,0,0,1,34.4,340.11a23.53,23.53,0,0,1,2.48-17.34c.8-1.42,1.41-3.3,4.09-3,1.16.14,2.32-2,3.23-3.41a162.67,162.67,0,0,0,15.79-31c4.41-11.44,8.26-23,9.75-35.28,1.07-8.92-.13-17.47-2.3-26.08-1.74-6.89-5.34-12.65-9.45-18.26-3.07-4.2-5.82-8.64-8.86-12.87-1.08-1.5.28-2.46.6-4.39-1.67,2.26-1.94,1.81-2.65-.05a40.35,40.35,0,0,0-3-5.4,25.55,25.55,0,0,1-3.48-12.4c0-1.64-.88-3-.66-4.57a42.38,42.38,0,0,1,1-5.86c1-3.34,1.6-6.85,4.86-9.12.9-.63.37-2.57,1.39-3.67,4.38-4.7,8.51-9.72,14-13.21a268,268,0,0,1,41-21.33c10-4.15,19.47-9.39,27.32-17.09,11.55-11.35,23.7-22,36.2-32.3,11.85-9.73,24.55-18.09,39.11-23.32a69.59,69.59,0,0,1,18.86-3.94c9.25-.64,16.18,3.57,21.55,10.56,10.32,13.42,12.74,28.54,8.77,44.78a122,122,0,0,1-12.14,31.22c-2.61,4.61-5.09,9.27-9.38,12.77-2,1.67-3.14,4.49-4.72,6.76-5.38,7.76-12.15,14.41-17.51,22.21-2.39,3.47-4.41,7.13-6.65,10.67-4.91,7.72-8.26,16.23-11.95,24.54-3.24,7.29-4.41,15.25-5.58,23.14-1.26,8.5-2.58,17-4,25.47-.84,4.89-1.42,10-3.16,14.53-1.21,3.19-1.26,6.58-2.7,9.67C175.28,274.38,176.17,276.81,174.09,278.27ZM58.77,294.64c.77-.29,1-1.07,1.23-1.68,2.54-5.89,5.29-11.7,7-17.91,1-3.63,2.74-7.1,2.68-11-1.75,6.89-4.82,13.31-7,20-1.15,3.58-3.31,6.79-3.86,10.59-3.1,4.1-4.63,9-7.14,13.43C54.34,303.78,57.46,299.68,58.77,294.64Zm2.79-97.41c0-.35,0-.85.16-1,.36-.29.55.16.79.42.67.74.35,1.86,1.28,2.6a12.11,12.11,0,0,1,3.73,5.25c.72,1.85,2.69,3.19,4,4.82.3.37.68,1,.29,1.5-.72.95-.14,1.27.65,1.49a2.83,2.83,0,0,1,1.84,1.88c1.2,3.08,2.8,6,3.16,9.39A20.8,20.8,0,0,0,78.89,230c2.26,4.45,2.34,9.14,2.13,13.59-.2,4-1,8.18-.79,12.22.16,3.49-1.59,6.34-2.08,9.59-.6,3.94-3.33,7.38-3.86,11.47-.33,2.51-3,4.42-3,6.41.06,4.61-4,7.08-4.74,11.24a9.48,9.48,0,0,1-1.92,4.55c-2.36,2.58-3,6.14-5.49,8.71-3.08,3.24-4.67,7.57-8,10.78A63.66,63.66,0,0,0,46,325.17c-1.56,2-1.42,5.13-1.94,7.78-.74,3.84,1.46,6.84,2.46,10.21,2.37,8.07,7.33,14.74,13.13,20.12,11.33,10.5,24.9,14,40,8.46,1.53-.56,3.07-1.12,4.61-1.64,9.06-3,16.89-8.07,24.16-14.24,9.51-8.08,14-19.34,19.29-30,1.84-3.73,2.56-8.3,3.95-12.44a89.2,89.2,0,0,0,2.64-8.57c.66-2.94,1.56-5.79,2.44-8.64s2.1-5.62,2.8-8.51c.62-2.57,1.88-4.87,2.42-7.53.71-3.57,1.87-7.12,2.84-10.67a270.06,270.06,0,0,0,7.65-38.93c.87-7.3,1.5-14.67,3-21.84,4.89-23.2,15.57-43.69,30.28-62.11,6.57-8.23,13.55-16.14,20.43-24.12,9.86-11.43,15.2-25,19.23-39.3A40.8,40.8,0,0,0,244.19,57c-1.86-4.88-4.62-9-10.46-9.92-5.43-.9-10.74.39-15.87,1.34a39.81,39.81,0,0,0-9.45,3.5c-7.36,3.56-14.82,6.92-21.21,12.1-1.53,1.23-3.42,1.4-4.94,2.63-1.95,1.58-3.31,3.7-5.44,5.12-1.22.81-2.68.89-3.8,1.93-7.14,6.59-15.2,12.13-21.64,19.52-2.24,2.56-5,4.67-7.43,7.07a88.35,88.35,0,0,1-31.77,20.14,184.83,184.83,0,0,0-41.24,21.48c-4.9,3.38-10.16,6.57-13.67,11.71-2,3-4.66,6-5,9.43-.47,5.05-1,10.33.73,15.36.42,1.21-.32,2.91-.06,3.32,1,1.59,1.59,3.4,2.67,4.92C58,190,61.17,192.79,61.56,197.23Zm101.12,90.55c-2.83,5.64-4.58,11.68-6.24,17.7s-4,12.12-6,18.17c-1.88,5.72-4.6,11.16-7,16.73C153.56,324.15,157.31,305.68,162.68,287.78ZM166.83,67c11.82-9.26,24.22-17.47,38.09-23.31C195.83,44.86,170.63,61.51,166.83,67Zm-105,70.55c-7.07,4.8-13.38,10.29-16.44,18.66A112.67,112.67,0,0,1,61.81,137.51ZM39,324.37c-3,3-4.39,12.26-2.41,14.17C37.15,333.85,37.17,329,39,324.37ZM157.18,75.48l-.58-.62c-5.14,4.7-10.71,8.91-15.18,14.37ZM123.27,105c5.86-3.44,10.62-8.16,15.07-13.22C133.34,96.16,128.42,100.68,123.27,105Z"/><path class="cls-1" d="M189,149.35c1,1.64.64,2.67,0,4.26-1.59,3.88-4.84,6.92-5.45,11.25-.22,1.54-1.42,2.71-2.15,4-1.87,3.3-2.23,7.15-3.91,10.37-1.6,3.06-2.28,6.4-3.91,9.39-.86,1.59-.56,3.56-1.68,5.1-.76,1-2.64,7.49-2.85,8.73-.55,3.12-1.19,6.24-1.82,9.35-.11.53-.35,1.08-1.07,1s-1.12.23-.83.89c1.08,2.5-.21,4.73-1.17,6.69-2.79,5.7-5.21,11.56-7.66,17.39-.48,1.15-2.73.84-1.93,3.14.4,1.16-.91,3.18-1.81,4.68s-1.48,3.11-2.28,4.63c-5.88,11.22-11.29,22.66-16.41,34.25-2.84,6.43-6.24,12.61-9.23,19a35.65,35.65,0,0,0-1.76,5.13c-.47,1.58-1.15,3.84-3.08,4.84a1.15,1.15,0,0,0-.7.71c-2.36,7.43-8.7,11.32-14.35,15.67-4,3.12-9,5-13.58,7.12-2.84,1.33-5.46,3.45-8.77,3.92a81.71,81.71,0,0,1-10,1.13,14.78,14.78,0,0,1-9-2.57,2.84,2.84,0,0,1-1-3.81,19.3,19.3,0,0,1,7.4-9.51c1.36-.89,2.82-1.66,3.72-3.12.65-1,1.75.27,3-.91,4.25-4.18,6.9-9.27,9.63-14.38,5.65-10.59,9.85-21.79,13.9-33.05a81,81,0,0,0,3.47-15.06c.5-3.23.84-6.46,1-9.71.1-1.51.71-2.75,2.56-1.83,1.1.55,1.45-.25,2-.82a.81.81,0,0,0-.06-1.21c-.64-.61-1.21,0-1.71.28-2.07,1-2.75.4-2.64-1.86.29-6.25.45-12.49-1.17-18.63a41.35,41.35,0,0,0-3.42-8.77c-4.32-8.1-9.9-15.41-14.83-23.13-3.6-5.65-7.31-11.3-8.07-18.2-.18-1.6-1.45-3.56.77-4.86a.57.57,0,0,0,.22-.44c-.43-6.31-.24-6.47,4-10.89A31.36,31.36,0,0,1,92,153c12.72-5.84,23.44-14.35,33.93-23.46,12.78-11.09,24.41-23.46,37.68-33.92,14.54-11.45,31.17-19.3,48.82-24.73C221.77,68,228.67,75,226.64,84.65a95,95,0,0,1-10.55,27.29c-5.58,9.87-12,19.22-18.17,28.69-1.7,2.6-3.14,5.42-5.21,7.82C191.64,149.69,190.84,150.78,189,149.35ZM92,301.67c.77-.06,1-.68,1.28-1.24,3.58-7,6.23-14.46,9.48-21.63,1.56-3.44,1-7.56,3.65-10.62a.76.76,0,0,0-.32-1.31c-.82-.35-1.26.19-1.35.86-.36,2.62-1.61,4.91-2.48,7.34-2.23,6.27-4.14,12.62-7.13,18.64a28.07,28.07,0,0,0-3.07,8,36.16,36.16,0,0,0-5,9.62C88.56,308.07,91.53,305.52,92,301.67Zm70.51-188.6c-3.21,1.43-4.79,4.53-7.09,6.89-3,1.76-4.68,4.92-7.37,7-4.63,3.66-9.38,7.19-13.72,11.18a121.83,121.83,0,0,1-29.84,20.3c-4.07,2-8.83,2.4-12.31,5.8-2.13,2.09-4.72,3.77-4.91,7A25.56,25.56,0,0,0,90,185.16c4.31,8,10.11,15.06,15.19,22.58,5.27,7.82,10,15.77,11.18,25.5,1.14,9.31.45,18.53-.09,27.78-.12,1.87-1.38,3.65-1.45,5.82-.1,3-.13,6.39-2.05,8.88-3.47,4.47-4.62,9.93-6.89,14.91-.75,1.63-.29,4-1.72,5.27-1.91,1.67-2.42,3.86-3.34,6a7.3,7.3,0,0,1-1.48,2.27c-2.07,2.05-3.37,4.77-4.81,7.11a55.63,55.63,0,0,1-10,12.31c-1.15,1-3,.92-3.64,2.54A11,11,0,0,1,77.71,330a8.68,8.68,0,0,0-2.59,4.38,3.19,3.19,0,0,0,2.29-.36c4.12-1.51,7.63-4.16,11.61-6a44.91,44.91,0,0,0,17.5-13.92c3.48-4.6,5.85-9.8,8.34-14.94,4.94-10.17,10-20.31,14.59-30.63,2.6-5.78,5.3-11.5,8.17-17.13,4.77-9.36,9-19,13.17-28.6a131.44,131.44,0,0,0,7.86-23.93c1.57-7.2,4.3-14,7-20.86,5.09-13,10.26-26,18.65-37.38,7.54-10.24,15.18-20.4,22-31.15,5.08-8,9.49-16.33,11.66-25.66.23-1,1-2.31.12-3s-1.89.2-2.8.56A207.4,207.4,0,0,0,187.6,94.82c-1.61.93-3,3-5.49,2-.35-.14-1.07.35-.86.76.74,1.48-.7,1.46-1.26,1.83q-5.25,3.47-10.36,7.12C167,108.44,165.1,111.16,162.48,113.07ZM110.72,313.16c1.91-3.12,4.23-5.87,5.79-9.27,3.53-7.71,7.63-15.16,11-23a374,374,0,0,1,16.45-34.19,1.64,1.64,0,0,0-.28-2.39C131.38,266.86,122.65,290.78,110.72,313.16Zm51-212.1A172.14,172.14,0,0,1,184,86.77q11.9-6.24,24.09-11.8C191.57,81.73,175.24,88.84,161.76,101.06ZM140,121.9l-.5-.66-22.67,19.65.48.56ZM91.89,156.18c-5.67,1.06-11.48,6.4-10.89,10C83.74,161.71,87.72,158.84,91.89,156.18ZM144,243.39l.82.43c.87-2.32,3.36-4,2.21-7.14Z"/><path class="cls-1" d="M162.48,113.07a17.24,17.24,0,0,1-7.09,6.89C157.69,117.6,159.27,114.5,162.48,113.07Z"/></g></g></svg>