<svg
    xmlns="http://www.w3.org/2000/svg"
    viewBox="0 0 1139 783"
    id="vector">
    <path
        id="path"
        d="M 793.53 235.6 C 794.395 234.368 794.872 232.905 794.9 231.4 C 794.9 222.28 776.32 214.9 753.4 214.9 C 730.48 214.9 711.9 222.28 711.9 231.4 C 711.942 233.105 712.543 234.75 713.61 236.08 C 688.09 238.93 670.9 244.27 670.9 250.4 C 670.9 259.51 708.9 266.9 755.9 266.9 C 802.9 266.9 840.9 259.51 840.9 250.4 C 840.85 243.95 821.53 238.3 793.53 235.6 Z"
        fill="#6c63ff"
        fill-opacity="0.1"
        stroke-opacity="0.1"/>
    <path
        id="path_1"
        d="M 910.08 713.82 C 909.721 716.424 909.577 719.053 909.65 721.68 Q 935.79 722.1 962.16 723.44 C 962.28 722.76 962.4 722.05 962.5 721.34 C 963.627 714.011 962.781 706.513 960.05 699.62 C 956.43 690.79 949.68 684.48 941.23 683.27 C 932.78 682.06 924.54 686.21 918.59 693.62 C 914.001 699.473 911.063 706.448 910.08 713.82 Z"
        fill="#3f3d56"
        fill-opacity="0.2"
        stroke-opacity="0.2"/>
    <path
        id="path_2"
        d="M 937.44 709.99 C 943.005 710.88 948.783 709.42 953.93 705.824 C 959.077 702.228 963.328 696.679 966.062 689.991 C 968.796 683.302 969.871 675.816 969.132 668.629 C 968.392 661.441 965.876 654.92 961.95 650.02 C 958.024 645.12 952.89 642.093 947.3 641.38 C 941.735 640.49 935.957 641.95 930.81 645.546 C 925.663 649.142 921.412 654.691 918.678 661.379 C 915.944 668.068 914.869 675.554 915.608 682.741 C 916.348 689.929 918.864 696.45 922.79 701.35 C 926.716 706.25 931.85 709.277 937.44 709.99 Z"
        fill="#3f3d56"
        fill-opacity="0.2"
        stroke-opacity="0.2"/>
    <path
        id="path_3"
        d="M 943.46 668.06 C 949.025 668.95 954.803 667.49 959.95 663.894 C 965.097 660.298 969.348 654.749 972.082 648.061 C 974.816 641.372 975.891 633.886 975.152 626.699 C 974.412 619.511 971.896 612.99 967.97 608.09 C 964.044 603.19 958.91 600.163 953.32 599.45 C 947.755 598.56 941.977 600.02 936.83 603.616 C 931.683 607.212 927.432 612.761 924.698 619.449 C 921.964 626.138 920.889 633.624 921.628 640.811 C 922.368 647.999 924.884 654.52 928.81 659.42 C 932.736 664.32 937.87 667.347 943.46 668.06 Z"
        fill="#3f3d56"
        fill-opacity="0.2"
        stroke-opacity="0.2"/>
    <path
        id="path_4"
        d="M 949.48 626.13 C 955.045 627.02 960.823 625.56 965.97 621.964 C 971.117 618.368 975.368 612.819 978.102 606.131 C 980.836 599.442 981.911 591.956 981.172 584.769 C 980.432 577.581 977.916 571.06 973.99 566.16 C 970.064 561.26 964.93 558.233 959.34 557.52 C 953.775 556.63 947.997 558.09 942.85 561.686 C 937.703 565.282 933.452 570.831 930.718 577.519 C 927.984 584.208 926.909 591.694 927.648 598.881 C 928.388 606.069 930.904 612.59 934.83 617.49 C 938.756 622.39 943.89 625.417 949.48 626.13 Z"
        fill="#3f3d56"
        fill-opacity="0.2"
        stroke-opacity="0.2"/>
    <path
        id="path_5"
        d="M 955.51 584.19 C 961.075 585.08 966.853 583.62 972 580.024 C 977.147 576.428 981.398 570.879 984.132 564.191 C 986.866 557.502 987.941 550.016 987.202 542.829 C 986.462 535.641 983.946 529.12 980.02 524.22 C 976.094 519.32 970.96 516.293 965.37 515.58 C 959.805 514.69 954.027 516.15 948.88 519.746 C 943.733 523.342 939.482 528.891 936.748 535.579 C 934.014 542.268 932.939 549.754 933.678 556.941 C 934.418 564.129 936.934 570.65 940.86 575.55 C 944.786 580.45 949.92 583.477 955.51 584.19 Z"
        fill="#3f3d56"
        fill-opacity="0.2"
        stroke-opacity="0.2"/>
    <path
        id="path_6"
        d="M 1099.74 277.02 C 1103.975 272.961 1107.928 268.618 1111.57 264.02 L 1044.33 242.85 L 1118.73 254.11 C 1128.111 239.587 1134.43 223.301 1137.3 206.251 C 1140.17 189.201 1139.53 171.744 1135.42 154.95 L 1028.06 192.42 L 1129.93 137.95 C 1119.486 111.964 1100.724 90.155 1076.589 75.947 C 1052.454 61.74 1024.28 55.919 996.491 59.398 C 968.702 62.878 942.833 75.465 922.946 95.185 C 903.059 114.904 890.253 140.666 886.539 168.425 C 882.824 196.184 888.407 224.406 902.41 248.66 C 895.812 254.955 889.911 261.942 884.81 269.5 L 967.53 328.78 L 876.82 283.1 C 867.285 301.918 862.593 322.82 863.169 343.908 C 863.745 364.996 869.572 385.611 880.12 403.88 C 857.041 425.883 843.089 455.801 841.067 487.623 C 839.044 519.446 849.095 550.889 869.202 575.637 C 889.309 600.385 918.028 616.662 949.59 621.199 C 981.153 625.735 1013.293 618.204 1039.556 600.12 C 1065.818 582.036 1084.318 554.696 1091.339 523.592 C 1098.36 492.488 1093.398 459.852 1077.45 432.24 C 1098.026 412.617 1111.418 386.633 1115.461 358.489 C 1119.504 330.345 1113.969 301.642 1099.75 277.02 Z"
        fill="#6c63ff"
        fill-opacity="0.2"
        stroke-opacity="0.2"/>
    <path
        id="path_7"
        d="M 864.4 322.41 C 860.308 350.555 865.846 379.274 880.11 403.88 C 857.031 425.883 843.079 455.801 841.057 487.623 C 839.034 519.446 849.085 550.889 869.192 575.637 C 889.299 600.385 918.018 616.662 949.58 621.199 C 981.143 625.735 1013.283 618.204 1039.546 600.12 C 1065.808 582.036 1084.308 554.696 1091.329 523.592 C 1098.35 492.488 1093.388 459.852 1077.44 432.24 C 1097.33 413.3 866.42 308.32 864.4 322.41 Z"
        fill="#000000"
        fill-opacity="0.1"
        stroke-opacity="0.1"/>
    <path
        id="path_8"
        d="M 166.46 676.75 C 166.855 679.009 167.44 681.23 168.21 683.39 Q 189.52 676.53 211.27 670.39 C 211.19 669.79 211.1 669.17 210.99 668.55 C 209.963 662.182 207.28 656.194 203.21 651.19 C 197.92 644.86 190.76 641.48 183.58 642.81 C 176.4 644.14 170.82 649.81 167.97 657.65 C 165.813 663.776 165.292 670.361 166.46 676.75 Z"
        fill="#3f3d56"
        fill-opacity="0.2"
        stroke-opacity="0.2"/>
    <path
        id="path_9"
        d="M 160.12 639.69 C 161.072 646.062 163.522 652.055 167.11 656.791 C 170.698 661.527 175.241 664.764 180.075 666.029 C 184.909 667.294 189.787 666.522 193.994 663.826 C 198.201 661.129 201.522 656.647 203.473 651.034 C 205.423 645.421 205.902 638.965 204.84 632.61 C 203.888 626.238 201.438 620.245 197.85 615.509 C 194.262 610.773 189.719 607.536 184.885 606.271 C 180.051 605.006 175.173 605.778 170.966 608.474 C 166.759 611.171 163.438 615.653 161.487 621.266 C 159.537 626.879 159.058 633.335 160.12 639.69 Z"
        fill="#3f3d56"
        fill-opacity="0.2"
        stroke-opacity="0.2"/>
    <path
        id="path_10"
        d="M 156.7 604.03 C 157.71 610.379 160.201 616.331 163.812 621.024 C 167.423 625.717 171.971 628.913 176.798 630.15 C 181.625 631.387 186.486 630.602 190.678 627.908 C 194.871 625.215 198.181 620.75 200.131 615.159 C 202.08 609.568 202.57 603.135 201.53 596.79 C 200.52 590.441 198.029 584.489 194.418 579.796 C 190.807 575.103 186.259 571.907 181.432 570.67 C 176.605 569.433 171.744 570.218 167.552 572.912 C 163.359 575.605 160.049 580.07 158.099 585.661 C 156.15 591.252 155.66 597.685 156.7 604.03 Z"
        fill="#3f3d56"
        fill-opacity="0.2"
        stroke-opacity="0.2"/>
    <path
        id="path_11"
        d="M 147.52 566.75 C 148.472 573.122 150.922 579.115 154.51 583.851 C 158.098 588.587 162.641 591.824 167.475 593.089 C 172.309 594.354 177.187 593.582 181.394 590.886 C 185.601 588.189 188.922 583.707 190.873 578.094 C 192.823 572.481 193.302 566.025 192.24 559.67 C 191.288 553.298 188.838 547.305 185.25 542.569 C 181.662 537.833 177.119 534.596 172.285 533.331 C 167.451 532.066 162.573 532.838 158.366 535.534 C 154.159 538.231 150.838 542.713 148.887 548.326 C 146.937 553.939 146.458 560.395 147.52 566.75 Z"
        fill="#3f3d56"
        fill-opacity="0.2"
        stroke-opacity="0.2"/>
    <path
        id="path_12"
        d="M 141.23 530.27 C 142.182 536.642 144.632 542.635 148.22 547.371 C 151.808 552.107 156.351 555.344 161.185 556.609 C 166.019 557.874 170.897 557.102 175.104 554.406 C 179.311 551.709 182.632 547.227 184.583 541.614 C 186.533 536.001 187.012 529.545 185.95 523.19 C 184.998 516.818 182.548 510.825 178.96 506.089 C 175.372 501.353 170.829 498.116 165.995 496.851 C 161.161 495.586 156.283 496.358 152.076 499.054 C 147.869 501.751 144.548 506.233 142.597 511.846 C 140.647 517.459 140.168 523.915 141.23 530.27 Z"
        fill="#3f3d56"
        fill-opacity="0.2"
        stroke-opacity="0.2"/>
    <path
        id="path_13"
        d="M 203.82 261.81 C 206.177 257.287 208.225 252.61 209.95 247.81 L 149.75 248.75 L 213.11 237.58 C 217.085 222.071 217.726 205.895 214.99 190.12 C 212.603 176.16 207.588 162.779 200.21 150.69 L 123.1 211.4 L 191.22 138.07 C 167.14 108.88 128.92 93.31 89.48 100.57 C 30.53 111.39 -8.74 169.07 1.67 229.37 C 5.778 253.724 17.919 276.017 36.15 292.68 C 32.463 299.733 29.537 307.158 27.42 314.83 L 110.34 341.24 L 24.53 328.33 C 22.743 340.295 22.884 352.47 24.95 364.39 C 29.058 388.744 41.199 411.037 59.43 427.7 C 47.921 449.719 43.993 474.933 48.26 499.41 C 58.67 559.72 114.86 599.81 173.77 588.96 C 232.68 578.11 271.99 520.44 261.58 460.13 C 257.468 435.78 245.327 413.492 227.1 396.83 C 238.607 374.806 242.534 349.59 238.27 325.11 C 234.166 300.764 222.036 278.476 203.82 261.81 Z"
        fill="#6c63ff"
        fill-opacity="0.2"
        stroke-opacity="0.2"/>
    <path
        id="path_14"
        d="M 24.98 364.39 C 29.088 388.744 41.229 411.037 59.46 427.7 C 47.951 449.719 44.023 474.933 48.29 499.41 C 58.7 559.72 114.89 599.81 173.8 588.96 C 232.71 578.11 272.02 520.44 261.61 460.13 C 257.498 435.78 245.357 413.492 227.13 396.83 C 238.22 375.61 22.86 352.14 24.98 364.39 Z"
        fill="#000000"
        fill-opacity="0.1"
        stroke-opacity="0.1"/>
    <path
        id="path_15"
        d="M 113.85 593.4 C 113.85 645.71 146.66 688.03 187.21 688.03"
        fill="#46455b"/>
    <path
        id="path_16"
        d="M 187.21 688.03 C 187.21 635.14 223.83 592.34 269.09 592.34"
        fill="#6c63ff"/>
    <path
        id="path_17"
        d="M 140.43 598.14 C 140.43 647.83 161.35 688.03 187.21 688.03"
        fill="#6c63ff"/>
    <path
        id="path_18"
        d="M 187.21 688.03 C 187.21 620.45 229.54 565.76 281.85 565.76"
        fill="#46455b"/>
    <path
        id="path_19"
        d="M 16.85 727.56 C 16.85 731.147 51.023 734.644 114.442 737.546 C 177.862 740.449 267.327 742.61 369.942 743.718 C 472.557 744.827 583.143 744.827 685.758 743.718 C 788.373 742.61 877.838 740.449 941.258 737.546 C 1004.677 734.644 1038.85 731.147 1038.85 727.56 C 1038.85 723.056 984.976 718.731 889.182 715.546 C 793.387 712.361 663.324 710.57 527.85 710.57 C 392.376 710.57 262.313 712.361 166.518 715.546 C 70.724 718.731 16.85 723.056 16.85 727.56 Z"
        fill="#6c63ff"
        fill-opacity="0.1"
        stroke-opacity="0.1"/>
    <path
        id="path_20"
        d="M 160.06 698.3 C 160.06 699.138 162.029 699.942 165.531 700.534 C 169.033 701.127 173.788 701.46 178.74 701.46 C 183.692 701.46 188.447 701.127 191.949 700.534 C 195.451 699.942 197.42 699.138 197.42 698.3 C 197.42 697.462 195.451 696.658 191.949 696.066 C 188.447 695.473 183.692 695.14 178.74 695.14 C 173.788 695.14 169.033 695.473 165.531 696.066 C 162.029 696.658 160.06 697.462 160.06 698.3 Z"
        fill="#6c63ff"
        fill-opacity="0.1"
        stroke-opacity="0.1"/>
    <path
        id="path_21"
        d="M 166.19 683.62 C 166.19 683.62 176.85 683.3 180.06 681.01 C 183.27 678.72 196.44 676.01 197.24 679.66 C 198.04 683.31 213.24 697.9 201.24 697.99 C 189.24 698.08 173.3 696.12 170.09 694.17 C 166.88 692.22 166.19 683.62 166.19 683.62 Z"
        fill="#a8a8a8"/>
    <path
        id="path_22"
        d="M 201.44 696.72 C 189.44 696.81 173.49 694.84 170.29 692.89 C 167.85 691.41 166.87 686.07 166.55 683.61 L 166.19 683.61 C 166.19 683.61 166.87 692.21 170.07 694.16 C 173.27 696.11 189.2 698.08 201.22 697.98 C 204.69 697.98 205.89 696.72 205.83 694.89 C 205.35 696.01 204.02 696.7 201.44 696.72 Z"
        fill="#000000"
        fill-opacity="0.2"
        stroke-opacity="0.2"/>
    <path
        id="path_23"
        d="M 687.53 198.95 C 673.18 128.23 611.68 74.95 536.86 74.95 C 477.41 74.95 426.16 108.77 400.53 157.95 C 339.03 164.1 290.86 216.37 290.86 279.95 C 290.86 347.59 346.2 402.95 413.86 402.95 L 680.36 402.95 C 736.73 402.95 782.86 356.82 782.86 300.45 C 782.968 274.557 773.14 249.584 755.413 230.711 C 737.687 211.837 713.379 200.464 687.53 198.95 Z M 569.65 259.4 L 569.65 337.3 L 504.05 337.3 L 504.05 259.4 L 434.35 259.4 L 536.85 156.95 L 639.35 259.45 Z"
        fill="#6c63ff"/>
    <path
        id="path_24"
        d="M 436.61 247.7 C 435.61 241.99 436.1 235.84 433.48 230.7 C 433.226 230.093 432.816 229.565 432.29 229.17 C 431.637 228.817 430.901 228.648 430.16 228.68 C 427.79 228.59 425.43 228.56 423.06 228.62 C 422.4 228.62 421.62 228.72 421.28 229.3 C 421.24 229.362 421.21 229.429 421.19 229.5 C 418.48 226.5 416.43 222.71 413.51 219.91 C 413.93 219.77 414.34 219.64 414.77 219.53 C 414.77 219.24 414.67 218.97 414.61 218.69 C 414.61 218.6 414.56 218.52 414.54 218.44 C 414.52 218.36 414.45 218.06 414.39 217.87 C 414.33 217.68 414.33 217.68 414.29 217.59 C 414.239 217.41 414.179 217.234 414.11 217.06 C 414.11 216.97 414.04 216.88 414 216.79 L 413.79 216.26 L 413.67 216.01 C 413.59 215.83 413.51 215.65 413.42 215.48 L 413.3 215.26 C 413.21 215.07 413.11 214.88 413.01 214.69 L 412.91 214.51 C 412.8 214.31 412.68 214.11 412.57 213.9 C 412.541 213.867 412.517 213.83 412.5 213.79 C 412.37 213.56 412.23 213.33 412.09 213.11 L 412.09 213.11 C 410.95 211.25 409.69 209.42 408.76 207.51 C 407.13 204.15 406.59 200.36 405.5 196.78 C 404.41 193.2 402.5 189.56 399.26 187.85 C 397.69 187.05 395.59 186.34 395.44 184.57 C 395.435 184.001 395.555 183.438 395.79 182.92 C 396.24 181.773 396.785 180.666 397.42 179.61 C 397.66 179.23 397.91 178.85 398.16 178.47 L 398.36 178.2 C 398.56 177.92 398.77 177.64 398.98 177.38 L 399.24 177.05 C 399.45 176.79 399.67 176.55 399.89 176.3 L 400.16 176.01 C 400.47 175.68 400.78 175.36 401.11 175.01 C 401.414 174.776 401.654 174.47 401.81 174.12 C 401.897 173.773 401.914 173.413 401.86 173.06 C 401.7 170.2 403.2 167.53 404.86 165.23 C 406.52 162.93 408.48 160.75 409.43 158.06 C 409.54 157.75 409.63 157.44 409.71 157.12 C 409.739 157.018 409.763 156.915 409.78 156.81 C 409.83 156.6 409.87 156.39 409.91 156.17 L 409.97 155.81 C 409.97 155.61 410.02 155.41 410.04 155.22 L 410.04 154.83 L 410.04 154.24 L 410.04 153.85 C 410.04 153.66 410.04 153.46 410.04 153.26 C 410.04 153.06 410.04 153.01 410.04 152.88 C 410.04 152.75 410.04 152.46 409.99 152.25 L 409.99 151.91 C 409.99 151.67 409.92 151.42 409.89 151.18 C 409.89 151.1 409.89 151.02 409.89 150.94 Q 409.82 150.45 409.71 149.94 L 409.71 149.94 C 409.234 147.815 408.619 145.724 407.87 143.68 C 407.472 142.424 406.963 141.206 406.35 140.04 C 406.72 139.97 407.1 139.89 407.47 139.79 C 407.176 139.33 406.906 138.857 406.66 138.37 C 408.962 134.98 410.688 131.233 411.77 127.28 C 412.343 124.456 412.678 121.59 412.77 118.71 C 413.32 110.05 413.88 101.35 413.16 92.71 L 413.16 92.37 C 413.43 90.514 413.45 88.631 413.22 86.77 C 412.989 83.13 411.913 79.593 410.08 76.44 C 408.14 73.38 404.94 70.68 401.38 70.32 C 400.793 70.981 400.143 71.584 399.44 72.12 C 398.368 71.179 397.582 69.956 397.17 68.59 C 401.326 67.938 405.155 65.938 408.065 62.9 C 410.975 59.862 412.807 55.95 413.28 51.77 C 413.28 51.46 413.35 51.14 413.37 50.83 C 413.37 50.7 413.37 50.57 413.37 50.44 C 413.37 50.31 413.37 50.07 413.37 49.89 C 413.37 49.71 413.37 49.56 413.37 49.39 L 413.37 48.98 C 413.37 48.79 413.37 48.59 413.37 48.4 C 413.37 48.21 413.37 48.19 413.37 48.09 C 413.37 47.99 413.37 47.65 413.31 47.44 C 413.315 47.363 413.315 47.287 413.31 47.21 L 413.22 46.51 L 413.22 46.36 C 413.22 46.11 413.14 45.86 413.09 45.61 L 413.09 45.53 C 413.04 45.26 412.98 45 412.91 44.73 L 412.91 44.73 C 412.462 42.91 411.752 41.165 410.8 39.55 C 411.582 37.783 412.095 35.909 412.32 33.99 C 412.32 33.64 412.39 33.3 412.41 32.99 C 412.43 32.68 412.41 32.55 412.41 32.33 C 412.41 32.11 412.41 32.11 412.41 32.01 C 412.41 31.72 412.41 31.43 412.41 31.15 C 412.405 31.12 412.405 31.09 412.41 31.06 C 412.265 26.256 410.344 21.672 407.02 18.2 C 407.402 17.566 407.72 16.896 407.97 16.2 L 407.97 16.2 C 408.05 15.99 408.12 15.78 408.18 15.56 L 408.18 15.56 C 408.24 15.35 408.3 15.15 408.35 14.94 L 408.35 14.89 L 408.47 14.32 C 408.464 14.287 408.464 14.253 408.47 14.22 C 408.47 14 408.54 13.77 408.57 13.54 C 408.6 13.31 408.57 13.07 408.63 12.84 C 408.63 12.77 408.63 12.69 408.63 12.62 C 408.63 12.55 408.63 12.29 408.63 12.13 L 408.63 11.89 C 408.63 11.73 408.63 11.56 408.63 11.4 C 408.63 11.24 408.63 11.26 408.63 11.19 C 408.462 8.22 407.179 5.42 405.04 3.353 C 402.901 1.286 400.059 0.1 397.085 0.033 C 394.111 -0.034 391.218 1.023 388.989 2.992 C 386.759 4.961 385.352 7.701 385.05 10.66 C 384.906 11.869 384.943 13.092 385.16 14.29 C 382.253 15.708 379.747 17.832 377.873 20.468 C 375.999 23.104 374.815 26.169 374.43 29.38 C 374.304 30.455 374.267 31.539 374.32 32.62 C 372.595 35.327 371.564 38.419 371.32 41.62 L 371.32 41.62 C 371.32 41.74 371.32 41.86 371.32 41.98 C 371.32 42.38 371.27 42.79 371.27 43.19 C 371.261 46.152 371.93 49.077 373.225 51.74 C 374.519 54.404 376.406 56.737 378.74 58.56 C 379.716 60.136 381.002 61.497 382.52 62.56 C 382.794 63.374 382.998 64.211 383.13 65.06 C 383.241 66.202 383.092 67.354 382.694 68.429 C 382.296 69.505 381.658 70.476 380.83 71.27 C 380.4 71.63 379.92 71.93 379.47 72.27 C 379.016 72.14 378.534 72.14 378.08 72.27 C 372.92 73.89 367.98 77.1 365.61 82.01 C 365.085 83.127 364.669 84.292 364.37 85.49 L 364.09 85.92 C 360.956 90.825 358.702 96.24 357.43 101.92 C 356.78 104.83 356.37 107.85 355.01 110.5 C 354.684 111.053 354.419 111.64 354.22 112.25 C 354.105 113.182 354.064 114.122 354.1 115.06 C 353.96 116.76 352.97 118.27 352.64 119.94 C 352.44 120.94 352.48 121.94 352.31 122.94 C 351.834 124.658 351.208 126.331 350.44 127.94 C 349.38 130.88 349.39 134.11 348.6 137.14 C 348.504 137.639 348.292 138.108 347.98 138.51 C 347.355 138.998 346.651 139.376 345.9 139.63 C 345.35 139.974 344.88 140.431 344.519 140.971 C 344.159 141.51 343.917 142.12 343.81 142.76 C 343.602 144.05 343.578 145.363 343.74 146.66 L 344.13 151.73 L 338.45 153.45 L 329.13 156.3 C 326.399 156.991 323.789 158.093 321.39 159.57 C 319.252 161.059 317.564 163.107 316.51 165.49 C 315.565 167.974 314.956 170.574 314.7 173.22 C 313.799 180.622 312.195 187.922 309.91 195.02 C 309.72 195.56 309.52 196.11 309.32 196.65 L 309.32 196.65 L 308.69 198.24 C 308.64 198.35 308.59 198.46 308.55 198.57 L 308.01 199.84 C 307.77 200.38 307.52 200.91 307.26 201.44 L 329.09 208.72 C 329.09 208.98 329.14 209.26 329.18 209.57 C 329.94 214.93 329.57 220.37 330.27 225.74 C 330.36 226.633 330.565 227.51 330.88 228.35 C 330.326 228.83 329.926 229.463 329.73 230.17 C 329.483 231.314 329.446 232.493 329.62 233.65 C 329.87 236.39 330.11 239.13 330.36 241.87 C 330.478 242.866 330.478 243.874 330.36 244.87 C 330.09 246.68 329.05 248.27 328.48 250 C 327.91 251.73 327.94 253.95 329.37 255 C 329.869 255.341 330.447 255.549 331.05 255.603 C 331.652 255.657 332.258 255.556 332.81 255.31 C 333.912 254.803 334.887 254.055 335.66 253.12 C 340.05 248.24 342.02 241.65 345.43 236.02 C 346.308 234.722 347.09 233.362 347.77 231.95 C 348.24 230.86 348.54 229.7 348.92 228.57 C 349.445 227.065 350.073 225.598 350.8 224.18 C 351.21 223.37 352.8 221.42 352.44 220.52 C 351.88 218.97 345.89 217.61 344.44 217.13 C 343.515 216.717 342.468 216.671 341.51 217 C 341.366 217.069 341.231 217.156 341.11 217.26 L 340.6 210.65 C 341.49 210.57 342.37 210.46 343.24 210.31 Q 343.24 208.45 343.15 206.56 C 343.15 205.42 343.1 204.27 343.07 203.12 C 343.01 200.32 342.95 197.52 342.88 194.77 C 342.862 193.149 342.758 191.53 342.57 189.92 C 342.23 187.47 341.48 185.07 341.24 182.6 C 341.601 182.314 342.027 182.121 342.48 182.04 L 342.48 182.04 C 343.181 181.928 343.893 181.901 344.6 181.96 L 345.16 181.96 C 348.263 181.915 351.304 181.074 353.99 179.52 C 356.74 178.09 359.29 176.3 361.99 174.83 L 362.99 174.3 L 363.37 174.11 L 364.01 173.79 L 364.54 173.54 L 364.66 173.48 C 366.25 172.72 367.86 171.98 369.4 171.15 C 369.504 171.32 369.618 171.483 369.74 171.64 C 370.113 172.148 370.629 172.534 371.222 172.75 C 371.814 172.965 372.458 173 373.07 172.85 C 371.18 177.4 368.96 181.8 368.4 186.72 C 367.58 193.83 370.4 200.72 373.21 207.34 L 382.1 228.34 C 383.1 230.66 384.39 233.26 386.82 233.81 C 388.364 234.018 389.934 233.705 391.28 232.92 C 395.35 230.98 399.01 228.2 402.74 225.6 L 402.89 225.72 C 406.26 228.38 408.37 232.09 410.7 235.64 L 416.93 245.88 C 416.887 246.393 416.973 246.909 417.18 247.38 C 417.634 248.228 418.226 248.995 418.93 249.65 C 422.889 253.914 425.499 259.256 426.43 265 C 426.511 266.471 426.936 267.903 427.67 269.18 C 429.34 271.5 432.9 271.35 435.41 270.03 C 436.185 269.675 436.854 269.124 437.35 268.43 C 437.771 267.685 438.037 266.861 438.13 266.01 C 438.588 263.893 438.84 261.736 438.88 259.57 C 438.84 255.64 437.33 251.73 436.61 247.7 Z M 400.84 59.28 C 401.276 58.993 401.697 58.682 402.1 58.35 C 401.256 60.889 399.893 63.225 398.1 65.21 L 398.1 65.21 C 397.68 65.67 397.23 66.1 396.77 66.52 L 396.77 66.2 C 396.72 65.2 396.77 64.09 396.77 63.03 C 398.373 62.077 399.76 60.8 400.84 59.28 Z M 365.53 138.19 L 365.59 138 C 365.944 138.256 366.252 138.57 366.5 138.93 C 366.258 139.467 366.144 140.053 366.168 140.642 C 366.193 141.23 366.354 141.805 366.64 142.32 C 367.16 143.2 368.1 144.02 367.9 145.03 C 367.7 146.04 366.42 146.44 365.38 146.61 C 364.01 146.83 362.66 147.08 361.31 147.35 C 361.31 147.35 361.31 147.35 361.31 147.28 C 361.34 146.153 361.188 145.029 360.86 143.95 C 363.19 142.95 364.63 140.57 365.53 138.19 Z"
        fill="none"/>
    <path
        id="path_25"
        d="M 407.15 21.77 C 408.595 19.324 409.116 16.44 408.616 13.643 C 408.116 10.847 406.629 8.321 404.426 6.527 C 402.224 4.733 399.449 3.788 396.609 3.865 C 393.769 3.943 391.05 5.036 388.947 6.947 C 386.845 8.858 385.497 11.461 385.15 14.28 C 385.001 15.475 385.038 16.686 385.26 17.87 C 381.862 19.48 379.018 22.063 377.088 25.29 C 375.159 28.517 374.23 32.245 374.42 36 C 371.83 40.011 370.839 44.852 371.642 49.559 C 372.446 54.265 374.987 58.503 378.761 61.428 C 382.535 64.353 387.272 65.758 392.03 65.363 C 396.789 64.967 401.229 62.8 404.468 59.292 C 407.707 55.784 409.514 51.185 409.53 46.41 C 409.53 46.1 409.53 45.8 409.53 45.5 C 411.892 41.868 412.949 37.538 412.526 33.226 C 412.102 28.915 410.223 24.873 407.2 21.77 Z"
        fill="#46455b"/>
    <path
        id="path_26"
        d="M 385.12 14.86 L 385.28 14.77 C 385.24 14.565 385.209 14.358 385.19 14.15 C 385.185 14.193 385.185 14.237 385.19 14.28 C 385.156 14.472 385.133 14.666 385.12 14.86 Z"
        fill="#000000"
        fill-opacity="0.1"
        stroke-opacity="0.1"/>
    <path
        id="path_27"
        d="M 412.43 34.28 C 412.085 37.181 411.075 39.963 409.48 42.41 C 409.48 42.71 409.48 43.01 409.48 43.31 C 409.457 48.22 407.539 52.935 404.13 56.468 C 400.721 60.001 396.077 62.086 391.171 62.284 C 386.265 62.482 381.468 60.78 377.785 57.534 C 374.101 54.287 371.81 49.742 371.39 44.85 C 371.39 45.37 371.32 45.85 371.32 46.41 C 371.32 51.468 373.332 56.325 376.908 59.902 C 380.485 63.478 385.342 65.49 390.4 65.49 C 395.458 65.49 400.315 63.478 403.892 59.902 C 407.468 56.325 409.48 51.468 409.48 46.41 C 409.48 46.1 409.48 45.8 409.48 45.5 C 411.079 43.055 412.089 40.272 412.43 37.37 C 412.588 36.093 412.611 34.802 412.5 33.52 C 412.53 33.77 412.47 34.03 412.43 34.28 Z"
        fill="#000000"
        fill-opacity="0.1"
        stroke-opacity="0.1"/>
    <path
        id="path_28"
        d="M 408.72 14.14 C 408.51 15.744 407.976 17.289 407.15 18.68 C 407.49 19.02 407.8 19.38 408.15 19.74 C 408.455 18.896 408.663 18.021 408.77 17.13 C 408.884 16.135 408.867 15.13 408.72 14.14 Z"
        fill="#000000"
        fill-opacity="0.1"
        stroke-opacity="0.1"/>
    <path
        id="path_29"
        d="M 330.27 226.47 C 330.361 227.555 330.656 228.614 331.14 229.59 C 331.384 230.078 331.741 230.5 332.181 230.822 C 332.621 231.144 333.131 231.356 333.67 231.44 C 334.659 231.446 335.628 231.165 336.46 230.63 C 338.15 229.74 339.92 228.71 340.8 227.01 C 341.68 225.31 341.54 223.41 341.39 221.56 L 340.25 207.01 C 337.51 206.93 334.75 206.93 332 207.08 C 329.25 207.23 328.8 207.87 329.18 210.53 C 329.93 215.81 329.53 221.18 330.27 226.47 Z"
        fill="#fbbebe"/>
    <path
        id="path_30"
        d="M 410.89 236.3 L 417.42 246.86 C 417.704 247.476 418.217 247.957 418.85 248.2 C 419.317 248.27 419.795 248.186 420.21 247.96 C 422.324 246.853 424.181 245.312 425.66 243.44 C 426.844 242.338 427.743 240.966 428.28 239.44 C 428.492 238.594 428.484 237.708 428.256 236.866 C 428.028 236.024 427.589 235.254 426.98 234.63 C 426.224 233.957 425.403 233.361 424.53 232.85 C 419.36 229.36 417.03 222.74 411.93 219.16 C 411.645 218.92 411.299 218.764 410.93 218.71 C 410.552 218.737 410.186 218.861 409.87 219.07 L 402.87 222.89 C 399.87 224.54 400.8 224.74 403.1 226.52 C 406.45 229.14 408.53 232.8 410.89 236.3 Z"
        fill="#fbbebe"/>
    <path
        id="path_31"
        d="M 344.46 218.05 C 343.531 217.647 342.484 217.611 341.53 217.95 C 341.107 218.207 340.749 218.558 340.483 218.976 C 340.218 219.394 340.053 219.868 340 220.36 C 339.82 221.36 339.84 222.36 339.57 223.29 C 338.967 224.839 337.988 226.214 336.72 227.29 C 336.242 227.855 335.625 228.286 334.93 228.54 C 333.98 228.78 332.98 228.34 332.02 228.54 C 331.462 228.686 330.954 228.98 330.551 229.393 C 330.147 229.805 329.864 230.319 329.73 230.88 C 329.478 232.006 329.441 233.17 329.62 234.31 L 330.36 242.41 C 330.482 243.406 330.482 244.414 330.36 245.41 C 330.09 247.2 329.05 248.76 328.48 250.47 C 327.91 252.18 327.93 254.36 329.37 255.47 C 329.874 255.805 330.454 256.008 331.057 256.061 C 331.659 256.113 332.266 256.013 332.82 255.77 C 333.921 255.274 334.895 254.536 335.67 253.61 C 340.07 248.81 342.04 242.3 345.46 236.76 C 346.335 235.484 347.117 234.148 347.8 232.76 C 348.27 231.68 348.57 230.54 348.95 229.43 C 349.476 227.944 350.108 226.497 350.84 225.1 C 351.24 224.3 352.84 222.38 352.48 221.49 C 351.95 219.87 345.94 218.52 344.46 218.05 Z"
        fill="#46455b"/>
    <path
        id="path_32"
        d="M 423.87 240.42 C 422.881 242.288 421.223 243.717 419.23 244.42 C 418.656 244.578 418.121 244.854 417.66 245.23 C 417.357 245.599 417.17 246.049 417.12 246.523 C 417.07 246.998 417.161 247.476 417.38 247.9 C 417.839 248.739 418.433 249.496 419.14 250.14 C 423.089 254.325 425.7 259.594 426.64 265.27 C 426.731 266.725 427.159 268.139 427.89 269.4 C 429.56 271.69 433.13 271.54 435.65 270.23 C 436.419 269.879 437.086 269.339 437.59 268.66 C 438.011 267.925 438.277 267.112 438.37 266.27 C 438.828 264.183 439.079 262.056 439.12 259.92 C 439.12 255.92 437.56 252.03 436.84 248.07 C 435.84 242.44 436.32 236.37 433.7 231.29 C 433.453 230.682 433.05 230.15 432.53 229.75 C 431.872 229.404 431.133 229.238 430.39 229.27 C 428.03 229.18 425.65 229.16 423.28 229.21 C 422.62 229.21 421.84 229.31 421.5 229.88 C 421.381 230.198 421.342 230.541 421.388 230.878 C 421.433 231.214 421.561 231.535 421.76 231.81 C 423.21 234.68 425.59 236.95 423.87 240.42 Z"
        fill="#46455b"/>
    <path
        id="path_33"
        d="M 367.61 139.52 C 366.949 140.068 366.501 140.83 366.344 141.674 C 366.186 142.518 366.33 143.391 366.75 144.14 C 367.28 145.01 368.22 145.82 368.01 146.82 C 367.8 147.82 366.53 148.2 365.49 148.37 C 356.31 149.83 347.37 152.52 338.49 155.2 L 329.15 158.01 C 326.416 158.685 323.799 159.771 321.39 161.23 C 319.257 162.686 317.568 164.704 316.51 167.06 C 315.561 169.506 314.949 172.069 314.69 174.68 C 313.29 184.23 311.5 193.86 307.24 202.52 L 329.87 209.95 C 332.067 210.754 334.343 211.324 336.66 211.65 C 338.868 211.838 341.091 211.731 343.27 211.33 C 343.13 206.28 343.04 201.07 342.9 196.01 C 342.887 194.412 342.784 192.816 342.59 191.23 C 342.25 188.81 341.5 186.45 341.26 184.01 C 342.26 183.15 343.83 183.37 345.18 183.4 C 348.287 183.358 351.334 182.536 354.04 181.01 C 356.78 179.59 359.34 177.83 362.04 176.38 C 366.59 173.97 371.77 172.38 375.25 168.55 C 373.48 175.3 369.25 181.18 368.48 188.11 C 367.71 195.04 370.48 201.96 373.31 208.43 L 382.22 229.11 C 383.22 231.39 384.51 233.96 386.94 234.5 C 388.486 234.702 390.056 234.393 391.41 233.62 C 399.61 229.78 406.17 222.55 414.93 220.25 C 414.27 215.91 410.85 212.32 408.93 208.39 C 407.29 205.08 406.76 201.34 405.67 197.81 C 404.58 194.28 402.67 190.69 399.41 189.01 C 397.84 188.22 395.73 187.52 395.59 185.77 C 395.577 185.207 395.697 184.648 395.94 184.14 C 397.11 181.188 398.932 178.539 401.27 176.39 C 401.567 176.154 401.807 175.853 401.97 175.51 C 402.047 175.182 402.064 174.844 402.02 174.51 C 401.85 171.69 403.36 169.06 405.02 166.79 C 406.68 164.52 408.65 162.37 409.6 159.72 C 411.23 155.15 409.6 150.13 408 145.56 C 407.474 143.664 406.562 141.897 405.32 140.37 C 403.22 138.13 399.96 137.48 396.9 137.14 C 387.05 136.02 375.46 133.43 367.61 139.52 Z"
        fill="#46455b"/>
    <path
        id="path_34"
        d="M 405.05 159.53 C 403.37 161.8 401.86 164.43 402.05 167.25 C 402.094 167.584 402.077 167.922 402 168.25 C 401.837 168.593 401.597 168.894 401.3 169.13 C 398.962 171.279 397.14 173.928 395.97 176.88 C 395.727 177.388 395.608 177.947 395.62 178.51 C 395.724 179.039 395.962 179.533 396.312 179.943 C 396.663 180.353 397.113 180.665 397.62 180.85 C 398.638 179.185 399.884 177.671 401.32 176.35 C 401.617 176.114 401.857 175.813 402.02 175.47 C 402.097 175.142 402.114 174.804 402.07 174.47 C 401.9 171.65 403.41 169.02 405.07 166.75 C 406.73 164.48 408.7 162.33 409.65 159.68 C 410.469 157.087 410.552 154.317 409.89 151.68 Q 409.79 152.07 409.65 152.46 C 408.68 155.11 406.74 157.27 405.05 159.53 Z"
        fill="#000000"
        fill-opacity="0.1"
        stroke-opacity="0.1"/>
    <path
        id="path_35"
        d="M 366.58 140.89 C 366.912 140.823 367.22 140.668 367.472 140.441 C 367.723 140.214 367.909 139.923 368.01 139.6 C 368.03 139.471 368.03 139.339 368.01 139.21 L 367.58 139.52 C 367.139 139.887 366.795 140.358 366.58 140.89 Z"
        fill="#000000"
        fill-opacity="0.1"
        stroke-opacity="0.1"/>
    <path
        id="path_36"
        d="M 336.66 204.43 C 334.343 204.104 332.067 203.534 329.87 202.73 L 309.87 196.17 C 309.114 198.338 308.229 200.458 307.22 202.52 L 329.87 209.95 C 332.067 210.754 334.343 211.324 336.66 211.65 C 338.868 211.838 341.091 211.731 343.27 211.33 C 343.2 208.96 343.15 206.55 343.09 204.14 C 340.968 204.516 338.807 204.614 336.66 204.43 Z"
        fill="#000000"
        fill-opacity="0.1"
        stroke-opacity="0.1"/>
    <path
        id="path_37"
        d="M 391.44 226.4 C 390.086 227.173 388.516 227.482 386.97 227.28 C 384.54 226.74 383.23 224.17 382.25 221.89 L 373.34 201.21 C 371.34 196.66 369.39 191.93 368.67 187.08 C 368.61 187.42 368.56 187.76 368.51 188.08 C 367.7 195.08 370.51 201.93 373.34 208.4 L 382.25 229.08 C 383.25 231.36 384.54 233.93 386.97 234.47 C 388.516 234.672 390.086 234.363 391.44 233.59 C 399.64 229.75 406.2 222.52 414.96 220.22 C 414.504 217.949 413.589 215.795 412.27 213.89 C 404.81 216.82 398.78 222.95 391.44 226.4 Z"
        fill="#000000"
        fill-opacity="0.1"
        stroke-opacity="0.1"/>
    <path
        id="path_38"
        d="M 375.28 161.33 C 371.8 165.13 366.62 166.75 362.07 169.16 C 359.34 170.61 356.78 172.37 354.07 173.79 C 351.364 175.319 348.318 176.144 345.21 176.19 C 343.86 176.19 342.34 175.93 341.29 176.79 C 341.51 179.04 342.16 181.23 342.53 183.46 C 343.418 183.34 344.317 183.32 345.21 183.4 C 348.317 183.358 351.364 182.536 354.07 181.01 C 356.81 179.59 359.37 177.83 362.07 176.38 C 365.07 174.79 368.34 173.55 371.22 171.79 C 372.82 168.404 374.177 164.909 375.28 161.33 Z"
        fill="#000000"
        fill-opacity="0.1"
        stroke-opacity="0.1"/>
    <path
        id="path_39"
        d="M 383.22 67.95 C 383.33 69.077 383.18 70.213 382.781 71.273 C 382.383 72.332 381.746 73.286 380.92 74.06 C 380.37 74.53 379.72 74.88 379.19 75.37 C 378.553 76.022 378.119 76.846 377.943 77.741 C 377.767 78.635 377.855 79.562 378.198 80.408 C 378.54 81.253 379.121 81.98 379.87 82.5 C 381.67 83.6 383.96 83.3 386.04 82.94 C 388.813 82.557 391.532 81.849 394.14 80.83 C 396.764 79.802 398.997 77.971 400.52 75.6 C 399.425 74.901 398.52 73.941 397.887 72.807 C 397.253 71.673 396.911 70.399 396.89 69.1 C 396.75 66.51 397.46 63.57 395.82 61.56 C 394.18 59.55 391.27 59.64 388.82 60.3 C 387.61 60.64 386.44 61.1 385.23 61.43 C 384.61 61.59 382.59 61.6 382.23 62.05 C 381.53 62.87 383.15 66.64 383.22 67.95 Z"
        fill="#fbbebe"/>
    <path
        id="path_40"
        d="M 383.22 67.95 C 383.33 69.077 383.18 70.213 382.781 71.273 C 382.383 72.332 381.746 73.286 380.92 74.06 C 380.37 74.53 379.72 74.88 379.19 75.37 C 378.553 76.022 378.119 76.846 377.943 77.741 C 377.767 78.635 377.855 79.562 378.198 80.408 C 378.54 81.253 379.121 81.98 379.87 82.5 C 381.67 83.6 383.96 83.3 386.04 82.94 C 388.813 82.557 391.532 81.849 394.14 80.83 C 396.764 79.802 398.997 77.971 400.52 75.6 C 399.425 74.901 398.52 73.941 397.887 72.807 C 397.253 71.673 396.911 70.399 396.89 69.1 C 396.75 66.51 397.46 63.57 395.82 61.56 C 394.18 59.55 391.27 59.64 388.82 60.3 C 387.61 60.64 386.44 61.1 385.23 61.43 C 384.61 61.59 382.59 61.6 382.23 62.05 C 381.53 62.87 383.15 66.64 383.22 67.95 Z"
        fill="#000000"
        fill-opacity="0.1"
        stroke-opacity="0.1"/>
    <path
        id="path_41"
        d="M 390.17 54.4 M 376.76 54.4 C 376.76 50.845 378.174 47.432 380.688 44.918 C 383.202 42.404 386.615 40.99 390.17 40.99 C 393.725 40.99 397.138 42.404 399.652 44.918 C 402.166 47.432 403.58 50.845 403.58 54.4 C 403.58 57.955 402.166 61.368 399.652 63.882 C 397.138 66.396 393.725 67.81 390.17 67.81 C 386.615 67.81 383.202 66.396 380.688 63.882 C 378.174 61.368 376.76 57.955 376.76 54.4"
        fill="#fbbebe"/>
    <path
        id="path_42"
        d="M 347.83 157.26 C 347.594 158.328 347.167 159.344 346.57 160.26 C 345.002 163.035 344.437 166.267 344.97 169.41 C 345.251 170.968 345.912 172.433 346.894 173.675 C 347.875 174.917 349.149 175.898 350.6 176.53 C 351.206 176.832 351.881 176.969 352.557 176.927 C 353.233 176.885 353.886 176.665 354.45 176.29 C 352.66 173.96 352.56 170.78 352.67 167.84 C 352.638 167.292 352.767 166.746 353.04 166.27 C 353.14 166.121 353.279 166.001 353.442 165.924 C 353.604 165.847 353.785 165.815 353.964 165.832 C 354.143 165.849 354.315 165.914 354.46 166.02 C 354.41 167.872 354.769 169.712 355.51 171.41 C 355.79 172.06 356.27 172.78 356.99 172.76 C 357.99 172.76 358.28 171.35 358.24 170.33 C 358.09 166.17 357.88 161.84 355.88 158.2 C 355 156.952 354.325 155.571 353.88 154.11 C 353.865 153.59 353.683 153.088 353.36 152.68 C 353.141 152.506 352.884 152.386 352.61 152.33 C 351.46 152 348.72 150.99 347.77 152.07 C 346.82 153.15 348.01 155.88 347.83 157.26 Z"
        fill="#fbbebe"/>
    <path
        id="path_43"
        d="M 367.74 86.03 C 366.2 85.85 364.99 87.26 364.15 88.56 C 361.008 93.398 358.746 98.754 357.47 104.38 C 356.82 107.25 356.42 110.23 355.05 112.84 C 354.724 113.383 354.459 113.959 354.26 114.56 C 354.15 115.482 354.109 116.412 354.14 117.34 C 354 119.01 353.01 120.5 352.68 122.15 C 352.48 123.15 352.52 124.15 352.34 125.15 C 352.04 126.87 351.09 128.41 350.48 130.06 C 349.41 132.96 349.42 136.14 348.63 139.13 C 348.534 139.62 348.321 140.08 348.01 140.47 C 347.48 141.06 346.62 141.2 345.93 141.58 C 345.38 141.916 344.908 142.365 344.546 142.898 C 344.184 143.431 343.94 144.035 343.83 144.67 C 343.622 145.94 343.598 147.233 343.76 148.51 L 344.38 156.44 C 345.01 156.17 345.38 155.44 345.96 155.01 C 346.96 154.21 348.35 154.39 349.59 154.61 L 351.4 154.94 C 353.25 155.27 355.26 155.7 356.4 157.16 C 357.34 155.68 356.81 153.51 358.25 152.53 C 358.72 152.21 359.31 152.11 359.8 151.83 C 360.267 151.527 360.654 151.117 360.929 150.633 C 361.204 150.149 361.359 149.606 361.38 149.05 C 361.41 147.936 361.258 146.825 360.93 145.76 C 363.25 144.76 364.69 142.43 365.6 140.08 C 366.596 137.235 367.319 134.302 367.76 131.32 C 369.85 119.53 371.76 107.66 371.96 95.69 C 372.092 93.691 371.872 91.683 371.31 89.76 C 370.69 87.86 369.73 86.25 367.74 86.03 Z"
        fill="#6c63ff"/>
    <path
        id="path_44"
        d="M 367.74 86.03 C 366.2 85.85 364.99 87.26 364.15 88.56 C 361.008 93.398 358.746 98.754 357.47 104.38 C 356.82 107.25 356.42 110.23 355.05 112.84 C 354.724 113.383 354.459 113.959 354.26 114.56 C 354.15 115.482 354.109 116.412 354.14 117.34 C 354 119.01 353.01 120.5 352.68 122.15 C 352.48 123.15 352.52 124.15 352.34 125.15 C 352.04 126.87 351.09 128.41 350.48 130.06 C 349.41 132.96 349.42 136.14 348.63 139.13 C 348.534 139.62 348.321 140.08 348.01 140.47 C 347.48 141.06 346.62 141.2 345.93 141.58 C 345.38 141.916 344.908 142.365 344.546 142.898 C 344.184 143.431 343.94 144.035 343.83 144.67 C 343.622 145.94 343.598 147.233 343.76 148.51 L 344.38 156.44 C 345.01 156.17 345.38 155.44 345.96 155.01 C 346.96 154.21 348.35 154.39 349.59 154.61 L 351.4 154.94 C 353.25 155.27 355.26 155.7 356.4 157.16 C 357.34 155.68 356.81 153.51 358.25 152.53 C 358.72 152.21 359.31 152.11 359.8 151.83 C 360.267 151.527 360.654 151.117 360.929 150.633 C 361.204 150.149 361.359 149.606 361.38 149.05 C 361.41 147.936 361.258 146.825 360.93 145.76 C 363.25 144.76 364.69 142.43 365.6 140.08 C 366.596 137.235 367.319 134.302 367.76 131.32 C 369.85 119.53 371.76 107.66 371.96 95.69 C 372.092 93.691 371.872 91.683 371.31 89.76 C 370.69 87.86 369.73 86.25 367.74 86.03 Z"
        fill="#000000"
        fill-opacity="0.1"
        stroke-opacity="0.1"/>
    <path
        id="path_45"
        d="M 401.53 73.19 C 399.318 75.51 396.491 77.154 393.38 77.93 C 390.282 78.694 387.117 79.159 383.93 79.32 C 382.951 79.479 381.948 79.393 381.01 79.07 C 380.549 78.892 380.169 78.549 379.946 78.108 C 379.722 77.666 379.67 77.157 379.8 76.68 C 379.97 76.393 380.088 76.078 380.15 75.75 C 380.15 74.93 378.93 74.86 378.15 75.1 C 372.99 76.7 368.04 79.86 365.66 84.71 C 364.459 87.521 363.709 90.505 363.44 93.55 C 362.32 101.55 361.2 109.62 362.7 117.55 C 363.51 121.76 365.05 125.85 365.14 130.13 C 365.2 132.53 364.79 134.92 364.81 137.32 C 364.742 138.16 364.968 138.998 365.45 139.69 C 365.82 140.12 366.38 140.39 366.64 140.9 C 367.07 141.74 366.49 142.9 367.06 143.67 C 367.77 144.61 369.23 143.93 370.2 143.27 C 375.064 139.968 380.943 138.491 386.79 139.1 C 393.79 139.85 400.79 143.6 407.61 141.72 C 407.258 141.211 406.957 140.668 406.71 140.1 C 403.31 128.94 403.54 116.45 408.63 105.95 C 410.36 102.36 412.63 98.95 413.33 95.01 C 413.599 93.171 413.622 91.305 413.4 89.46 C 413.163 85.864 412.084 82.373 410.25 79.27 C 408.32 76.2 405.11 73.55 401.53 73.19 Z"
        fill="#6c63ff"/>
    <path
        id="path_46"
        d="M 369.1 160.71 C 368.558 162.171 368.296 163.722 368.33 165.28 C 368.283 166.767 368.357 168.255 368.55 169.73 C 368.667 170.992 369.12 172.201 369.86 173.23 C 370.237 173.736 370.755 174.12 371.349 174.332 C 371.944 174.544 372.588 174.574 373.2 174.42 C 373.679 174.218 374.107 173.913 374.452 173.525 C 374.798 173.138 375.054 172.678 375.2 172.18 C 375.488 171.177 375.702 170.154 375.84 169.12 C 376.42 166.12 378.02 163.22 378.05 160.12 C 378.07 159.752 378.012 159.384 377.88 159.04 C 377.3 157.77 374.45 156.34 373.06 156.55 C 371.34 156.82 369.74 159.24 369.1 160.71 Z"
        fill="#fbbebe"/>
    <path
        id="path_47"
        d="M 407.79 84.51 C 407.53 87.18 410.11 89.19 411.13 91.66 C 411.543 92.818 411.779 94.032 411.83 95.26 C 412.55 103.79 411.99 112.36 411.43 120.89 C 411.348 123.731 411.014 126.559 410.43 129.34 C 408.99 135.17 405.43 140.23 401.98 145.13 C 401.458 145.933 400.851 146.677 400.17 147.35 C 399.152 148.175 398.021 148.849 396.81 149.35 L 384.91 155.12 C 383.418 155.778 382 156.592 380.68 157.55 C 379.147 158.75 377.943 160.319 377.18 162.11 C 374.87 160.93 372.47 159.87 370.18 158.69 C 369.64 158.41 369.03 158.05 368.94 157.45 C 368.82 156.65 369.66 156.08 370.24 155.45 C 371.32 154.38 371.65 152.79 372.24 151.39 C 374.16 146.79 378.97 143.85 380.71 139.19 C 381.38 137.4 381.58 135.37 382.77 133.87 C 383.447 133.118 384.209 132.447 385.04 131.87 C 386.864 130.314 388.538 128.59 390.04 126.72 C 390.721 126.015 391.279 125.2 391.69 124.31 C 392.071 122.938 392.203 121.509 392.08 120.09 C 392.17 115.43 394.28 111.09 395.57 106.61 C 396.78 102.4 397.29 97.98 398.88 93.89 C 400.47 89.8 403.53 85.61 407.79 84.51 Z"
        fill="#000000"
        fill-opacity="0.1"
        stroke-opacity="0.1"/>
    <path
        id="path_48"
        d="M 409.34 84.51 C 409.08 87.18 411.65 89.19 412.67 91.66 C 413.086 92.817 413.326 94.031 413.38 95.26 C 414.09 103.79 413.54 112.36 412.98 120.89 C 412.882 123.732 412.53 126.56 411.93 129.34 C 410.49 135.17 406.93 140.23 403.48 145.13 C 402.958 145.933 402.351 146.677 401.67 147.35 C 400.652 148.175 399.521 148.849 398.31 149.35 L 386.4 155.12 C 384.91 155.782 383.493 156.596 382.17 157.55 C 380.64 158.753 379.437 160.321 378.67 162.11 C 376.36 160.93 373.97 159.87 371.67 158.69 C 371.13 158.41 370.52 158.05 370.43 157.45 C 370.3 156.65 371.14 156.08 371.72 155.45 C 372.81 154.38 373.14 152.79 373.72 151.39 C 375.63 146.79 380.45 143.85 382.19 139.19 C 382.86 137.4 383.06 135.37 384.25 133.87 C 384.923 133.114 385.685 132.442 386.52 131.87 C 388.344 130.314 390.018 128.59 391.52 126.72 C 392.201 126.015 392.759 125.2 393.17 124.31 C 393.546 122.937 393.678 121.509 393.56 120.09 C 393.65 115.43 395.75 111.09 397.04 106.61 C 398.26 102.4 398.76 97.98 400.35 93.89 C 401.94 89.8 405.1 85.61 409.34 84.51 Z"
        fill="#6c63ff"/>
    <path
        id="path_49"
        d="M 396.81 33.67 C 392.681 33.168 388.499 34.036 384.91 36.14 C 385.44 36.14 385.97 36.14 386.5 36.26 C 390.467 36.739 394.184 38.453 397.125 41.157 C 400.067 43.862 402.085 47.423 402.895 51.336 C 403.705 55.248 403.265 59.318 401.639 62.968 C 400.013 66.617 397.281 69.666 393.83 71.68 C 398.732 71.837 403.51 70.098 407.164 66.828 C 410.819 63.557 413.075 59 413.461 54.111 C 413.847 49.222 412.334 44.368 409.238 40.565 C 406.142 36.761 401.696 34.294 396.83 33.68 Z"
        fill="#46455b"/>
    <path
        id="path_50"
        d="M 402.68 44.28 C 403.145 45.328 403.397 46.459 403.423 47.605 C 403.448 48.751 403.247 49.892 402.83 50.96 C 402.74 50.69 402.64 50.42 402.52 50.15 C 400.16 44.9 392.9 42.73 386.29 45.3 C 384.533 45.924 382.927 46.912 381.578 48.199 C 380.228 49.486 379.166 51.044 378.46 52.77 C 376.78 47.69 380.19 41.87 386.46 39.43 C 393.06 36.86 400.32 39.03 402.68 44.28 Z"
        fill="#46455b"/>
    <path
        id="path_51"
        d="M 402.72 50.55 C 402.416 46.867 401.05 43.35 398.787 40.429 C 396.523 37.507 393.46 35.305 389.97 34.09 C 388.196 34.51 386.492 35.183 384.91 36.09 C 385.44 36.09 385.97 36.09 386.5 36.21 C 390.338 36.674 393.946 38.294 396.842 40.855 C 399.739 43.416 401.789 46.798 402.72 50.55 Z"
        fill="#000000"
        fill-opacity="0.1"
        stroke-opacity="0.1"/>
    <path
        id="path_52"
        d="M 405.81 36.62 C 405.504 32.938 404.136 29.422 401.873 26.501 C 399.611 23.58 396.549 21.377 393.06 20.16 C 391.284 20.603 389.58 21.297 388 22.22 C 388.53 22.22 389.06 22.22 389.6 22.34 C 393.429 22.8 397.03 24.412 399.923 26.962 C 402.817 29.511 404.87 32.88 405.81 36.62 Z"
        fill="#000000"
        fill-opacity="0.1"
        stroke-opacity="0.1"/>
    <path
        id="path_53"
        d="M 405.89 15.83 C 405.698 13.617 404.87 11.506 403.506 9.753 C 402.141 8 400.298 6.679 398.2 5.95 C 397.126 6.211 396.095 6.625 395.14 7.18 C 395.46 7.18 395.78 7.18 396.14 7.26 C 398.439 7.54 400.6 8.509 402.34 10.038 C 404.079 11.567 405.317 13.586 405.89 15.83 Z"
        fill="#000000"
        fill-opacity="0.1"
        stroke-opacity="0.1"/>
    <path
        id="path_54"
        d="M 413.03 47.95 C 413.398 52.524 412.107 57.081 409.393 60.782 C 406.68 64.483 402.723 67.085 398.25 68.11 C 396.961 69.509 395.472 70.709 393.83 71.67 C 397.788 71.814 401.694 70.723 405.004 68.548 C 408.314 66.373 410.866 63.22 412.304 59.53 C 413.742 55.839 413.996 51.791 413.03 47.95 Z"
        fill="#000000"
        fill-opacity="0.1"
        stroke-opacity="0.1"/>
    <path
        id="path_55"
        d="M 582.22 247.66 C 580.998 246.65 579.48 246.062 577.896 245.984 C 576.312 245.907 574.745 246.344 573.43 247.23 C 571.43 248.71 570.56 251.17 569.74 253.49 C 568.54 256.92 566.6 260.25 566.28 263.88 C 565.39 273.88 558.38 282.29 556.28 292.09 C 555.51 295.59 555.36 299.27 553.91 302.54 C 553.216 303.975 552.413 305.356 551.51 306.67 C 547.994 312.198 544.982 318.032 542.51 324.1 C 540.77 324.63 539.34 326.3 537.95 327.63 C 536.167 329.335 534.034 330.632 531.7 331.43 C 530.748 331.643 529.861 332.078 529.11 332.7 C 528.11 333.76 528.11 335.47 527.28 336.7 C 526.69 337.506 525.906 338.149 525 338.57 C 524.939 338.286 524.892 337.999 524.86 337.71 C 524.65 336.18 524.48 334.65 524.32 333.12 C 526.648 329.723 527.69 325.605 527.257 321.51 C 526.825 317.415 524.946 313.606 521.96 310.77 C 521.775 308.383 521.845 305.982 522.17 303.61 C 522.317 303.04 522.302 302.439 522.125 301.877 C 521.948 301.315 521.617 300.813 521.17 300.43 C 520.68 300.12 520.08 300.05 519.56 299.79 C 518.806 299.284 518.166 298.627 517.68 297.86 C 516.275 296.268 514.351 295.224 512.251 294.913 C 510.15 294.602 508.006 295.044 506.2 296.16 C 503.4 298.03 501.92 301.35 499.53 303.74 C 498.29 304.97 496.82 305.94 495.59 307.17 C 493.13 309.807 491.532 313.132 491.01 316.7 C 490.497 320.249 490.353 323.841 490.58 327.42 C 490.555 328.505 490.711 329.586 491.04 330.62 C 491.397 331.468 491.89 332.252 492.5 332.94 C 495.43 336.762 499.304 339.757 503.74 341.63 C 503.771 341.842 503.787 342.056 503.79 342.27 C 503.79 342.6 503.79 342.93 503.71 343.27 L 503.22 343.19 C 501.42 342.97 499.52 343.19 497.85 342.5 C 495 341.27 493.85 337.65 491.04 336.23 C 490.807 336.107 490.562 336.007 490.31 335.93 C 489.644 331.269 488.271 326.737 486.24 322.49 C 485.24 320.49 484.11 318.41 483.99 316.15 C 484.052 314.049 484.524 311.98 485.38 310.06 C 487.64 303.191 489.425 296.174 490.72 289.06 Q 492.08 282.37 493.46 275.68 C 494.701 274.551 495.797 273.271 496.72 271.87 C 498.647 269.083 499.774 265.822 499.98 262.44 C 500.069 260.754 499.824 259.066 499.257 257.475 C 498.691 255.884 497.815 254.421 496.68 253.17 C 496.179 252.56 495.553 252.066 494.843 251.721 C 494.134 251.376 493.359 251.188 492.57 251.17 C 491.89 251.25 491.234 251.469 490.642 251.813 C 490.051 252.157 489.536 252.619 489.13 253.17 C 487.909 254.88 487.026 256.808 486.53 258.85 C 485.53 262.17 484.53 265.63 484.98 269.07 C 485.39 271.92 486.78 275.01 485.36 277.51 C 480.68 285.7 477.45 294.91 473.98 303.69 C 473.085 305.797 472.356 307.97 471.8 310.19 C 471.105 313.768 470.984 317.434 471.44 321.05 C 472.263 327.831 473.57 334.545 475.35 341.14 C 476.08 344.14 476.94 347.31 478.66 349.78 C 478.05 353.131 477.902 356.549 478.22 359.94 C 478.261 360.724 478.465 361.49 478.82 362.19 C 479.394 362.995 480.089 363.707 480.88 364.3 C 481.953 365.298 482.8 366.514 483.364 367.866 C 483.928 369.218 484.196 370.676 484.15 372.14 C 484.198 374.878 484.73 377.587 485.72 380.14 C 488.11 387.27 490.51 394.4 492.6 401.63 C 493.053 402.968 493.303 404.367 493.34 405.78 C 493.34 407.78 492.39 409.78 492.83 411.78 C 493.166 412.684 493.439 413.609 493.65 414.55 C 493.666 415.277 493.572 416.002 493.37 416.7 C 492.07 422.35 488.31 435.38 488.96 441.15 L 490.25 440.7 C 489.7 448.34 487.34 455.82 486.48 463.46 C 485.915 469.023 485.975 474.631 486.66 480.18 C 487.033 482.66 487.247 485.162 487.3 487.67 C 487.3 489.92 486.94 492.14 486.85 494.38 C 486.805 497.389 486.982 500.397 487.38 503.38 C 487.772 508.06 488.517 512.703 489.61 517.27 C 491.69 525.03 490.29 533.11 490.52 541.15 C 490.788 546.759 490.732 552.378 490.35 557.98 C 490.14 560.35 489.81 562.71 489.74 565.09 C 489.53 572.15 491.62 579.18 490.88 586.2 C 490.53 589.49 489.69 593.2 491.76 595.79 C 492.42 596.6 493.31 597.18 494.01 597.95 C 494.391 598.308 494.671 598.759 494.824 599.259 C 494.976 599.759 494.996 600.29 494.88 600.8 C 494.61 601.59 493.88 602.17 493.71 603 C 493.52 604.3 494.95 605.2 496.19 605.62 L 496.54 605.72 C 496.514 606.154 496.58 606.588 496.733 606.995 C 496.887 607.402 497.124 607.771 497.43 608.08 C 498.205 608.672 499.129 609.039 500.1 609.14 L 516.1 612.24 C 519.67 612.93 523.55 613.58 526.9 612.37 C 527.029 612.854 527.289 613.293 527.65 613.64 C 528.423 614.231 529.343 614.597 530.31 614.7 L 546.31 617.8 C 550.39 618.59 554.87 619.32 558.51 617.3 C 559.559 616.74 560.445 615.916 561.08 614.91 C 561.591 613.957 561.887 612.903 561.947 611.824 C 562.008 610.744 561.831 609.664 561.43 608.66 C 561.124 607.631 560.501 606.725 559.65 606.07 C 558.515 605.446 557.221 605.168 555.93 605.27 C 554.834 605.35 553.733 605.182 552.71 604.78 C 552.396 604.615 552.123 604.383 551.91 604.1 C 552.71 603.1 553.48 602.1 554.21 601.1 C 553.52 600.94 553.21 599.99 553.04 599.29 C 550.98 588.91 553.87 578.29 554.29 567.69 C 554.503 562.383 554.087 557.069 553.05 551.86 C 552.66 549.86 552.19 547.96 551.91 545.98 C 550.44 535.65 554.37 525.16 553.12 514.8 C 552.53 509.96 554.61 504.9 555.35 500.08 C 556 495.8 555.58 491.44 555.16 487.08 L 551.85 453.08 C 551.4 448.49 550.93 443.79 548.97 439.61 C 547.991 437.273 547.527 434.752 547.61 432.22 C 551.61 429.93 555.29 426.78 559.81 426.77 C 560.68 423.47 558.18 413.06 556.72 409.98 C 551.026 397.839 548.773 384.363 550.21 371.03 C 550.74 366.24 548.83 361.41 549.47 356.63 C 549.566 355.511 549.878 354.42 550.39 353.42 C 550.648 352.924 551.027 352.502 551.492 352.193 C 551.957 351.883 552.493 351.697 553.05 351.65 C 552.77 348.78 552.4 345.89 551.91 343.02 C 553.556 341.341 554.908 339.397 555.91 337.27 C 557.99 332.92 558.91 328.12 560.12 323.46 C 562.32 315.25 565.68 307.41 568.34 299.35 C 571 291.29 570.48 282.77 572.39 274.49 C 573.468 269.93 576.263 265.956 580.19 263.4 C 581.71 262.4 583.44 261.63 584.49 260.15 C 585.281 258.934 585.699 257.511 585.69 256.06 C 585.78 254.489 585.515 252.918 584.914 251.464 C 584.313 250.01 583.392 248.709 582.22 247.66 Z M 521.1 597.54 C 521.4 597.13 521.69 596.72 521.96 596.29 C 520.9 596.23 519.56 595.61 519.43 594.55 C 519.398 593.489 519.516 592.428 519.78 591.4 C 520.081 589.562 519.969 587.679 519.45 585.89 C 519.08 584.65 518.53 583.46 518.13 582.22 C 517.739 580.836 517.428 579.43 517.2 578.01 C 516.22 572.931 514.694 567.972 512.65 563.22 C 510.65 558.61 512.2 553.58 512.22 548.55 C 512.22 546.18 511.86 543.76 512.46 541.46 C 512.81 540.1 513.46 538.84 513.83 537.46 C 514.65 534.29 513.62 530.96 512.61 527.85 C 516.56 518.51 517.09 507.85 517.9 497.69 Q 518.58 489.17 519.26 480.69 C 519.46 478.16 519.69 475.53 521.02 473.37 C 523.382 480.592 524.791 488.093 525.21 495.68 C 525.252 497.873 525.506 500.056 525.97 502.2 C 526.6 504.57 527.83 506.72 528.65 509.02 C 530.47 514.08 530.28 519.61 531.1 524.92 C 531.43 527.07 531.93 529.19 532.25 531.34 C 533.63 540.83 531.4 550.44 529.18 559.77 C 527.82 565.49 528.04 571.82 527.73 577.69 C 527.44 583.32 527.14 588.95 527.28 594.59 C 527.28 596.31 527.39 598.07 527.37 599.82 C 526.826 599.755 526.278 599.725 525.73 599.73 C 524.634 599.81 523.533 599.642 522.51 599.24 C 521.877 598.832 521.384 598.238 521.1 597.54 Z"
        fill="none"/>
    <path
        id="path_56"
        d="M 555.98 605.34 C 557.27 605.241 558.562 605.515 559.7 606.13 C 560.545 606.785 561.167 607.687 561.48 608.71 C 561.879 609.708 562.054 610.782 561.991 611.855 C 561.929 612.928 561.632 613.975 561.12 614.92 C 560.484 615.92 559.598 616.737 558.55 617.29 C 554.91 619.29 550.43 618.58 546.35 617.8 L 530.35 614.73 C 529.386 614.646 528.462 614.3 527.68 613.73 C 527.194 613.196 526.887 612.523 526.803 611.805 C 526.719 611.088 526.861 610.362 527.21 609.73 C 527.908 608.468 528.948 607.428 530.21 606.73 C 534.81 603.87 540.21 602.73 545.49 602.12 C 547.49 601.88 549.36 601.24 550.86 602.63 C 551.66 603.36 551.62 604.27 552.74 604.86 C 553.771 605.257 554.878 605.421 555.98 605.34 Z"
        fill="#3f3d56"/>
    <path
        id="path_57"
        d="M 525.75 599.84 C 527.037 599.74 528.325 600.015 529.46 600.63 C 530.311 601.28 530.935 602.183 531.24 603.21 C 531.643 604.207 531.821 605.281 531.761 606.354 C 531.7 607.428 531.403 608.475 530.89 609.42 C 530.251 610.418 529.366 611.234 528.32 611.79 C 524.68 613.79 520.2 613.08 516.11 612.3 L 500.11 609.22 C 499.146 609.136 498.222 608.79 497.44 608.22 C 496.952 607.687 496.644 607.014 496.558 606.297 C 496.472 605.58 496.612 604.853 496.96 604.22 C 497.679 602.957 498.735 601.918 500.01 601.22 C 504.6 598.37 510.01 597.27 515.29 596.62 C 517.29 596.37 519.16 595.74 520.66 597.12 C 521.45 597.85 521.42 598.76 522.53 599.35 C 523.554 599.75 524.654 599.918 525.75 599.84 Z"
        fill="#3f3d56"/>
    <path
        id="path_58"
        d="M 521.81 429.84 C 512.561 429.878 503.327 430.583 494.18 431.95 C 493.575 432.006 492.984 432.161 492.43 432.41 C 490.49 433.41 490.43 436.13 490.48 438.31 C 490.61 447.18 487.58 455.77 486.58 464.57 C 486.007 470.095 486.064 475.668 486.75 481.18 C 487.113 483.648 487.327 486.136 487.39 488.63 C 487.39 490.85 487.02 493.06 486.93 495.29 C 486.884 498.265 487.057 501.24 487.45 504.19 C 487.842 508.84 488.587 513.453 489.68 517.99 C 491.75 525.7 490.35 533.73 490.57 541.71 C 490.837 547.282 490.773 552.865 490.38 558.43 C 490.17 560.79 489.84 563.13 489.77 565.5 C 489.56 572.5 491.64 579.5 490.9 586.5 C 490.55 589.76 489.7 593.5 491.77 596.02 C 492.43 596.82 493.32 597.4 494.01 598.17 C 494.387 598.524 494.667 598.97 494.821 599.464 C 494.975 599.958 494.999 600.484 494.89 600.99 C 494.61 601.78 493.84 602.36 493.72 603.18 C 493.52 604.47 494.95 605.37 496.19 605.78 C 500.912 607.229 505.98 607.109 510.628 605.438 C 515.277 603.767 519.261 600.634 521.98 596.51 C 520.92 596.45 519.58 595.83 519.45 594.78 C 519.418 593.725 519.536 592.672 519.8 591.65 C 520.107 589.825 519.994 587.955 519.47 586.18 C 519.11 584.94 518.55 583.76 518.16 582.53 C 517.77 581.156 517.459 579.76 517.23 578.35 C 516.256 573.299 514.734 568.37 512.69 563.65 C 510.69 559.07 512.25 554.07 512.27 549.09 C 512.27 546.73 511.92 544.32 512.51 542.04 C 512.86 540.68 513.51 539.43 513.89 538.04 C 514.71 534.89 513.68 531.59 512.67 528.5 C 516.67 519.22 517.17 508.58 517.98 498.5 L 519.35 481.5 C 519.55 478.99 519.79 476.37 521.11 474.23 C 523.472 481.401 524.881 488.852 525.3 496.39 C 525.333 498.573 525.584 500.747 526.05 502.88 C 526.68 505.22 527.9 507.36 528.73 509.65 C 530.54 514.65 530.35 520.16 531.17 525.44 C 531.5 527.58 531.99 529.68 532.31 531.82 C 533.69 541.25 531.45 550.82 529.22 560.07 C 527.86 565.75 528.07 572.07 527.76 577.88 C 527.46 583.47 527.16 589.06 527.3 594.66 C 527.42 599.81 527.82 605.34 525.05 609.66 C 528.15 611.24 531.35 612.85 534.81 613.15 C 538.835 613.364 542.81 612.16 546.04 609.75 C 549.238 607.344 552.018 604.428 554.27 601.12 C 553.57 600.96 553.27 600.01 553.1 599.32 C 551.04 589.01 553.94 578.42 554.37 567.92 C 554.582 562.65 554.169 557.373 553.14 552.2 C 552.75 550.2 552.27 548.31 551.99 546.35 C 550.54 536.09 554.47 525.66 553.23 515.35 C 552.65 510.53 554.73 505.51 555.47 500.71 C 556.12 496.46 555.71 492.13 555.29 487.85 L 552 454.1 C 551.56 449.53 551.09 444.86 549.13 440.71 C 546.79 435.71 548.24 429.55 547.99 424.04 C 539.73 427.676 530.833 429.647 521.81 429.84 Z"
        fill="#46455b"/>
    <path
        id="path_59"
        d="M 541.13 329.89 C 543.852 322.457 547.386 315.347 551.67 308.69 C 552.573 307.383 553.376 306.009 554.07 304.58 C 555.53 301.34 555.68 297.68 556.45 294.2 C 558.6 284.46 565.62 276.1 566.52 266.2 C 566.84 262.59 568.78 259.28 569.99 255.87 C 570.8 253.56 571.72 251.12 573.68 249.65 C 574.996 248.772 576.559 248.34 578.139 248.415 C 579.719 248.491 581.234 249.071 582.46 250.07 C 583.656 251.106 584.599 252.403 585.214 253.862 C 585.83 255.32 586.102 256.9 586.01 258.48 C 586.014 259.921 585.597 261.333 584.81 262.54 C 583.75 264.01 582.03 264.8 580.51 265.77 C 576.591 268.296 573.793 272.238 572.7 276.77 C 570.78 285 571.3 293.45 568.63 301.46 C 565.96 309.47 562.63 317.27 560.4 325.46 C 559.15 330.09 558.26 334.86 556.17 339.18 C 554.08 343.5 550.53 347.4 545.86 348.51 C 545.566 345.537 544.796 342.629 543.58 339.9 C 542.18 336.74 539.95 333.1 541.13 329.89 Z"
        fill="#a0616a"/>
    <path
        id="path_60"
        d="M 490.82 341.3 C 490.434 335.457 488.926 329.743 486.38 324.47 C 485.38 322.47 484.26 320.47 484.14 318.18 C 484.201 316.092 484.673 314.036 485.53 312.13 C 487.794 305.292 489.582 298.305 490.88 291.22 L 493.64 277.92 C 494.875 276.799 495.967 275.529 496.89 274.14 C 498.82 271.377 499.952 268.134 500.16 264.77 C 500.252 263.092 500.009 261.412 499.444 259.829 C 498.879 258.245 498.004 256.791 496.87 255.55 C 496.363 254.952 495.734 254.469 495.025 254.135 C 494.316 253.8 493.544 253.621 492.76 253.61 C 492.08 253.69 491.424 253.909 490.832 254.253 C 490.241 254.597 489.726 255.059 489.32 255.61 C 488.118 257.296 487.253 259.197 486.77 261.21 C 485.77 264.51 484.77 267.94 485.21 271.36 C 485.61 274.19 487.01 277.26 485.58 279.74 C 480.89 287.89 477.66 297.03 474.18 305.74 C 473.29 307.834 472.564 309.994 472.01 312.2 C 471.308 315.757 471.18 319.403 471.63 323 C 472.449 329.752 473.752 336.436 475.53 343 C 476.53 347.12 477.78 351.6 481.24 354.07 C 484.09 349.51 486.97 345.04 490.82 341.3 Z"
        fill="#a0616a"/>
    <path
        id="path_61"
        d="M 510.33 325.28 M 493.16 325.28 C 493.149 321.647 494.29 318.103 496.42 315.16 C 498.55 312.217 501.56 310.024 505.014 308.899 C 508.468 307.775 512.192 307.775 515.646 308.899 C 519.1 310.024 522.11 312.217 524.24 315.16 C 526.37 318.103 527.511 321.647 527.5 325.28 C 527.511 328.913 526.37 332.457 524.24 335.4 C 522.11 338.343 519.1 340.536 515.646 341.661 C 512.192 342.785 508.468 342.785 505.014 341.661 C 501.56 340.536 498.55 338.343 496.42 335.4 C 494.29 332.457 493.149 328.913 493.16 325.28"
        fill="#a0616a"/>
    <path
        id="path_62"
        d="M 503.92 344.11 C 503.82 347.24 502.46 350.17 501.12 353.01 C 500.31 354.72 499.25 356.63 497.4 357.01 C 502.607 359.093 508.011 360.644 513.53 361.64 C 515.419 362.064 517.365 362.175 519.29 361.97 C 520.909 361.681 522.463 361.105 523.88 360.27 C 526.988 358.508 529.654 356.061 531.675 353.116 C 533.697 350.171 535.022 346.803 535.55 343.27 C 533.432 343.547 531.29 343.604 529.16 343.44 C 527.955 343.473 526.783 343.039 525.89 342.23 C 525.327 341.447 525.007 340.514 524.97 339.55 Q 524.4 335.29 524.06 331.01 C 519.837 331.174 515.682 332.127 511.81 333.82 C 510.21 334.52 508.65 335.33 507 335.93 C 506 336.29 503.11 336.36 502.41 337.01 C 501.33 338.04 503.98 341.95 503.92 344.11 Z"
        fill="#a0616a"/>
    <path
        id="path_63"
        d="M 512.53 353.71 C 512.109 351.487 511 349.451 509.36 347.892 C 507.72 346.333 505.632 345.328 503.39 345.02 C 501.59 344.81 499.69 345.02 498.02 344.35 C 495.17 343.12 493.97 339.53 491.21 338.12 C 488.45 336.71 484.87 338.02 482.83 340.38 C 480.79 342.74 479.93 345.95 479.31 348.95 C 478.349 353.11 478.035 357.394 478.38 361.65 C 478.428 362.431 478.635 363.193 478.99 363.89 C 479.563 364.69 480.254 365.398 481.04 365.99 C 482.112 366.976 482.959 368.181 483.523 369.524 C 484.087 370.866 484.356 372.314 484.31 373.77 C 484.345 376.509 484.874 379.219 485.87 381.77 C 488.26 388.85 490.66 395.94 492.74 403.12 C 493.194 404.448 493.443 405.837 493.48 407.24 C 493.43 409.24 492.48 411.24 492.97 413.19 C 493.296 414.089 493.567 415.008 493.78 415.94 C 493.797 416.663 493.702 417.385 493.5 418.08 C 492.19 423.7 488.43 436.64 489.08 442.37 C 497.61 439.23 510.48 437.37 519.52 436.37 C 522.006 436.084 524.507 435.937 527.01 435.93 C 533.01 435.93 539.3 437.06 544.9 434.86 C 550.09 432.86 554.4 428.04 559.98 428.02 C 560.85 424.75 558.35 414.41 556.9 411.35 C 551.212 399.299 548.969 385.906 550.42 372.66 C 550.94 367.9 549.04 363.1 549.69 358.35 C 549.782 357.238 550.092 356.154 550.6 355.16 C 550.863 354.666 551.244 354.245 551.71 353.936 C 552.177 353.627 552.713 353.439 553.27 353.39 C 552.605 345.943 551.147 338.588 548.92 331.45 C 548.11 328.91 546.65 325.97 543.99 325.8 C 541.59 325.64 539.82 327.8 538.09 329.49 C 536.304 331.184 534.172 332.471 531.84 333.26 C 530.885 333.471 529.993 333.906 529.24 334.53 C 528.24 335.58 528.24 337.29 527.41 338.53 C 525.97 340.75 522.29 340.96 521.41 343.44 C 521.225 344.169 521.095 344.911 521.02 345.66 C 520.611 347.12 519.792 348.432 518.66 349.44 C 517.003 351.35 514.896 352.817 512.53 353.71 Z"
        fill="#2f2e41"/>
    <path
        id="path_64"
        d="M 522.32 305.69 C 522.467 305.124 522.452 304.528 522.275 303.971 C 522.098 303.413 521.767 302.917 521.32 302.54 C 520.793 302.292 520.252 302.075 519.7 301.89 C 518.95 301.379 518.313 300.719 517.83 299.95 C 516.423 298.364 514.5 297.325 512.402 297.017 C 510.303 296.71 508.163 297.154 506.36 298.27 C 503.55 300.13 502.08 303.43 499.68 305.8 C 498.45 307.03 496.98 307.99 495.74 309.22 C 493.285 311.833 491.683 315.134 491.15 318.68 C 490.637 322.209 490.493 325.781 490.72 329.34 C 490.69 330.418 490.846 331.494 491.18 332.52 C 491.539 333.361 492.032 334.137 492.64 334.82 C 495.688 338.802 499.775 341.868 504.45 343.68 C 509.15 345.34 514.64 345.14 518.84 342.45 C 519.261 342.217 519.607 341.871 519.84 341.45 C 520.04 340.826 520.04 340.154 519.84 339.53 C 519.339 337.039 519.579 334.456 520.53 332.1 C 521.364 330.459 522.105 328.773 522.75 327.05 C 523.161 325.076 523.215 323.043 522.91 321.05 C 522.42 315.95 521.53 310.81 522.32 305.69 Z"
        fill="#46455b"/>
    <path
        id="path_65"
        d="M 812.85 571.95 C 812.85 670.33 874.57 749.95 950.85 749.95"
        fill="#46455b"/>
    <path
        id="path_66"
        d="M 950.85 749.95 C 950.85 650.45 1019.72 569.95 1104.85 569.95"
        fill="#6c63ff"/>
    <path
        id="path_67"
        d="M 862.85 580.81 C 862.85 674.27 902.2 749.9 950.85 749.9"
        fill="#6c63ff"/>
    <path
        id="path_68"
        d="M 950.85 749.95 C 950.85 622.82 1030.46 519.95 1128.85 519.95"
        fill="#46455b"/>
    <path
        id="path_69"
        d="M 910.55 778.1 C 910.55 779.638 914.167 781.114 920.599 782.201 C 927.031 783.289 935.764 783.9 944.86 783.9 C 953.956 783.9 962.689 783.289 969.121 782.201 C 975.553 781.114 979.17 779.638 979.17 778.1 C 979.17 776.562 975.553 775.086 969.121 773.999 C 962.689 772.911 953.956 772.3 944.86 772.3 C 935.764 772.3 927.031 772.911 920.599 773.999 C 914.167 775.086 910.55 776.562 910.55 778.1 Z"
        fill="#6c63ff"
        fill-opacity="0.1"
        stroke-opacity="0.1"/>
    <path
        id="path_70"
        d="M 921.81 751.15 C 921.81 751.15 941.38 750.55 947.28 746.35 C 953.18 742.15 977.39 737.13 978.85 743.87 C 980.31 750.61 1008.26 777.37 986.17 777.55 C 964.08 777.73 934.83 774.11 928.94 770.55 C 923.05 766.99 921.81 751.15 921.81 751.15 Z"
        fill="#a8a8a8"/>
    <path
        id="path_71"
        d="M 986.53 775.2 C 964.44 775.38 935.19 771.76 929.3 768.2 C 924.82 765.46 923.03 755.67 922.44 751.14 L 921.78 751.14 C 921.78 751.14 923.02 766.92 928.91 770.51 C 934.8 774.1 964.04 777.72 986.14 777.51 C 992.51 777.46 994.72 775.19 994.6 771.83 C 993.74 773.95 991.31 775.16 986.53 775.2 Z"
        fill="#000000"
        fill-opacity="0.2"
        stroke-opacity="0.2"/>
    <path
        id="path_72"
        d="M 815.53 36.6 C 816.395 35.368 816.872 33.905 816.9 32.4 C 816.9 23.28 798.32 15.9 775.4 15.9 C 752.48 15.9 733.9 23.28 733.9 32.4 C 733.919 34.096 734.491 35.74 735.53 37.08 C 710.01 39.93 692.82 45.27 692.82 51.4 C 692.82 60.51 730.82 67.9 777.82 67.9 C 824.82 67.9 862.82 60.51 862.82 51.4 C 862.85 44.95 843.53 39.3 815.53 36.6 Z"
        fill="#6c63ff"
        fill-opacity="0.1"
        stroke-opacity="0.1"/>
    <path
        id="path_73"
        d="M 306.53 54.6 C 307.395 53.368 307.872 51.905 307.9 50.4 C 307.9 41.28 289.32 33.9 266.4 33.9 C 243.48 33.9 224.9 41.28 224.9 50.4 C 224.942 52.105 225.543 53.75 226.61 55.08 C 201.09 57.93 183.9 63.27 183.9 69.4 C 183.9 78.51 221.95 85.9 268.9 85.9 C 315.85 85.9 353.9 78.51 353.9 69.4 C 353.85 62.95 334.53 57.3 306.53 54.6 Z"
        fill="#6c63ff"
        fill-opacity="0.1"
        stroke-opacity="0.1"/>
    <path
        id="path_74"
        d="M 598.27 40.74 C 600.6 39.39 603.75 40.68 605.35 42.86 C 606.95 45.04 607.35 47.86 607.8 50.48 C 608.69 56.4 609.34 63.19 605.35 67.64 C 611.87 47.87 630.62 32.73 651.35 30.52"
        fill="#00000000"
        fill-opacity="0.1"
        stroke="#6c63ff"
        stroke-opacity="0.1"
        stroke-width="3"/>
    <path
        id="path_75"
        d="M 264.74 141.72 C 266.24 140.85 268.26 141.72 269.29 143.08 C 270.207 144.56 270.75 146.243 270.87 147.98 C 271.44 151.79 271.87 156.15 269.3 158.98 C 271.493 152.632 275.427 147.027 280.651 142.807 C 285.876 138.587 292.183 135.919 298.85 135.11"
        fill="#00000000"
        fill-opacity="0.1"
        stroke="#6c63ff"
        stroke-opacity="0.1"
        stroke-width="3"/>
    <path
        id="path_76"
        d="M 714.74 171.72 C 716.24 170.85 718.26 171.72 719.29 173.08 C 720.207 174.56 720.75 176.243 720.87 177.98 C 721.44 181.79 721.87 186.15 719.3 188.98 C 721.493 182.632 725.427 177.027 730.651 172.807 C 735.876 168.587 742.183 165.919 748.85 165.11"
        fill="#00000000"
        fill-opacity="0.1"
        stroke="#6c63ff"
        stroke-opacity="0.1"
        stroke-width="3"/>
    <path
        id="path_77"
        d="M 677.85 507.95 L 677.85 483.65 L 689.05 494.85 L 691.85 491.95 L 675.85 475.95 L 659.85 491.95 L 662.65 494.74 L 673.85 483.65 L 673.85 507.95 Z"
        fill="#6c63ff"
        fill-opacity="0.1"
        stroke-opacity="0.1"/>
    <path
        id="path_78"
        d="M 435.85 587.95 L 435.85 563.65 L 447.05 574.85 L 449.85 571.95 L 433.85 555.95 L 417.85 571.95 L 420.65 574.74 L 431.85 563.65 L 431.85 587.95 Z"
        fill="#6c63ff"
        fill-opacity="0.1"
        stroke-opacity="0.1"/>
    <path
        id="path_79"
        d="M 613.85 658.95 L 613.85 634.65 L 625.05 645.85 L 627.85 642.95 L 611.85 626.95 L 595.85 642.95 L 598.65 645.74 L 609.85 634.65 L 609.85 658.95 Z"
        fill="#6c63ff"
        fill-opacity="0.1"
        stroke-opacity="0.1"/>
</svg>
